<?xml version="1.0" encoding="UTF-8" standalone="no"?>
<svg
   xmlns:dc="http://purl.org/dc/elements/1.1/"
   xmlns:cc="http://creativecommons.org/ns#"
   xmlns:rdf="http://www.w3.org/1999/02/22-rdf-syntax-ns#"
   xmlns:svg="http://www.w3.org/2000/svg"
   xmlns="http://www.w3.org/2000/svg"
   xmlns:sodipodi="http://sodipodi.sourceforge.net/DTD/sodipodi-0.dtd"
   xmlns:inkscape="http://www.inkscape.org/namespaces/inkscape"
   inkscape:version="1.0 (4035a4fb49, 2020-05-01)"
   sodipodi:docname="heromobile.svg"
   id="svg590"
   version="1.1"
   fill="none"
   viewBox="0 0 526.20178 306.26773"
   height="306.26773"
   width="526.20178">
  <metadata
     id="metadata594">
    <rdf:RDF>
      <cc:Work
         rdf:about="">
        <dc:format>image/svg+xml</dc:format>
        <dc:type
           rdf:resource="http://purl.org/dc/dcmitype/StillImage" />
      </cc:Work>
    </rdf:RDF>
  </metadata>
  <sodipodi:namedview
     inkscape:current-layer="svg590"
     inkscape:window-maximized="1"
     inkscape:window-y="-8"
     inkscape:window-x="-8"
     inkscape:cy="169.52738"
     inkscape:cx="269.43561"
     inkscape:zoom="1.5865922"
     showgrid="false"
     id="namedview592"
     inkscape:window-height="1058"
     inkscape:window-width="1920"
     inkscape:pageshadow="2"
     inkscape:pageopacity="0"
     guidetolerance="10"
     gridtolerance="10"
     objecttolerance="10"
     borderopacity="1"
     bordercolor="#666666"
     pagecolor="#ffffff" />
  <path
     id="path499"
     fill="#ced6ff"
     d="m 516.25661,267.14438 c -18.119,34.96 -51.451,23.028 -94.593,33.31 -39.269,9.359 -107.739,5.959 -150.625,0 -39.363,-5.469 -73.875,0 -119.875,-6.85 -51,-5 -79.490005,-24.858 -103.000205,-57 -26.2139,-35.838 -55.9192995,-83.135 -46.3171995,-120.216 C 11.682905,78.402377 88.756605,56.121377 123.91261,34.540377 c 26.603,-16.331 22.696,-23.333 54.791,-31.5930002 33.661,-8.6628 95.098,4.028 132.165,9.1560002 46.583,6.445 73.012,15.709 110.795,44.501 38.566,29.39 81.602,29.566 91.863,71.036003 10.308,41.662 21.099,104.061 2.73,139.504 z"
     clip-rule="evenodd"
     fill-rule="evenodd" />
  <g
     transform="translate(-44.064395,-98.972623)"
     id="g583"
     clip-path="url(#clip0)">
    <path
       id="path501"
       fill="#2f2e41"
       d="m 249.635,178.217 c 6.188,0 11.205,-5.025 11.205,-11.224 0,-6.198 -5.017,-11.223 -11.205,-11.223 -6.188,0 -11.205,5.025 -11.205,11.223 0,6.199 5.017,11.224 11.205,11.224 z" />
    <path
       id="path503"
       fill="#2f2e41"
       d="m 215.507,302.117 6.885,-23.914 2.343,0.733 c 0,0 -2.783,17.9 -7.177,22.448 z" />
    <path
       id="path505"
       fill="#ffb9b9"
       d="m 241.725,173.742 c 0,0 0.879,9.39 -1.171,12.031 -2.051,2.641 1.318,7.776 1.318,7.776 l 6.152,7.335 9.081,-4.108 1.318,-7.629 -0.879,-5.281 c 0,0 -3.076,-3.081 -1.757,-8.657 1.318,-5.575 -14.062,-1.467 -14.062,-1.467 z" />
    <path
       id="path507"
       fill="#000000"
       d="m 241.725,173.742 c 0,0 0.879,9.39 -1.171,12.031 -2.051,2.641 1.318,7.776 1.318,7.776 l 6.152,7.335 9.081,-4.108 1.318,-7.629 -0.879,-5.281 c 0,0 -3.076,-3.081 -1.757,-8.657 1.318,-5.575 -14.062,-1.467 -14.062,-1.467 z"
       opacity="0.1" />
    <path
       id="path509"
       fill="#ffb9b9"
       d="m 246.998,349.359 v 6.015 l 8.056,1.614 -0.732,-9.976 z" />
    <path
       id="path511"
       fill="#ffb9b9"
       d="m 271.166,347.012 -1.758,8.362 3.516,2.495 6.151,-4.548 -0.732,-7.19 z" />
    <path
       id="path513"
       fill="#2f2e41"
       d="m 255.787,356.255 c 0,0 -3.076,-5.208 -8.789,-1.944 0,0 -1.025,5.758 -2.05,6.199 -1.026,0.44 -6.738,8.802 0,9.536 6.737,0.734 10.106,-1.467 10.106,-1.467 0,0 -1.318,1.136 0.733,0.549 2.05,-0.587 1.171,-3.814 1.171,-3.814 z" />
    <path
       id="path515"
       fill="#2f2e41"
       d="m 275.853,352.734 c 0,0 -4.541,3.227 -5.273,1.76 -0.732,-1.467 -1.904,-1.32 -1.904,-1.32 0,0 -4.101,15.486 -1.465,16.219 1.698,0.419 3.481,0.327 5.127,-0.265 0,0 3.515,-2.466 3.515,-0.559 0,1.908 9.813,1.77 13.914,1.624 4.101,-0.147 1.904,-3.228 1.904,-3.228 l -5.419,-5.282 -6.152,-8.949 c 0,0 -2.783,-2.494 -4.247,0 z" />
    <path
       id="path517"
       fill="#2f2e41"
       d="m 232.644,254.582 6.152,59.126 c 0,0 3.369,36.091 3.955,36.678 0.586,0.587 4.394,2.494 12.743,0 l -1.904,-47.242 3.515,-29.343 8.056,20.247 c 0,0 1.904,54.431 3.222,54.431 1.318,0 9.374,2.641 11.278,-0.587 1.904,-3.228 1.611,-37.999 1.611,-37.999 0,0 -0.879,-54.871 -7.323,-56.632 -6.445,-1.76 -41.305,1.321 -41.305,1.321 z" />
    <path
       id="path519"
       fill="#ffb9b9"
       d="m 249.635,179.171 c 5.581,0 10.106,-4.533 10.106,-10.123 0,-5.591 -4.525,-10.124 -10.106,-10.124 -5.582,0 -10.107,4.533 -10.107,10.124 0,5.59 4.525,10.123 10.107,10.123 z" />
    <path
       id="path521"
       fill="#575a89"
       d="m 250.221,197.217 c 0,0 -1.026,-6.309 -1.026,-7.483 0,-1.173 -4.54,-1.907 -4.54,-1.907 0,0 -3.515,-3.961 -4.248,-3.374 -0.732,0.586 -11.864,8.069 -13.621,9.096 -1.758,1.027 -3.662,5.428 -3.516,5.722 0.147,0.293 9.228,19.366 9.228,19.366 0,0 3.955,11.737 1.172,17.899 -2.783,6.162 -6.299,18.339 -1.172,20.833 5.126,2.495 30.026,7.923 34.567,3.228 4.54,-4.695 7.762,-6.015 8.934,-6.015 1.172,0 -4.833,-20.393 -3.515,-22.301 1.318,-1.907 -0.586,-13.791 -0.586,-13.791 l 6.738,-18.926 c 0,0 -0.586,-10.563 -13.915,-12.911 l -7.974,-3.872 z" />
    <path
       id="path523"
       fill="#ffb9b9"
       d="m 222.831,257.223 c 0,0 -0.732,7.042 -0.732,9.096 0,2.054 -3.516,14.085 1.611,15.552 5.126,1.467 4.687,-15.992 4.687,-15.992 v -8.95 z" />
    <path
       id="path525"
       fill="#ffb9b9"
       d="m 283.616,250.621 c 0,0 0.879,6.748 0.439,8.216 -0.439,1.467 4.248,14.231 -2.05,14.964 -6.299,0.734 -4.688,-15.258 -4.688,-15.258 v -7.922 z" />
    <path
       id="path527"
       fill="#2f2e41"
       d="m 221.513,299.77 4.247,-22.594 h 1.319 c 0.921,1.19 1.526,2.595 1.756,4.084 0.231,1.488 0.08,3.011 -0.438,4.425 -1.758,4.989 -3.223,14.085 -3.223,14.085 z" />
    <path
       id="path529"
       fill="#575a89"
       d="m 225.467,197.51 -2.197,1.761 c 0,0 -2.929,46.655 -2.197,50.176 0.733,3.521 -2.636,8.509 0.293,8.949 2.93,0.441 6.445,2.348 8.056,1.174 1.611,-1.174 1.904,-5.428 2.49,-6.455 0.586,-1.027 1.611,-13.205 1.611,-13.205 0,0 3.076,-12.177 1.172,-21.273 -1.904,-9.096 -3.662,-18.339 -3.662,-18.339 z" />
    <path
       id="path531"
       fill="#575a89"
       d="m 271.898,193.842 6.738,5.722 5.126,29.93 c 0,0 3.222,23.327 0.733,23.621 -2.49,0.293 -6.299,-0.44 -7.91,0 -1.611,0.44 -2.929,-0.734 -2.929,-0.734 0,0 -1.758,-9.39 -1.758,-9.536 0,-0.147 -1.172,-10.857 -1.172,-10.857 l -1.464,-12.031 2.197,-13.204 z" />
    <path
       id="path533"
       fill="#3f3d56"
       d="m 240.114,332.34 c 0,0 -0.952,2.74 -2.264,6.469 -0.609,1.734 -1.296,3.684 -2.004,5.672 -0.455,1.285 -0.918,2.587 -1.374,3.857 -0.726,2.032 -1.432,3.983 -2.049,5.659 -0.814,2.211 -1.475,3.943 -1.829,4.752 -1.611,3.668 -31.052,-2.201 -33.395,-3.668 -2.344,-1.467 -2.93,-6.455 -3.223,-13.498 -0.001,-0.036 -0.002,-0.073 -0.002,-0.11 -0.039,-1.421 0.323,-3.538 0.928,-6.022 0.302,-1.242 0.665,-2.574 1.069,-3.957 0.542,-1.856 1.158,-3.802 1.801,-5.738 2.762,-8.319 6.018,-16.45 6.018,-16.45 0,0 5.712,-3.961 7.763,-6.602 2.05,-2.641 13.329,-4.695 13.329,-4.695 3.222,0.147 10.545,12.618 13.475,16.432 2.929,3.815 1.757,17.899 1.757,17.899 z" />
    <path
       id="path535"
       fill="#2f2e41"
       d="m 223.71,310.04 c 0.728,0 1.318,-0.591 1.318,-1.321 0,-0.729 -0.59,-1.32 -1.318,-1.32 -0.728,0 -1.319,0.591 -1.319,1.32 0,0.73 0.591,1.321 1.319,1.321 z" />
    <path
       id="path537"
       fill="#2f2e41"
       d="m 225.76,310.92 c 0.405,0 0.733,-0.328 0.733,-0.733 0,-0.406 -0.328,-0.734 -0.733,-0.734 -0.404,0 -0.732,0.328 -0.732,0.734 0,0.405 0.328,0.733 0.732,0.733 z" />
    <path
       id="path539"
       fill="#f2f2f2"
       d="m 237.85,338.809 c -0.609,1.734 -1.296,3.684 -2.004,5.672 l -39.875,-12.987 c 0.542,-1.856 1.157,-3.802 1.8,-5.738 z" />
    <path
       id="path541"
       fill="#f2f2f2"
       d="m 234.472,348.338 c -0.726,2.032 -1.432,3.983 -2.049,5.659 l -38.449,-12.524 c -0.039,-1.421 0.323,-3.538 0.928,-6.022 z" />
    <path
       id="path543"
       stroke-miterlimit="10"
       stroke-width="3"
       stroke="#2f2e41"
       d="m 223.71,309.013 c 0,0 2.929,12.911 1.171,24.354 -1.757,11.444 4.395,22.154 4.395,22.154" />
    <path
       id="path545"
       stroke-miterlimit="10"
       stroke-width="3"
       stroke="#2f2e41"
       d="m 225.76,310.04 c 0,0 -5.712,20.833 -5.858,23.768 -0.147,2.934 -2.49,23.914 -5.42,26.115" />
    <path
       id="path547"
       fill="#2f2e41"
       d="m 239.876,162.87 c 0,0 -2.288,-5.958 1.029,-7.906 l 0.915,2.636 c 0,0 8.35,-5.042 10.524,-3.896 l -2.059,2.75 c 0,0 9.722,0 10.409,3.781 l -3.432,0.114 c 0,0 3.66,2.406 3.775,6.302 l -7.321,0.458 3.546,2.063 c 0,0 -13.268,1.833 -16.471,-3.438 z" />
    <path
       id="path549"
       fill="#2f2e41"
       d="m 239.895,163.106 c 0,0 2.636,5.281 6.151,3.961 3.516,-1.321 0,-6.162 0,-6.162 l -2.343,-1.174 z" />
    <path
       id="path551"
       fill="#f2f2f2"
       d="m 467.241,246.43 -47.806,-59.84 c -2.171,1.988 -4.846,3.341 -7.732,3.91 -9,1.776 -17.79,-4.381 -19.632,-13.75 -0.635,-3.099 -0.413,-6.313 0.642,-9.294 1.055,-2.982 2.903,-5.618 5.344,-7.625 l -16.301,-20.404 -92.867,79.502 85.485,107.003 z" />
    <path
       id="path553"
       fill="#f2f2f2"
       d="m 407.84,187.657 c 7.443,0 13.477,-6.044 13.477,-13.5 0,-7.456 -6.034,-13.5 -13.477,-13.5 -7.444,0 -13.478,6.044 -13.478,13.5 0,7.456 6.034,13.5 13.478,13.5 z" />
    <path
       id="path555"
       fill="#6c63ff"
       d="m 323.509,234.311 -4.124,4.78 13.893,12.025 4.124,-4.78 z" />
    <path
       id="path557"
       fill="#6c63ff"
       d="m 412.818,319.801 -4.124,4.78 12.315,10.659 4.124,-4.781 z" />
    <path
       id="path559"
       fill="#3f3d56"
       d="m 435.069,284.195 v 0.37 c -0.009,0.931 -0.035,1.858 -0.08,2.78 -0.802,15.786 -7.6,30.667 -19.002,41.593 -11.403,10.927 -26.545,17.071 -42.325,17.175 -15.779,0.103 -31,-5.843 -42.544,-16.619 -11.544,-10.776 -18.537,-25.566 -19.544,-41.34 -0.084,-1.31 -0.127,-2.63 -0.127,-3.959 -0.022,-12.824 3.951,-25.334 11.366,-35.788 0.593,-0.843 1.21,-1.67 1.85,-2.481 0.442,-0.564 0.896,-1.116 1.354,-1.664 10.434,-12.381 25.298,-20.174 41.402,-21.704 16.104,-1.531 32.165,3.322 44.738,13.517 0.744,0.602 1.476,1.225 2.191,1.861 0.571,0.51 1.133,1.031 1.686,1.563 10.876,10.42 17.57,24.467 18.82,39.49 0.143,1.718 0.215,3.454 0.215,5.206 z" />
    <path
       id="path561"
       fill="#6c63ff"
       d="m 373.258,353.901 c -38.372,0 -69.589,-31.27 -69.589,-69.706 -0.023,-17.586 6.612,-34.526 18.568,-47.403 l 1.541,1.432 c -11.594,12.489 -18.029,28.917 -18.007,45.971 0,37.275 30.275,67.6 67.487,67.6 9.042,0.03 17.996,-1.774 26.323,-5.304 8.327,-3.53 15.853,-8.713 22.126,-15.236 l 1.509,1.466 c -6.468,6.726 -14.229,12.071 -22.815,15.711 -8.586,3.64 -17.819,5.5 -27.143,5.469 z" />
    <path
       id="path563"
       fill="#6c63ff"
       d="m 383.35,352.427 h -17.66 v 17.689 h 17.66 z" />
    <path
       id="path565"
       fill="#6c63ff"
       d="m 324.663,245.926 c 0.031,0.013 0.059,0.03 0.084,0.051 0.333,0.273 -0.084,0.8 -0.033,1.234 0.059,0.556 0.799,0.678 1.358,0.732 0.559,0.059 1.266,0.51 1.001,1.007 -1.405,0.484 -2.826,0.008 -4.26,-0.543 -7.414,10.454 -11.388,22.964 -11.365,35.788 0,1.331 0.042,2.65 0.126,3.959 0.117,0.086 0.246,0.155 0.382,0.206 0.421,0.16 0.909,0.131 1.295,0.358 0.307,0.181 0.513,0.501 0.82,0.67 0.879,0.48 2.099,-0.442 2.919,0.131 0.211,0.193 0.412,0.398 0.601,0.614 0.757,0.658 2.001,0.215 2.876,0.708 0.563,0.316 0.854,0.948 1.156,1.521 0.753,1.432 1.972,2.838 3.583,2.952 0.508,-0.023 1.017,-0.006 1.522,0.051 0.496,0.113 0.984,0.547 0.904,1.048 -0.139,0.864 0.286,1.807 0.172,2.671 -0.206,1.579 -2.438,2.27 -2.628,3.849 0,0.348 -0.02,0.695 -0.059,1.041 -0.1,0.412 -0.412,0.749 -0.521,1.162 -0.21,0.779 0.349,1.558 0.959,2.081 0.614,0.526 1.345,0.981 1.682,1.714 0.353,0.779 0.181,1.685 0.294,2.531 0.252,1.849 1.846,3.218 3.486,4.103 0.525,0.22 0.992,0.56 1.362,0.994 0.421,0.61 0.379,1.415 0.522,2.143 0.344,1.782 1.841,3.252 1.883,5.067 0.03,1.293 -0.685,2.464 -1.114,3.681 -0.441,1.276 -0.572,2.639 -0.383,3.976 2.398,2.037 4.946,3.889 7.624,5.539 0.145,-0.216 0.252,-0.455 0.315,-0.708 0.051,-0.279 0.016,-0.567 -0.101,-0.826 -0.116,-0.259 -0.308,-0.476 -0.551,-0.623 0.452,-0.171 0.863,-0.435 1.207,-0.775 0.169,-0.174 0.281,-0.395 0.32,-0.635 0.039,-0.239 0.004,-0.485 -0.101,-0.704 0.74,0.093 1.619,0.139 2.106,-0.43 0.391,-0.454 0.366,-1.137 0.211,-1.714 -0.214,-0.561 -0.355,-1.147 -0.421,-1.743 1.715,0.083 3.433,0.025 5.138,-0.173 -0.246,-0.833 -0.807,-1.537 -1.564,-1.963 0.774,-0.13 1.476,-1.057 1.72,-1.803 0.211,-0.76 0.222,-1.562 0.034,-2.329 -0.059,-0.197 -0.068,-0.405 -0.026,-0.606 0.125,-0.267 0.343,-0.479 0.614,-0.594 1.279,-0.737 2.557,-1.473 3.835,-2.207 0.228,-0.115 0.436,-0.268 0.614,-0.451 0.399,-0.476 0.341,-1.187 0.135,-1.773 -0.206,-0.585 -0.534,-1.137 -0.614,-1.752 -0.236,-1.841 1.732,-3.163 2.396,-4.898 0.226,-0.693 0.348,-1.416 0.362,-2.144 0.055,-0.784 0.059,-1.689 -0.538,-2.19 -0.576,-0.485 -1.472,-0.375 -2.073,-0.826 -0.551,-0.413 -0.74,-1.209 -1.342,-1.541 -0.546,-0.304 -1.227,-0.11 -1.837,-0.253 -1.068,-0.249 -1.741,-1.483 -2.834,-1.596 -0.614,-0.068 -1.312,0.235 -1.817,-0.123 -0.445,-0.32 -0.462,-0.956 -0.546,-1.495 -0.149,-0.839 -0.552,-1.613 -1.153,-2.217 -0.602,-0.604 -1.373,-1.009 -2.211,-1.161 -0.635,-0.101 -1.325,-0.063 -1.867,-0.412 -0.547,-0.354 -0.795,-1.015 -1.228,-1.508 -0.689,-0.788 -1.783,-1.07 -2.804,-1.31 -1.388,-0.324 -2.774,-0.65 -4.159,-0.977 -0.736,-0.177 -1.686,-0.27 -2.085,0.379 -0.119,0.246 -0.201,0.509 -0.244,0.779 -0.151,0.486 -0.45,0.912 -0.856,1.218 -0.407,0.305 -0.899,0.475 -1.407,0.484 -0.347,-0.595 -0.911,-1.033 -1.572,-1.222 -0.432,-0.073 -0.859,-0.174 -1.278,-0.303 -0.219,-0.108 -0.414,-0.258 -0.572,-0.444 -0.159,-0.185 -0.278,-0.401 -0.35,-0.634 -0.073,-0.233 -0.097,-0.478 -0.072,-0.721 0.026,-0.243 0.101,-0.478 0.22,-0.69 0.238,-0.428 0.33,-0.922 0.261,-1.407 -0.069,-0.484 -0.295,-0.933 -0.644,-1.276 -0.706,-0.636 -1.728,-0.792 -2.678,-0.729 -0.248,-0.543 0.168,-1.154 0.614,-1.55 0.45,-0.392 0.992,-0.779 1.089,-1.369 0.155,-0.926 -1.026,-1.63 -1.922,-1.356 -0.895,0.278 -1.467,1.15 -1.846,2.009 -0.183,0.507 -0.434,0.987 -0.744,1.428 -0.159,0.218 -0.375,0.388 -0.625,0.49 -0.249,0.103 -0.522,0.134 -0.788,0.091 -0.74,-0.189 -1.022,-1.07 -1.186,-1.811 -0.262,-0.991 -0.395,-2.012 -0.395,-3.037 0.007,-1.035 0.417,-2.027 1.144,-2.763 1.223,-1.128 3.107,-1.019 4.76,-0.838 -0.177,-0.236 -0.262,-0.529 -0.239,-0.824 0.023,-0.295 0.153,-0.571 0.365,-0.776 0.221,-0.197 0.487,-0.337 0.774,-0.407 0.287,-0.071 0.587,-0.07 0.874,0.002 0.498,0.104 0.947,0.372 1.274,0.763 0.471,0.573 0.606,1.352 0.959,2 0.357,0.653 1.156,1.209 1.808,0.86 0.568,-0.304 0.656,-1.087 0.517,-1.715 -0.143,-0.623 -0.441,-1.234 -0.391,-1.874 0.097,-1.217 1.362,-1.954 2.477,-2.455 1.114,-0.502 2.388,-1.18 2.565,-2.393 0.008,-0.236 0.053,-0.469 0.134,-0.691 0.124,-0.197 0.296,-0.36 0.501,-0.471 3.25,-2.153 6.559,-4.334 10.276,-5.509 0.194,-0.064 0.215,0.004 0.412,-0.042 0.278,-0.16 0.093,-0.603 -0.172,-0.78 -0.265,-0.177 -0.618,-0.316 -0.686,-0.627 -0.046,-0.228 0.089,-0.455 0.122,-0.687 0.009,-0.14 -0.016,-0.28 -0.074,-0.407 -0.058,-0.128 -0.146,-0.24 -0.257,-0.325 -0.111,-0.086 -0.241,-0.143 -0.379,-0.167 -0.138,-0.023 -0.279,-0.012 -0.412,0.032 -0.299,-0.396 0.29,-0.855 0.769,-0.99 1.435,-0.394 2.908,-0.634 4.394,-0.716 0.172,-0.029 0.348,0.001 0.501,0.084 0.109,0.106 0.174,0.249 0.181,0.401 0.007,0.152 -0.045,0.301 -0.144,0.416 -0.202,0.225 -0.426,0.43 -0.668,0.611 -0.241,0.235 -0.414,0.531 -0.498,0.857 -0.085,0.326 -0.078,0.669 0.019,0.992 0.777,0.396 1.618,0.804 2.48,0.665 0.858,-0.139 1.619,-1.107 1.216,-1.878 -0.375,-0.72 -1.506,-0.885 -1.699,-1.672 -0.227,-0.923 1.076,-1.744 0.782,-2.645 -0.126,-0.396 -0.521,-0.632 -0.824,-0.914 -0.357,-0.352 -0.599,-0.802 -0.696,-1.294 -0.096,-0.491 -0.043,-1 0.153,-1.461 -0.492,0.086 -0.998,0.053 -1.475,-0.096 -0.476,-0.15 -0.911,-0.411 -1.266,-0.763 -0.656,-0.661 -1.178,-1.71 -2.111,-1.676 -0.854,0.025 -1.589,1.023 -2.388,0.72 -0.198,-0.076 -0.404,-0.228 -0.593,-0.139 -0.063,0.04 -0.115,0.094 -0.154,0.157 -0.038,0.064 -0.062,0.135 -0.069,0.209 -0.202,0.973 0.147,2.081 -0.383,2.923 -0.576,0.914 -1.909,1.041 -2.607,1.866 -0.378,0.447 -0.525,1.049 -0.874,1.521 -0.349,0.471 -1.085,0.775 -1.506,0.362 0.206,-0.423 0.263,-0.903 0.16,-1.362 -0.102,-0.46 -0.357,-0.87 -0.723,-1.165 -0.387,-0.255 -0.806,-0.459 -1.245,-0.607 -0.49,-0.207 -0.957,-0.467 -1.391,-0.775 -0.217,-0.132 -0.393,-0.321 -0.509,-0.547 -0.092,-0.284 -0.08,-0.592 0.033,-0.868 0.213,-0.608 0.588,-1.147 1.083,-1.558 0.496,-0.411 1.094,-0.679 1.73,-0.775 0.555,-0.076 1.203,-0.051 1.573,-0.476 0.193,-0.223 0.294,-0.565 0.58,-0.653 0.18,-0.038 0.368,-0.015 0.534,0.063 0.694,0.244 1.384,0.489 2.077,0.733 0.232,0.106 0.487,0.149 0.74,0.122 0.126,-0.016 0.241,-0.079 0.321,-0.177 0.08,-0.098 0.121,-0.223 0.113,-0.349 -0.068,-0.346 -0.598,-0.51 -0.547,-0.859 0.024,-0.115 0.085,-0.218 0.172,-0.295 0.75,-0.799 1.667,-1.422 2.686,-1.825 1.018,-0.403 2.113,-0.575 3.205,-0.504 0.261,0.433 -0.151,0.943 -0.5,1.309 -0.345,0.371 -0.622,1.028 -0.202,1.31 0.17,0.089 0.359,0.133 0.551,0.127 0.511,0.068 1.008,0.219 1.472,0.446 0.719,0.312 1.425,0.657 2.115,1.028 -0.102,-0.452 -0.085,-0.922 0.05,-1.365 0.076,-0.217 0.23,-0.398 0.432,-0.508 0.202,-0.11 0.438,-0.14 0.661,-0.086 0.412,0.16 0.623,0.708 1.064,0.758 0.585,0.068 0.816,-0.8 0.572,-1.339 -0.244,-0.539 -0.732,-0.985 -0.769,-1.579 -0.03,-0.396 0.121,-0.889 -0.194,-1.129 -0.112,-0.075 -0.24,-0.121 -0.374,-0.135 -2.641,-0.484 -5.283,-0.97 -7.926,-1.457 -0.471,-0.089 -1.148,-0.021 -1.169,0.455 -0.013,0.269 0.227,0.535 0.122,0.779 -0.114,0.261 -0.484,0.24 -0.753,0.333 -0.202,0.091 -0.369,0.247 -0.475,0.442 -0.106,0.195 -0.146,0.42 -0.114,0.64 0.072,0.438 0.242,0.854 0.497,1.217 -0.518,-0.215 -1.295,-0.252 -1.813,-0.471 -0.075,-0.6 -0.228,-1.188 -0.454,-1.748 -0.013,-0.09 -0.045,-0.175 -0.094,-0.25 -0.05,-0.076 -0.115,-0.139 -0.192,-0.187 -0.076,-0.047 -0.162,-0.077 -0.251,-0.087 -0.09,-0.011 -0.18,-0.002 -0.266,0.027 -0.681,0.105 -1.362,0.206 -2.043,0.311 -0.171,0.008 -0.335,0.072 -0.467,0.181 -0.265,0.283 -0.004,0.733 -0.013,1.121 -0.024,0.216 -0.116,0.42 -0.261,0.582 -0.146,0.163 -0.338,0.275 -0.55,0.323 -0.428,0.087 -0.87,0.082 -1.295,-0.017 -0.955,-0.147 -1.905,-0.294 -2.86,-0.442 0.843,-0.269 1.592,-0.771 2.162,-1.449 0.378,-0.446 0.58,-1.28 0.033,-1.491 -0.161,-0.044 -0.33,-0.057 -0.496,-0.038 -1.295,0.009 -2.317,-1.074 -3.528,-1.533 -0.381,-0.142 -0.783,-0.216 -1.19,-0.219 z" />
    <path
       id="path567"
       fill="#6c63ff"
       d="m 434.989,287.345 c -0.148,0.2 -0.343,0.36 -0.567,0.466 -0.225,0.106 -0.472,0.156 -0.72,0.145 -1.316,-0.114 -1.871,-2.013 -3.174,-2.228 -0.116,-0.03 -0.238,-0.018 -0.345,0.034 -0.193,0.105 -0.227,0.366 -0.24,0.585 -0.054,1.087 -0.101,2.215 0.324,3.218 0.618,1.466 2.22,2.695 1.884,4.25 -1.808,-0.839 -2.75,-2.873 -3.175,-4.823 -0.429,-1.95 -0.496,-3.997 -1.261,-5.842 -0.585,0.746 -1.804,0.131 -2.334,-0.653 -0.505,-0.741 -0.816,-1.6 -1.303,-2.354 -0.488,-0.75 -1.237,-1.424 -2.128,-1.466 -0.938,-0.042 -1.753,0.603 -2.468,1.213 -0.622,0.46 -1.144,1.042 -1.535,1.71 -0.5,1.011 -0.37,2.199 -0.395,3.323 -0.026,1.213 -0.282,2.498 -1.11,3.391 -0.829,0.889 -2.355,1.2 -3.267,0.396 -0.442,-0.461 -0.756,-1.028 -0.913,-1.647 -0.992,-2.896 -1.817,-5.846 -2.472,-8.836 -0.152,0.682 -0.753,1.562 -1.325,1.162 -0.128,-0.109 -0.231,-0.244 -0.303,-0.396 -1.068,-1.807 -3.04,-2.893 -5.037,-3.546 -1.993,-0.649 -4.091,-0.952 -6.063,-1.668 -1.106,-0.402 -2.163,-0.929 -3.15,-1.571 -0.25,0.37 -0.397,0.801 -0.423,1.247 -0.027,0.446 0.067,0.891 0.272,1.288 0.222,0.389 0.565,0.693 0.977,0.866 0.412,0.173 0.87,0.205 1.302,0.09 0.437,-0.143 0.807,-0.446 1.24,-0.598 0.433,-0.147 1.018,-0.075 1.207,0.346 0.185,0.4 -0.092,0.884 0.046,1.305 0.206,0.636 1.169,0.687 1.506,1.268 0.099,0.23 0.121,0.486 0.065,0.73 -0.057,0.244 -0.19,0.464 -0.381,0.626 -0.387,0.316 -0.814,0.58 -1.27,0.784 -1.412,0.787 -2.417,2.131 -3.654,3.176 -1.236,1.048 -2.981,1.811 -4.452,1.141 0.349,-1.782 -1.766,-3.087 -2.157,-4.861 -0.131,-0.585 -0.064,-1.204 -0.244,-1.773 -0.265,-0.825 -0.997,-1.39 -1.594,-2.013 -0.725,-0.765 -1.291,-1.668 -1.663,-2.655 -0.371,-0.988 -0.542,-2.04 -0.502,-3.094 0.033,-0.733 0.168,-1.478 0,-2.194 -0.164,-0.712 -0.757,-1.403 -1.489,-1.374 -1.669,0.076 -3.776,0.203 -4.65,-1.225 -0.316,-0.51 -0.45,-1.255 0.004,-1.647 0.177,-0.113 0.375,-0.189 0.582,-0.224 0.208,-0.036 0.42,-0.03 0.624,0.018 1.258,0.122 2.511,0.248 3.768,0.37 0.879,0.084 1.829,0.156 2.586,-0.303 0.757,-0.459 1.085,-1.685 0.383,-2.228 -0.509,-0.396 -1.426,-0.375 -1.577,-1.002 -0.122,-0.527 0.458,-1.121 0.143,-1.563 -0.223,-0.312 -0.728,-0.228 -1.035,0.008 -0.267,0.279 -0.559,0.534 -0.87,0.763 -0.601,0.311 -1.316,0.012 -1.964,-0.19 -0.647,-0.202 -1.513,-0.219 -1.825,0.383 -0.353,0.67 0.307,1.555 -0.037,2.228 -0.463,0.889 -2.019,0.384 -2.666,1.15 -0.74,0.876 0.504,2.19 0.256,3.311 -0.319,0.159 -0.674,0.231 -1.03,0.212 -0.356,-0.02 -0.701,-0.133 -1.001,-0.326 -0.294,-0.2 -0.528,-0.477 -0.678,-0.8 -0.149,-0.324 -0.209,-0.682 -0.171,-1.036 0.059,-0.506 0.324,-1.024 0.147,-1.5 -0.19,-0.367 -0.505,-0.655 -0.887,-0.813 -1.219,-0.678 -2.439,-1.353 -3.658,-2.025 -0.341,0.631 0.088,1.41 0.626,1.886 0.534,0.472 1.207,0.83 1.56,1.454 0.224,0.432 0.274,0.933 0.142,1.401 -0.133,0.468 -0.44,0.868 -0.857,1.117 -0.052,0.037 -0.112,0.061 -0.176,0.072 -0.063,0.011 -0.128,0.008 -0.189,-0.009 -0.059,-0.034 -0.11,-0.08 -0.15,-0.134 -0.04,-0.054 -0.07,-0.116 -0.086,-0.182 -0.643,-1.655 -1.615,-3.285 -3.162,-4.148 -1.551,-0.868 -3.776,-0.687 -4.793,0.766 -0.24,0.346 -0.404,0.742 -0.614,1.108 -1.115,1.942 -3.511,2.86 -5.748,2.801 -0.219,0.014 -0.437,-0.037 -0.627,-0.147 -0.361,-0.249 -0.345,-0.78 -0.29,-1.218 0.08,-0.619 0.156,-1.234 0.236,-1.853 10e-4,-0.378 0.147,-0.741 0.407,-1.015 0.417,-0.328 1.014,-0.122 1.544,-0.131 0.399,-0.017 0.784,-0.158 1.101,-0.403 0.317,-0.245 0.55,-0.582 0.669,-0.965 0.106,-0.387 0.106,-0.795 -0.003,-1.181 -0.108,-0.386 -0.319,-0.735 -0.611,-1.01 -0.24,-0.227 -0.564,-0.513 -0.437,-0.821 0.051,-0.085 0.12,-0.157 0.202,-0.212 0.082,-0.056 0.175,-0.092 0.273,-0.108 0.946,-0.274 1.951,-0.345 2.88,-0.674 0.933,-0.324 1.838,-0.99 2.06,-1.954 0.068,-0.295 0.097,-0.653 0.362,-0.8 0.134,-0.054 0.276,-0.083 0.421,-0.085 0.505,-0.072 0.965,-0.331 1.29,-0.727 0.324,-0.395 0.489,-0.897 0.463,-1.408 0.446,-0.312 1.072,-0.08 1.505,0.253 0.429,0.332 0.812,0.77 1.337,0.914 0.98,0.269 1.926,-0.603 2.944,-0.607 0.429,0 0.87,0.152 1.27,0.004 0.407,-0.147 0.651,-0.551 0.962,-0.85 0.316,-0.304 0.862,-0.485 1.153,-0.16 -0.085,-0.611 -0.164,-1.218 -0.248,-1.824 0.495,0.125 1.011,0.142 1.514,0.051 0.502,-0.092 0.98,-0.29 1.399,-0.582 -1.059,-0.358 -2.115,-0.716 -3.174,-1.074 -0.111,-0.027 -0.214,-0.082 -0.299,-0.16 -0.231,-0.248 0,-0.636 0.185,-0.918 0.45,-0.678 0.526,-1.794 -0.214,-2.131 -0.505,-0.232 -1.081,0.046 -1.564,0.316 -0.774,0.429 -1.548,0.863 -2.321,1.293 -0.072,0.442 0.466,0.695 0.799,0.989 0.202,0.18 0.345,0.417 0.411,0.68 0.065,0.263 0.049,0.54 -0.045,0.794 -0.095,0.254 -0.264,0.473 -0.486,0.629 -0.221,0.156 -0.485,0.24 -0.755,0.243 0.152,0.2 0.258,0.431 0.31,0.676 0.052,0.246 0.048,0.5 -0.012,0.744 -0.517,0.038 -1.038,0.076 -1.56,0.113 -0.086,0.018 -0.175,0.018 -0.262,0 -0.086,-0.017 -0.169,-0.051 -0.242,-0.101 -0.168,-0.147 -0.143,-0.408 -0.185,-0.627 -0.069,-0.262 -0.215,-0.497 -0.419,-0.675 -0.204,-0.178 -0.456,-0.29 -0.725,-0.323 -0.535,-0.061 -1.078,-0.011 -1.593,0.147 -0.225,0.079 -0.47,0.073 -0.69,-0.017 -0.125,-0.083 -0.219,-0.204 -0.269,-0.345 -0.092,-0.289 -0.107,-0.597 -0.045,-0.893 0.062,-0.297 0.199,-0.572 0.398,-0.8 0.404,-0.449 0.849,-0.86 1.329,-1.226 1.088,-0.954 1.887,-2.194 2.308,-3.58 0.858,-0.362 1.745,-0.851 2.607,-1.213 0.693,-0.322 1.419,-0.566 2.166,-0.729 0.702,-0.107 1.414,-0.141 2.123,-0.101 0.967,0.017 1.939,0.034 2.906,0.055 0.863,-0.036 1.725,0.088 2.544,0.366 0.794,0.329 1.496,1.041 1.551,1.9 0.017,0.098 0.008,0.198 -0.025,0.292 -0.033,0.094 -0.09,0.177 -0.164,0.243 -0.112,0.062 -0.238,0.091 -0.366,0.084 -0.803,0.025 -1.144,0.228 -1.947,0.257 0.509,0.543 1.081,1.116 1.821,1.213 1.303,0.168 2.241,-1.184 2.842,-2.359 0.022,0.3 0.159,0.578 0.383,0.777 0.224,0.2 0.517,0.303 0.816,0.289 0.322,-0.055 0.629,-0.176 0.904,-0.354 2.586,-1.416 5.483,-2.165 8.43,-2.182 -0.028,-0.223 0.026,-0.449 0.155,-0.635 0.128,-0.185 0.32,-0.316 0.539,-0.367 0.602,-0.118 1.14,0.4 1.43,0.939 0.286,0.539 0.467,1.163 0.929,1.567 0.458,0.404 1.346,0.383 1.527,-0.198 0.176,-0.56 -0.408,-1.04 -0.892,-1.373 -0.488,-0.328 -0.996,-0.939 -0.668,-1.428 2.472,-0.551 4.965,-1.099 7.501,-1.209 0.431,0.014 0.86,-0.061 1.261,-0.219 0.199,-0.084 0.365,-0.232 0.471,-0.42 0.106,-0.188 0.148,-0.406 0.118,-0.62 -0.553,0.129 -1.132,0.091 -1.664,-0.11 -0.532,-0.201 -0.991,-0.555 -1.321,-1.019 2.602,-0.214 5.327,-0.404 7.829,0.181 l 2.191,1.862 c -0.417,0.434 -0.972,0.842 -0.669,1.276 0.1,0.1 0.221,0.176 0.354,0.222 0.134,0.045 0.276,0.061 0.416,0.044 0.529,0.008 1.059,0.021 1.585,0.021 10.876,10.42 17.57,24.466 18.821,39.49 -0.883,-0.034 -1.695,1.087 -1.581,2.064 0.134,1.133 0.95,2.042 1.534,3.02 0.097,0.158 0.184,0.323 0.261,0.492 z" />
    <path
       id="path569"
       stroke-miterlimit="10"
       stroke-width="2"
       stroke="#3f3d56"
       d="m 186.728,370.065 h 321" />
    <path
       id="path571"
       stroke-miterlimit="10"
       stroke-width="2"
       stroke="#3f3d56"
       d="m 319.159,168.404 c 2.946,0 5.334,-2.393 5.334,-5.343 0,-2.951 -2.388,-5.343 -5.334,-5.343 -2.946,0 -5.334,2.392 -5.334,5.343 0,2.95 2.388,5.343 5.334,5.343 z" />
    <path
       id="path573"
       stroke-miterlimit="10"
       stroke-width="2"
       stroke="#3f3d56"
       d="m 476.767,270.151 c 2.946,0 5.334,-2.392 5.334,-5.343 0,-2.951 -2.388,-5.343 -5.334,-5.343 -2.946,0 -5.334,2.392 -5.334,5.343 0,2.951 2.388,5.343 5.334,5.343 z" />
    <path
       id="path575"
       stroke-miterlimit="10"
       stroke-width="2"
       stroke="#3f3d56"
       d="m 440.354,216.924 c 2.945,0 5.334,-2.392 5.334,-5.343 0,-2.951 -2.389,-5.343 -5.334,-5.343 -2.946,0 -5.334,2.392 -5.334,5.343 0,2.951 2.388,5.343 5.334,5.343 z" />
    <path
       id="path577"
       fill="#3f3d56"
       d="m 405.358,262.712 c 3.305,0 5.985,-2.685 5.985,-5.996 0,-3.311 -2.68,-5.996 -5.985,-5.996 -3.306,0 -5.986,2.685 -5.986,5.996 0,3.311 2.68,5.996 5.986,5.996 z" />
    <path
       id="path579"
       fill="#ffffff"
       d="m 424.586,245.348 c 4.357,0 7.89,-3.539 7.89,-7.904 0,-4.365 -3.533,-7.904 -7.89,-7.904 -4.358,0 -7.891,3.539 -7.891,7.904 0,4.365 3.533,7.904 7.891,7.904 z" />
    <path
       id="path581"
       fill="#f50057"
       d="m 432.565,229.25 c -2.117,-2.069 -4.969,-3.211 -7.928,-3.174 -2.958,0.036 -5.781,1.249 -7.847,3.37 -4.302,4.418 -10.444,26.726 -10.444,26.726 0,0 22.112,-6.703 26.415,-11.12 2.066,-2.121 3.206,-4.978 3.169,-7.941 -0.037,-2.964 -1.247,-5.791 -3.365,-7.861 z m -11.589,11.901 c -0.732,-0.715 -1.236,-1.632 -1.448,-2.634 -0.212,-1.002 -0.122,-2.044 0.257,-2.995 0.38,-0.951 1.032,-1.768 1.875,-2.348 0.843,-0.579 1.839,-0.895 2.861,-0.908 1.023,-0.012 2.026,0.279 2.883,0.837 0.857,0.559 1.53,1.359 1.933,2.3 0.403,0.942 0.518,1.981 0.331,2.988 -0.187,1.007 -0.668,1.936 -1.382,2.669 -0.957,0.983 -2.266,1.545 -3.636,1.562 -1.371,0.017 -2.693,-0.512 -3.674,-1.471 z" />
  </g>
  <defs
     id="defs588">
    <clipPath
       id="clip0">
      <rect
         y="0"
         x="0"
         id="rect585"
         transform="translate(186.728,139.427)"
         fill="#ffffff"
         height="231"
         width="321" />
    </clipPath>
  </defs>
</svg>
