<?xml version="1.0" encoding="UTF-8" standalone="no"?>
<svg
   xmlns:dc="http://purl.org/dc/elements/1.1/"
   xmlns:cc="http://creativecommons.org/ns#"
   xmlns:rdf="http://www.w3.org/1999/02/22-rdf-syntax-ns#"
   xmlns:svg="http://www.w3.org/2000/svg"
   xmlns="http://www.w3.org/2000/svg"
   xmlns:sodipodi="http://sodipodi.sourceforge.net/DTD/sodipodi-0.dtd"
   xmlns:inkscape="http://www.inkscape.org/namespaces/inkscape"
   inkscape:version="1.0 (4035a4fb49, 2020-05-01)"
   sodipodi:docname="herodesktop.svg"
   id="svg289"
   version="1.1"
   fill="none"
   viewBox="0 0 580.34302 473.56201"
   height="473.56201"
   width="580.34302">
  <metadata
     id="metadata293">
    <rdf:RDF>
      <cc:Work
         rdf:about="">
        <dc:format>image/svg+xml</dc:format>
        <dc:type
           rdf:resource="http://purl.org/dc/dcmitype/StillImage" />
      </cc:Work>
    </rdf:RDF>
  </metadata>
  <sodipodi:namedview
     inkscape:current-layer="svg289"
     inkscape:window-maximized="0"
     inkscape:window-y="0"
     inkscape:window-x="0"
     inkscape:cy="235.69257"
     inkscape:cx="144.19912"
     inkscape:zoom="0.5958042"
     showgrid="false"
     id="namedview291"
     inkscape:window-height="480"
     inkscape:window-width="722"
     inkscape:pageshadow="2"
     inkscape:pageopacity="0"
     guidetolerance="10"
     gridtolerance="10"
     objecttolerance="10"
     borderopacity="1"
     bordercolor="#666666"
     pagecolor="#ffffff" />
  <path
     id="path198"
     fill="#ced6ff"
     d="m 95.722121,14.783897 c 66.126999,-40.612 143.922999,13.068 218.556999,34.238 58.668,16.642 117.936,26.619 158.009,72.576003 56.289,64.554 133.782,144.355 99.69,222.961 -34.009,78.416 -147.8,57.703 -230.605,78.891 -77.098,19.727 -153.605,74.802 -223.815,37.386 C 40.672121,419.8629 4.6981214,328.7909 0.43712144,241.7629 -3.7828786,155.5519 22.151121,59.965897 95.722121,14.783897 Z"
     clip-rule="evenodd"
     fill-rule="evenodd" />
  <g
     transform="translate(-123.89488,-126.8331)"
     id="g282"
     clip-path="url(#clip0)">
    <path
       id="path200"
       fill="#2f2e41"
       d="m 274.115,244.547 c 7.982,0 14.454,-6.467 14.454,-14.446 0,-7.978 -6.472,-14.445 -14.454,-14.445 -7.983,0 -14.455,6.467 -14.455,14.445 0,7.979 6.472,14.446 14.455,14.446 z" />
    <path
       id="path202"
       fill="#2f2e41"
       d="m 230.091,404.016 8.88,-30.779 3.023,0.944 c 0,0 -3.59,23.037 -9.258,28.891 z" />
    <path
       id="path204"
       fill="#ffb9b9"
       d="m 263.912,238.788 c 0,0 1.133,12.085 -1.512,15.484 -2.645,3.399 1.7,10.008 1.7,10.008 l 7.936,9.442 11.715,-5.288 1.7,-9.819 -1.133,-6.798 c 0,0 -3.968,-3.965 -2.268,-11.141 1.701,-7.176 -18.138,-1.888 -18.138,-1.888 z" />
    <path
       id="path206"
       fill="#000000"
       d="m 263.912,238.788 c 0,0 1.133,12.085 -1.512,15.484 -2.645,3.399 1.7,10.008 1.7,10.008 l 7.936,9.442 11.715,-5.288 1.7,-9.819 -1.133,-6.798 c 0,0 -3.968,-3.965 -2.268,-11.141 1.701,-7.176 -18.138,-1.888 -18.138,-1.888 z"
       opacity="0.1" />
    <path
       id="path208"
       fill="#ffb9b9"
       d="m 270.714,464.821 v 7.741 l 10.391,2.078 -0.944,-12.841 z" />
    <path
       id="path210"
       fill="#ffb9b9"
       d="m 301.89,461.799 -2.268,10.763 4.535,3.21 7.936,-5.853 -0.945,-9.253 z" />
    <path
       id="path212"
       fill="#2f2e41"
       d="m 282.05,473.696 c 0,0 -3.968,-6.703 -11.336,-2.502 0,0 -1.323,7.411 -2.646,7.978 -1.322,0.566 -8.691,11.33 0,12.274 8.692,0.944 13.038,-1.888 13.038,-1.888 0,0 -1.701,1.462 0.944,0.706 2.645,-0.755 1.512,-4.909 1.512,-4.909 z" />
    <path
       id="path214"
       fill="#2f2e41"
       d="m 307.936,469.164 c 0,0 -5.858,4.154 -6.802,2.266 -0.945,-1.889 -2.457,-1.7 -2.457,-1.7 0,0 -5.29,19.932 -1.889,20.876 2.19,0.539 4.49,0.42 6.613,-0.342 0,0 4.535,-3.173 4.535,-0.719 0,2.455 12.659,2.278 17.949,2.09 5.291,-0.189 2.457,-4.155 2.457,-4.155 l -6.991,-6.798 -7.936,-11.518 c 0,0 -3.59,-3.211 -5.479,0 z" />
    <path
       id="path216"
       fill="#2f2e41"
       d="m 252.197,342.834 7.936,76.1 c 0,0 4.345,46.453 5.101,47.208 0.756,0.756 5.669,3.21 16.438,0 l -2.456,-60.804 4.535,-37.766 10.392,26.058 c 0,0 2.456,70.057 4.156,70.057 1.701,0 12.093,3.399 14.549,-0.755 2.456,-4.154 2.079,-48.908 2.079,-48.908 0,0 -1.134,-70.623 -9.448,-72.889 -8.313,-2.266 -53.282,1.699 -53.282,1.699 z" />
    <path
       id="path218"
       fill="#ffb9b9"
       d="m 274.115,245.775 c 7.2,0 13.037,-5.834 13.037,-13.03 0,-7.196 -5.837,-13.029 -13.037,-13.029 -7.201,0 -13.038,5.833 -13.038,13.029 0,7.196 5.837,13.03 13.038,13.03 z" />
    <path
       id="path220"
       fill="#575a89"
       d="m 274.87,269.001 c 0,0 -1.322,-8.12 -1.322,-9.63 0,-1.511 -5.858,-2.455 -5.858,-2.455 0,0 -4.534,-5.099 -5.479,-4.343 -0.945,0.755 -15.304,10.385 -17.572,11.707 -2.267,1.322 -4.723,6.987 -4.534,7.365 0.189,0.377 11.903,24.926 11.903,24.926 0,0 5.102,15.106 1.512,23.037 -3.59,7.931 -8.125,23.604 -1.512,26.814 6.613,3.211 38.734,10.197 44.591,4.155 5.857,-6.043 10.014,-7.742 11.526,-7.742 1.511,0 -6.236,-26.248 -4.535,-28.703 1.7,-2.455 -0.756,-17.75 -0.756,-17.75 l 8.692,-24.36 c 0,0 -0.756,-13.596 -17.95,-16.617 l -10.286,-4.984 z" />
    <path
       id="path222"
       fill="#ffb9b9"
       d="m 239.538,346.233 c 0,0 -0.945,9.064 -0.945,11.708 0,2.644 -4.535,18.128 2.078,20.016 6.613,1.889 6.047,-20.582 6.047,-20.582 v -11.519 z" />
    <path
       id="path224"
       fill="#ffb9b9"
       d="m 317.95,337.736 c 0,0 1.133,8.686 0.567,10.575 -0.567,1.888 5.479,18.316 -2.646,19.261 -8.124,0.944 -6.046,-19.639 -6.046,-19.639 v -10.197 z" />
    <path
       id="path226"
       fill="#2f2e41"
       d="m 237.837,400.995 5.48,-29.08 h 1.7 c 1.189,1.532 1.969,3.34 2.266,5.256 0.298,1.916 0.103,3.876 -0.565,5.696 -2.268,6.42 -4.157,18.128 -4.157,18.128 z" />
    <path
       id="path228"
       fill="#575a89"
       d="m 242.939,269.379 -2.834,2.266 c 0,0 -3.779,60.048 -2.835,64.58 0.945,4.532 -3.401,10.953 0.378,11.519 3.779,0.567 8.314,3.021 10.392,1.511 2.079,-1.511 2.457,-6.987 3.212,-8.309 0.756,-1.322 2.079,-16.995 2.079,-16.995 0,0 3.967,-15.673 1.511,-27.38 -2.456,-11.708 -4.723,-23.605 -4.723,-23.605 z" />
    <path
       id="path230"
       fill="#575a89"
       d="m 302.834,264.658 8.692,7.364 6.613,38.522 c 0,0 4.156,30.024 0.944,30.402 -3.212,0.378 -8.124,-0.566 -10.203,0 -2.078,0.567 -3.779,-0.944 -3.779,-0.944 0,0 -2.267,-12.085 -2.267,-12.274 0,-0.189 -1.511,-13.974 -1.511,-13.974 l -1.89,-15.484 2.834,-16.995 z" />
    <path
       id="path232"
       fill="#3f3d56"
       d="m 261.833,442.916 c 0,0 -1.228,3.525 -2.921,8.325 -0.786,2.232 -1.672,4.742 -2.585,7.301 -0.587,1.654 -1.184,3.329 -1.772,4.964 -0.937,2.615 -1.848,5.127 -2.643,7.283 -1.051,2.846 -1.903,5.076 -2.36,6.117 -2.079,4.72 -40.056,-2.833 -43.08,-4.721 -3.023,-1.888 -3.778,-8.309 -4.156,-17.373 -0.002,-0.047 -0.004,-0.094 -0.004,-0.141 -0.049,-1.83 0.417,-4.555 1.198,-7.752 0.389,-1.597 0.858,-3.312 1.379,-5.093 0.699,-2.389 1.493,-4.892 2.322,-7.385 3.564,-10.707 7.764,-21.172 7.764,-21.172 0,0 7.369,-5.098 10.014,-8.497 2.645,-3.399 17.194,-6.043 17.194,-6.043 4.157,0.189 13.604,16.24 17.383,21.149 3.779,4.91 2.267,23.038 2.267,23.038 z" />
    <path
       id="path234"
       fill="#2f2e41"
       d="m 240.671,414.213 c 0.94,0 1.701,-0.761 1.701,-1.699 0,-0.939 -0.761,-1.7 -1.701,-1.7 -0.939,0 -1.7,0.761 -1.7,1.7 0,0.938 0.761,1.699 1.7,1.699 z" />
    <path
       id="path236"
       fill="#2f2e41"
       d="m 243.317,415.346 c 0.521,0 0.944,-0.422 0.944,-0.944 0,-0.521 -0.423,-0.944 -0.944,-0.944 -0.522,0 -0.945,0.423 -0.945,0.944 0,0.522 0.423,0.944 0.945,0.944 z" />
    <path
       id="path238"
       fill="#f2f2f2"
       d="m 258.912,451.241 c -0.786,2.232 -1.672,4.742 -2.585,7.301 l -51.438,-16.716 c 0.699,-2.389 1.493,-4.892 2.322,-7.385 z" />
    <path
       id="path240"
       fill="#f2f2f2"
       d="m 254.555,463.506 c -0.937,2.615 -1.848,5.127 -2.643,7.283 l -49.6,-16.118 c -0.049,-1.83 0.417,-4.555 1.198,-7.752 z" />
    <path
       id="path242"
       stroke-miterlimit="10"
       stroke-width="2.28425"
       stroke="#2f2e41"
       d="m 240.671,412.891 c 0,0 3.779,16.618 1.512,31.347 -2.267,14.729 5.668,28.513 5.668,28.513" />
    <path
       id="path244"
       stroke-miterlimit="10"
       stroke-width="2.28425"
       stroke="#2f2e41"
       d="m 243.317,414.213 c 0,0 -7.369,26.815 -7.558,30.591 -0.189,3.777 -3.212,30.78 -6.991,33.612" />
    <path
       id="path246"
       fill="#2f2e41"
       d="m 264.106,224.794 c 0,0 -2.951,-7.668 1.328,-10.175 l 1.18,3.392 c 0,0 10.771,-6.489 13.575,-5.014 l -2.656,3.539 c 0,0 12.542,0 13.427,4.867 l -4.426,0.147 c 0,0 4.721,3.097 4.869,8.111 l -9.443,0.59 4.574,2.654 c 0,0 -17.116,2.359 -21.248,-4.424 z" />
    <path
       id="path248"
       fill="#2f2e41"
       d="m 261.55,225.097 c 0,0 3.401,6.798 7.935,5.099 4.535,-1.7 0,-7.931 0,-7.931 l -3.023,-1.511 z" />
    <path
       id="path250"
       fill="#f2f2f2"
       d="m 554.825,332.342 -61.67,-77.019 c -2.8,2.559 -6.25,4.301 -9.973,5.033 -11.611,2.285 -22.949,-5.638 -25.325,-17.698 -0.819,-3.988 -0.533,-8.124 0.828,-11.962 1.36,-3.837 3.744,-7.231 6.893,-9.813 L 444.55,194.621 324.753,296.946 435.028,434.667 Z" />
    <path
       id="path252"
       fill="#f2f2f2"
       d="m 478.198,256.697 c 9.602,0 17.386,-7.779 17.386,-17.376 0,-9.596 -7.784,-17.375 -17.386,-17.375 -9.602,0 -17.386,7.779 -17.386,17.375 0,9.597 7.784,17.376 17.386,17.376 z" />
    <path
       id="path254"
       fill="#6c63ff"
       d="m 369.412,316.744 -5.32,6.153 17.922,15.477 5.319,-6.153 z" />
    <path
       id="path256"
       fill="#6c63ff"
       d="m 484.62,426.776 -5.32,6.153 15.886,13.719 5.32,-6.153 z" />
    <path
       id="path258"
       fill="#3f3d56"
       d="m 513.323,380.949 v 0.477 c -0.01,1.198 -0.045,2.39 -0.103,3.578 -1.034,20.317 -9.804,39.47 -24.513,53.533 -14.708,14.063 -34.242,21.972 -54.597,22.105 -20.356,0.133 -39.991,-7.52 -54.883,-21.389 -14.892,-13.87 -23.912,-32.906 -25.212,-53.209 -0.108,-1.686 -0.162,-3.384 -0.162,-5.095 -0.029,-16.505 5.096,-32.607 14.661,-46.062 0.765,-1.084 1.56,-2.149 2.387,-3.193 0.569,-0.727 1.155,-1.437 1.746,-2.142 13.46,-15.936 32.634,-25.965 53.408,-27.935 20.774,-1.97 41.493,4.276 57.712,17.397 0.96,0.775 1.904,1.578 2.826,2.396 0.738,0.656 1.463,1.327 2.175,2.011 14.03,13.413 22.666,31.491 24.279,50.827 0.184,2.212 0.276,4.446 0.276,6.701 z" />
    <path
       id="path260"
       fill="#6c63ff"
       d="m 433.588,470.666 c -49.499,0 -89.77,-40.247 -89.77,-89.717 -0.029,-22.634 8.53,-44.437 23.953,-61.012 l 1.988,1.844 c -14.957,16.074 -23.258,37.218 -23.229,59.168 0,47.975 39.054,87.006 87.058,87.006 11.664,0.04 23.215,-2.283 33.956,-6.826 10.741,-4.544 20.451,-11.214 28.542,-19.61 l 1.948,1.887 c -8.344,8.657 -18.356,15.536 -29.432,20.221 -11.076,4.685 -22.987,7.079 -35.014,7.039 z" />
    <path
       id="path262"
       fill="#6c63ff"
       d="m 446.606,468.768 h -22.781 v 22.768 h 22.781 z" />
    <path
       id="path264"
       fill="#6c63ff"
       d="m 370.901,331.694 c 0.039,0.016 0.075,0.038 0.108,0.065 0.429,0.352 -0.108,1.03 -0.043,1.588 0.076,0.716 1.03,0.873 1.752,0.943 0.721,0.076 1.633,0.656 1.291,1.296 -1.812,0.623 -3.645,0.011 -5.495,-0.699 -9.565,13.454 -14.69,29.557 -14.661,46.062 0,1.713 0.054,3.411 0.162,5.095 0.152,0.111 0.318,0.2 0.494,0.266 0.542,0.206 1.172,0.168 1.671,0.461 0.396,0.233 0.661,0.645 1.057,0.862 1.134,0.618 2.707,-0.57 3.765,0.168 0.273,0.249 0.532,0.513 0.775,0.791 0.977,0.846 2.582,0.277 3.711,0.911 0.726,0.406 1.101,1.22 1.491,1.957 0.971,1.843 2.544,3.654 4.622,3.8 0.655,-0.03 1.311,-0.008 1.963,0.065 0.64,0.146 1.269,0.705 1.166,1.35 -0.179,1.111 0.369,2.325 0.223,3.437 -0.266,2.033 -3.146,2.922 -3.39,4.954 -10e-4,0.448 -0.027,0.895 -0.076,1.339 -0.131,0.532 -0.532,0.965 -0.673,1.497 -0.271,1.003 0.45,2.005 1.237,2.678 0.792,0.677 1.735,1.263 2.169,2.206 0.456,1.003 0.234,2.168 0.38,3.258 0.326,2.38 2.381,4.142 4.497,5.28 0.678,0.283 1.28,0.721 1.757,1.279 0.543,0.786 0.488,1.822 0.673,2.76 0.445,2.293 2.376,4.185 2.43,6.521 0.038,1.664 -0.884,3.171 -1.438,4.738 -0.569,1.642 -0.738,3.397 -0.493,5.117 3.093,2.622 6.38,5.005 9.834,7.129 0.188,-0.278 0.325,-0.586 0.407,-0.911 0.065,-0.359 0.02,-0.73 -0.13,-1.063 -0.15,-0.333 -0.398,-0.613 -0.711,-0.802 0.583,-0.22 1.113,-0.56 1.557,-0.997 0.218,-0.224 0.361,-0.509 0.412,-0.818 0.05,-0.308 0.005,-0.624 -0.13,-0.906 0.954,0.119 2.088,0.179 2.717,-0.553 0.505,-0.585 0.472,-1.464 0.271,-2.206 -0.275,-0.722 -0.457,-1.476 -0.542,-2.245 2.212,0.108 4.429,0.034 6.628,-0.222 -0.318,-1.072 -1.042,-1.978 -2.017,-2.526 0.998,-0.168 1.903,-1.361 2.218,-2.32 0.272,-0.979 0.287,-2.012 0.043,-2.998 -0.075,-0.253 -0.086,-0.522 -0.032,-0.781 0.16,-0.343 0.442,-0.616 0.792,-0.764 1.649,-0.949 3.298,-1.895 4.947,-2.841 0.294,-0.148 0.562,-0.344 0.792,-0.58 0.515,-0.612 0.439,-1.528 0.173,-2.282 -0.266,-0.753 -0.689,-1.463 -0.792,-2.255 -0.303,-2.369 2.235,-4.071 3.092,-6.304 0.291,-0.892 0.449,-1.822 0.467,-2.76 0.07,-1.008 0.075,-2.174 -0.695,-2.819 -0.743,-0.623 -1.898,-0.482 -2.674,-1.062 -0.71,-0.531 -0.955,-1.556 -1.73,-1.984 -0.705,-0.391 -1.584,-0.141 -2.371,-0.325 -1.377,-0.32 -2.245,-1.909 -3.655,-2.055 -0.792,-0.087 -1.693,0.304 -2.344,-0.157 -0.575,-0.412 -0.596,-1.231 -0.705,-1.925 -0.192,-1.08 -0.712,-2.076 -1.487,-2.854 -0.776,-0.777 -1.771,-1.298 -2.852,-1.493 -0.819,-0.13 -1.709,-0.082 -2.409,-0.532 -0.705,-0.455 -1.025,-1.306 -1.583,-1.94 -0.89,-1.014 -2.3,-1.377 -3.618,-1.686 -1.79,-0.418 -3.578,-0.837 -5.365,-1.258 -0.949,-0.228 -2.175,-0.347 -2.69,0.488 -0.153,0.317 -0.259,0.655 -0.315,1.003 -0.194,0.626 -0.58,1.174 -1.104,1.567 -0.524,0.394 -1.159,0.611 -1.814,0.623 -0.449,-0.765 -1.175,-1.329 -2.029,-1.572 -0.557,-0.094 -1.108,-0.224 -1.649,-0.39 -0.282,-0.139 -0.533,-0.333 -0.737,-0.571 -0.205,-0.239 -0.359,-0.517 -0.452,-0.816 -0.093,-0.3 -0.125,-0.616 -0.092,-0.929 0.033,-0.312 0.129,-0.614 0.283,-0.888 0.308,-0.55 0.426,-1.186 0.337,-1.81 -0.089,-0.624 -0.381,-1.201 -0.83,-1.643 -0.912,-0.819 -2.23,-1.019 -3.455,-0.938 -0.321,-0.699 0.216,-1.486 0.791,-1.995 0.581,-0.504 1.281,-1.003 1.405,-1.762 0.201,-1.192 -1.323,-2.098 -2.479,-1.745 -1.155,0.357 -1.893,1.479 -2.381,2.585 -0.237,0.653 -0.559,1.271 -0.96,1.838 -0.205,0.281 -0.484,0.499 -0.806,0.631 -0.321,0.132 -0.673,0.173 -1.016,0.117 -0.955,-0.244 -1.318,-1.377 -1.53,-2.331 -0.339,-1.275 -0.51,-2.589 -0.51,-3.908 0.008,-1.333 0.538,-2.609 1.476,-3.557 1.578,-1.452 4.008,-1.311 6.14,-1.078 -0.229,-0.305 -0.338,-0.682 -0.308,-1.061 0.03,-0.379 0.197,-0.735 0.47,-0.999 0.286,-0.253 0.629,-0.433 0.999,-0.524 0.371,-0.091 0.758,-0.089 1.128,0.003 0.642,0.133 1.221,0.479 1.643,0.982 0.608,0.737 0.781,1.74 1.237,2.574 0.461,0.841 1.492,1.556 2.332,1.106 0.733,-0.39 0.847,-1.398 0.668,-2.206 -0.185,-0.802 -0.57,-1.588 -0.505,-2.412 0.125,-1.567 1.758,-2.516 3.195,-3.161 1.437,-0.645 3.081,-1.518 3.309,-3.079 0.01,-0.304 0.069,-0.604 0.173,-0.889 0.159,-0.255 0.382,-0.464 0.646,-0.607 4.193,-2.77 8.461,-5.578 13.256,-7.091 0.25,-0.081 0.277,0.006 0.532,-0.054 0.358,-0.206 0.119,-0.775 -0.222,-1.003 -0.342,-0.227 -0.798,-0.406 -0.885,-0.808 -0.059,-0.292 0.114,-0.585 0.158,-0.883 0.011,-0.18 -0.022,-0.36 -0.096,-0.525 -0.075,-0.164 -0.189,-0.308 -0.332,-0.418 -0.143,-0.11 -0.31,-0.184 -0.488,-0.214 -0.178,-0.03 -0.361,-0.016 -0.532,0.04 -0.386,-0.509 0.374,-1.1 0.992,-1.274 1.852,-0.507 3.752,-0.816 5.668,-0.921 0.222,-0.037 0.449,10e-4 0.646,0.108 0.141,0.136 0.224,0.321 0.233,0.516 0.01,0.196 -0.057,0.387 -0.184,0.536 -0.261,0.289 -0.55,0.553 -0.863,0.786 -0.311,0.302 -0.533,0.684 -0.642,1.103 -0.109,0.42 -0.101,0.861 0.024,1.277 1.003,0.509 2.088,1.035 3.2,0.856 1.107,-0.179 2.088,-1.426 1.568,-2.418 -0.483,-0.927 -1.942,-1.138 -2.192,-2.152 -0.292,-1.187 1.389,-2.244 1.009,-3.404 -0.162,-0.51 -0.672,-0.813 -1.063,-1.176 -0.459,-0.453 -0.772,-1.033 -0.897,-1.665 -0.125,-0.633 -0.056,-1.288 0.197,-1.881 -0.635,0.111 -1.287,0.069 -1.902,-0.124 -0.615,-0.192 -1.176,-0.529 -1.634,-0.982 -0.846,-0.851 -1.519,-2.201 -2.723,-2.157 -1.101,0.032 -2.05,1.317 -3.081,0.927 -0.255,-0.098 -0.521,-0.293 -0.765,-0.179 -0.08,0.052 -0.148,0.121 -0.198,0.203 -0.05,0.081 -0.08,0.173 -0.089,0.269 -0.261,1.252 0.19,2.677 -0.494,3.762 -0.743,1.176 -2.462,1.339 -3.363,2.401 -0.488,0.575 -0.678,1.35 -1.128,1.957 -0.45,0.607 -1.4,0.998 -1.942,0.466 0.266,-0.544 0.338,-1.162 0.206,-1.753 -0.132,-0.591 -0.461,-1.12 -0.933,-1.499 -0.499,-0.328 -1.039,-0.59 -1.605,-0.781 -0.633,-0.267 -1.235,-0.601 -1.796,-0.997 -0.279,-0.17 -0.506,-0.414 -0.656,-0.705 -0.119,-0.366 -0.103,-0.761 0.043,-1.117 0.275,-0.783 0.758,-1.476 1.397,-2.005 0.64,-0.529 1.411,-0.874 2.232,-0.998 0.716,-0.098 1.551,-0.065 2.029,-0.613 0.249,-0.287 0.379,-0.726 0.748,-0.84 0.233,-0.048 0.474,-0.02 0.689,0.082 0.895,0.314 1.785,0.628 2.68,0.943 0.298,0.137 0.628,0.191 0.954,0.157 0.162,-0.021 0.31,-0.103 0.414,-0.228 0.104,-0.126 0.155,-0.287 0.145,-0.45 -0.087,-0.444 -0.77,-0.656 -0.705,-1.106 0.031,-0.147 0.109,-0.28 0.222,-0.379 0.968,-1.028 2.151,-1.83 3.464,-2.349 1.314,-0.518 2.726,-0.74 4.136,-0.649 0.336,0.559 -0.196,1.215 -0.646,1.686 -0.445,0.477 -0.803,1.323 -0.26,1.686 0.218,0.115 0.463,0.171 0.71,0.163 0.66,0.088 1.301,0.282 1.899,0.574 0.927,0.401 1.839,0.846 2.728,1.323 -0.131,-0.581 -0.108,-1.186 0.065,-1.756 0.098,-0.28 0.297,-0.513 0.558,-0.655 0.26,-0.141 0.564,-0.18 0.852,-0.11 0.532,0.206 0.803,0.911 1.373,0.976 0.754,0.087 1.052,-1.03 0.737,-1.724 -0.314,-0.694 -0.943,-1.268 -0.992,-2.033 -0.038,-0.509 0.157,-1.143 -0.25,-1.452 -0.144,-0.096 -0.31,-0.156 -0.482,-0.174 -3.407,-0.623 -6.815,-1.249 -10.225,-1.876 -0.608,-0.113 -1.481,-0.027 -1.508,0.586 -0.016,0.347 0.293,0.688 0.157,1.003 -0.146,0.336 -0.623,0.309 -0.971,0.428 -0.26,0.118 -0.476,0.318 -0.613,0.57 -0.137,0.251 -0.188,0.54 -0.146,0.823 0.093,0.564 0.312,1.099 0.64,1.567 -0.667,-0.277 -1.671,-0.325 -2.338,-0.607 -0.097,-0.772 -0.294,-1.529 -0.586,-2.25 -0.016,-0.115 -0.058,-0.225 -0.122,-0.322 -0.063,-0.097 -0.147,-0.178 -0.246,-0.239 -0.099,-0.061 -0.21,-0.1 -0.325,-0.114 -0.115,-0.013 -0.232,-0.001 -0.343,0.035 -0.878,0.136 -1.757,0.266 -2.636,0.401 -0.22,0.011 -0.432,0.093 -0.602,0.234 -0.341,0.363 -0.005,0.943 -0.016,1.442 -0.032,0.278 -0.15,0.54 -0.337,0.749 -0.188,0.209 -0.436,0.354 -0.71,0.416 -0.552,0.112 -1.122,0.105 -1.671,-0.022 -1.231,-0.189 -2.457,-0.379 -3.688,-0.569 1.087,-0.346 2.053,-0.992 2.788,-1.865 0.488,-0.574 0.749,-1.648 0.043,-1.919 -0.208,-0.057 -0.425,-0.073 -0.64,-0.048 -1.67,0.01 -2.988,-1.383 -4.551,-1.974 -0.491,-0.183 -1.01,-0.278 -1.535,-0.282 z" />
    <path
       id="path266"
       fill="#6c63ff"
       d="m 513.22,385.003 c -0.191,0.257 -0.442,0.463 -0.732,0.6 -0.289,0.137 -0.608,0.201 -0.927,0.186 -1.698,-0.146 -2.414,-2.591 -4.096,-2.867 -0.148,-0.038 -0.306,-0.023 -0.444,0.043 -0.25,0.136 -0.293,0.472 -0.31,0.754 -0.07,1.398 -0.13,2.851 0.418,4.141 0.797,1.887 2.864,3.47 2.43,5.47 -2.332,-1.079 -3.547,-3.697 -4.095,-6.207 -0.553,-2.51 -0.64,-5.144 -1.627,-7.519 -0.754,0.96 -2.327,0.168 -3.011,-0.84 -0.651,-0.954 -1.052,-2.06 -1.681,-3.03 -0.63,-0.965 -1.595,-1.833 -2.745,-1.887 -1.21,-0.054 -2.262,0.775 -3.184,1.561 -0.802,0.592 -1.476,1.341 -1.98,2.201 -0.645,1.301 -0.477,2.83 -0.51,4.277 -0.032,1.562 -0.363,3.215 -1.432,4.364 -1.068,1.144 -3.037,1.545 -4.214,0.51 -0.569,-0.593 -0.975,-1.323 -1.177,-2.12 -1.28,-3.727 -2.345,-7.524 -3.19,-11.373 -0.195,0.878 -0.971,2.011 -1.708,1.496 -0.165,-0.14 -0.298,-0.314 -0.391,-0.509 -1.378,-2.326 -3.922,-3.725 -6.498,-4.565 -2.571,-0.835 -5.278,-1.225 -7.822,-2.147 -1.426,-0.517 -2.789,-1.196 -4.062,-2.022 -0.324,0.477 -0.513,1.031 -0.547,1.605 -0.034,0.575 0.087,1.148 0.351,1.659 0.286,0.5 0.729,0.892 1.261,1.114 0.532,0.223 1.122,0.264 1.679,0.116 0.564,-0.184 1.042,-0.574 1.6,-0.769 0.559,-0.19 1.313,-0.098 1.557,0.444 0.239,0.515 -0.119,1.139 0.06,1.681 0.266,0.818 1.508,0.883 1.942,1.631 0.127,0.297 0.156,0.626 0.083,0.94 -0.073,0.314 -0.245,0.597 -0.49,0.806 -0.499,0.407 -1.05,0.746 -1.638,1.008 -1.823,1.014 -3.119,2.743 -4.714,4.088 -1.595,1.349 -3.846,2.331 -5.744,1.469 0.45,-2.293 -2.278,-3.974 -2.783,-6.256 -0.168,-0.754 -0.081,-1.55 -0.314,-2.282 -0.342,-1.063 -1.286,-1.789 -2.056,-2.591 -0.936,-0.985 -1.665,-2.147 -2.145,-3.418 -0.479,-1.271 -0.7,-2.625 -0.649,-3.982 0.044,-0.943 0.217,-1.903 0,-2.824 -0.211,-0.917 -0.976,-1.806 -1.92,-1.768 -2.153,0.098 -4.871,0.261 -5.999,-1.577 -0.407,-0.656 -0.58,-1.616 0.006,-2.12 0.229,-0.145 0.484,-0.243 0.751,-0.289 0.268,-0.045 0.541,-0.037 0.805,0.024 1.622,0.157 3.239,0.319 4.86,0.477 1.134,0.108 2.36,0.2 3.336,-0.391 0.977,-0.591 1.4,-2.168 0.494,-2.867 -0.656,-0.51 -1.839,-0.483 -2.034,-1.291 -0.158,-0.677 0.591,-1.442 0.184,-2.011 -0.287,-0.401 -0.938,-0.292 -1.334,0.011 -0.346,0.359 -0.721,0.687 -1.123,0.981 -0.776,0.401 -1.698,0.017 -2.533,-0.244 -0.835,-0.26 -1.953,-0.282 -2.354,0.494 -0.456,0.862 0.396,2 -0.049,2.867 -0.597,1.144 -2.604,0.494 -3.439,1.48 -0.955,1.128 0.651,2.819 0.331,4.261 -0.412,0.204 -0.87,0.298 -1.329,0.273 -0.459,-0.026 -0.904,-0.17 -1.291,-0.419 -0.379,-0.258 -0.682,-0.614 -0.875,-1.031 -0.193,-0.416 -0.269,-0.877 -0.221,-1.333 0.076,-0.65 0.418,-1.317 0.19,-1.93 -0.245,-0.473 -0.651,-0.843 -1.144,-1.046 -1.573,-0.873 -3.146,-1.742 -4.719,-2.607 -0.44,0.813 0.114,1.816 0.808,2.428 0.689,0.607 1.557,1.068 2.012,1.87 0.289,0.557 0.354,1.202 0.183,1.804 -0.172,0.603 -0.567,1.117 -1.105,1.438 -0.068,0.047 -0.145,0.079 -0.227,0.093 -0.081,0.014 -0.165,0.01 -0.245,-0.011 -0.075,-0.045 -0.14,-0.103 -0.193,-0.173 -0.052,-0.07 -0.089,-0.149 -0.11,-0.234 -0.83,-2.13 -2.083,-4.228 -4.079,-5.34 -2.002,-1.116 -4.871,-0.883 -6.184,0.987 -0.309,0.444 -0.521,0.954 -0.792,1.426 -1.437,2.499 -4.529,3.68 -7.415,3.605 -0.282,0.018 -0.563,-0.048 -0.808,-0.19 -0.466,-0.32 -0.445,-1.003 -0.374,-1.567 0.103,-0.797 0.2,-1.588 0.304,-2.385 0.002,-0.487 0.19,-0.954 0.526,-1.307 0.537,-0.422 1.307,-0.157 1.99,-0.168 0.516,-0.023 1.012,-0.204 1.421,-0.519 0.409,-0.316 0.71,-0.749 0.863,-1.242 0.137,-0.498 0.136,-1.023 -0.003,-1.52 -0.14,-0.497 -0.413,-0.946 -0.789,-1.299 -0.309,-0.293 -0.727,-0.662 -0.564,-1.057 0.066,-0.109 0.155,-0.203 0.261,-0.274 0.106,-0.071 0.226,-0.118 0.352,-0.138 1.22,-0.353 2.517,-0.445 3.715,-0.868 1.205,-0.417 2.371,-1.274 2.658,-2.515 0.087,-0.38 0.125,-0.84 0.467,-1.03 0.172,-0.069 0.356,-0.106 0.542,-0.108 0.652,-0.094 1.246,-0.428 1.664,-0.936 0.419,-0.509 0.632,-1.155 0.598,-1.813 0.575,-0.401 1.383,-0.103 1.942,0.325 0.553,0.429 1.047,0.992 1.725,1.177 1.264,0.347 2.484,-0.775 3.797,-0.781 0.553,0 1.122,0.195 1.638,0.006 0.526,-0.19 0.841,-0.711 1.242,-1.095 0.407,-0.391 1.112,-0.624 1.486,-0.206 -0.108,-0.787 -0.211,-1.567 -0.32,-2.348 0.639,0.161 1.305,0.183 1.954,0.066 0.648,-0.118 1.264,-0.373 1.805,-0.749 -1.367,-0.461 -2.728,-0.921 -4.095,-1.382 -0.144,-0.036 -0.276,-0.106 -0.385,-0.206 -0.299,-0.32 0,-0.819 0.238,-1.182 0.581,-0.873 0.678,-2.309 -0.276,-2.743 -0.651,-0.298 -1.394,0.06 -2.018,0.407 -0.998,0.553 -1.996,1.111 -2.994,1.664 -0.092,0.569 0.602,0.894 1.03,1.274 0.262,0.231 0.446,0.536 0.531,0.875 0.084,0.338 0.064,0.695 -0.058,1.021 -0.123,0.327 -0.341,0.609 -0.626,0.81 -0.286,0.2 -0.626,0.309 -0.975,0.313 0.197,0.257 0.333,0.554 0.4,0.87 0.067,0.316 0.062,0.643 -0.015,0.957 -0.667,0.049 -1.339,0.098 -2.012,0.147 -0.112,0.022 -0.227,0.022 -0.339,-10e-4 -0.111,-0.022 -0.217,-0.066 -0.312,-0.13 -0.217,-0.189 -0.184,-0.525 -0.239,-0.807 -0.089,-0.337 -0.277,-0.64 -0.54,-0.869 -0.263,-0.229 -0.589,-0.374 -0.935,-0.416 -0.691,-0.078 -1.391,-0.013 -2.056,0.19 -0.289,0.101 -0.605,0.094 -0.889,-0.022 -0.161,-0.107 -0.283,-0.263 -0.348,-0.445 -0.118,-0.371 -0.138,-0.767 -0.058,-1.149 0.08,-0.382 0.257,-0.736 0.514,-1.03 0.521,-0.578 1.095,-1.106 1.714,-1.577 1.404,-1.228 2.435,-2.824 2.978,-4.608 1.107,-0.466 2.251,-1.095 3.363,-1.561 0.894,-0.414 1.831,-0.729 2.793,-0.938 0.907,-0.138 1.825,-0.182 2.74,-0.13 1.247,0.021 2.5,0.043 3.748,0.07 1.113,-0.047 2.226,0.113 3.281,0.472 1.026,0.423 1.931,1.339 2.002,2.445 0.021,0.126 0.01,0.255 -0.033,0.376 -0.042,0.12 -0.115,0.228 -0.211,0.312 -0.144,0.08 -0.308,0.117 -0.472,0.109 -1.036,0.032 -1.475,0.292 -2.511,0.33 0.656,0.7 1.394,1.437 2.348,1.561 1.682,0.217 2.891,-1.523 3.667,-3.035 0.028,0.385 0.205,0.744 0.494,1 0.288,0.256 0.666,0.389 1.052,0.371 0.415,-0.071 0.812,-0.226 1.166,-0.455 3.336,-1.822 7.074,-2.787 10.876,-2.808 -0.038,-0.288 0.033,-0.579 0.198,-0.818 0.166,-0.238 0.414,-0.406 0.697,-0.472 0.775,-0.152 1.469,0.515 1.844,1.208 0.369,0.694 0.602,1.497 1.198,2.017 0.592,0.521 1.736,0.493 1.969,-0.255 0.228,-0.721 -0.526,-1.339 -1.149,-1.767 -0.63,-0.423 -1.286,-1.209 -0.863,-1.838 3.19,-0.71 6.406,-1.415 9.677,-1.555 0.556,0.016 1.109,-0.08 1.627,-0.282 0.256,-0.109 0.47,-0.299 0.607,-0.541 0.137,-0.242 0.191,-0.523 0.152,-0.798 -0.713,0.166 -1.46,0.117 -2.146,-0.142 -0.686,-0.258 -1.279,-0.715 -1.705,-1.311 3.358,-0.277 6.873,-0.521 10.1,0.233 l 2.826,2.396 c -0.537,0.558 -1.253,1.084 -0.862,1.643 0.129,0.128 0.285,0.225 0.457,0.284 0.172,0.059 0.355,0.079 0.535,0.057 0.684,0.011 1.367,0.027 2.045,0.027 14.03,13.412 22.666,31.491 24.279,50.827 -1.139,-0.043 -2.186,1.399 -2.04,2.656 0.174,1.459 1.226,2.63 1.98,3.887 0.125,0.205 0.237,0.417 0.336,0.635 z" />
    <path
       id="path268"
       stroke-miterlimit="10"
       stroke-width="1.52283"
       stroke="#3f3d56"
       d="M 192.965,491.47 H 607.053" />
    <path
       id="path270"
       stroke-miterlimit="10"
       stroke-width="1.52283"
       stroke="#3f3d56"
       d="m 363.801,231.916 c 3.8,0 6.88,-3.079 6.88,-6.876 0,-3.798 -3.08,-6.877 -6.88,-6.877 -3.801,0 -6.881,3.079 -6.881,6.877 0,3.797 3.08,6.876 6.881,6.876 z" />
    <path
       id="path272"
       stroke-miterlimit="10"
       stroke-width="1.52283"
       stroke="#3f3d56"
       d="m 567.114,362.873 c 3.8,0 6.881,-3.079 6.881,-6.876 0,-3.798 -3.081,-6.877 -6.881,-6.877 -3.8,0 -6.881,3.079 -6.881,6.877 0,3.797 3.081,6.876 6.881,6.876 z" />
    <path
       id="path274"
       stroke-miterlimit="10"
       stroke-width="1.52283"
       stroke="#3f3d56"
       d="m 520.14,294.365 c 3.801,0 6.881,-3.078 6.881,-6.876 0,-3.798 -3.08,-6.877 -6.881,-6.877 -3.8,0 -6.88,3.079 -6.88,6.877 0,3.798 3.08,6.876 6.88,6.876 z" />
    <path
       id="path276"
       fill="#3f3d56"
       d="m 474.996,353.299 c 4.265,0 7.722,-3.456 7.722,-7.718 0,-4.262 -3.457,-7.717 -7.722,-7.717 -4.265,0 -7.722,3.455 -7.722,7.717 0,4.262 3.457,7.718 7.722,7.718 z" />
    <path
       id="path278"
       fill="#ffffff"
       d="m 499.8,330.949 c 5.621,0 10.178,-4.554 10.178,-10.172 0,-5.618 -4.557,-10.173 -10.178,-10.173 -5.622,0 -10.179,4.555 -10.179,10.173 0,5.618 4.557,10.172 10.179,10.172 z" />
    <path
       id="path280"
       fill="#f50057"
       d="m 510.094,310.231 c -2.732,-2.663 -6.411,-4.133 -10.227,-4.086 -3.817,0.047 -7.458,1.608 -10.123,4.338 -5.55,5.686 -13.473,34.399 -13.473,34.399 0,0 28.525,-8.628 34.075,-14.313 2.665,-2.731 4.135,-6.407 4.088,-10.221 -0.047,-3.814 -1.608,-7.453 -4.34,-10.117 z m -14.951,15.317 c -0.944,-0.921 -1.594,-2.1 -1.867,-3.39 -0.274,-1.29 -0.158,-2.631 0.331,-3.855 0.49,-1.224 1.332,-2.276 2.419,-3.021 1.088,-0.746 2.372,-1.153 3.691,-1.169 1.319,-0.017 2.613,0.358 3.719,1.077 1.105,0.719 1.973,1.749 2.493,2.96 0.52,1.212 0.668,2.55 0.427,3.846 -0.241,1.296 -0.862,2.491 -1.783,3.435 -1.235,1.265 -2.922,1.988 -4.691,2.01 -1.768,0.022 -3.473,-0.659 -4.739,-1.893 z" />
  </g>
  <defs
     id="defs287">
    <clipPath
       id="clip0">
      <rect
         y="0"
         x="0"
         id="rect284"
         transform="translate(192.965,194.621)"
         fill="#ffffff"
         height="297.315"
         width="414.08801" />
    </clipPath>
  </defs>
</svg>
