<?xml version="1.0" encoding="UTF-8" standalone="no"?>
<!-- Created with Inkscape (http://www.inkscape.org/) -->

<svg
   xmlns:dc="http://purl.org/dc/elements/1.1/"
   xmlns:cc="http://creativecommons.org/ns#"
   xmlns:rdf="http://www.w3.org/1999/02/22-rdf-syntax-ns#"
   xmlns:svg="http://www.w3.org/2000/svg"
   xmlns="http://www.w3.org/2000/svg"
   xmlns:sodipodi="http://sodipodi.sourceforge.net/DTD/sodipodi-0.dtd"
   xmlns:inkscape="http://www.inkscape.org/namespaces/inkscape"
   width="233.98515mm"
   height="92.026413mm"
   viewBox="0 0 233.98515 92.026413"
   version="1.1"
   id="svg8"
   inkscape:version="0.92.3 (2405546, 2018-03-11)"
   sodipodi:docname="mytinerary logo.svg">
  <defs
     id="defs2">
    <inkscape:path-effect
       effect="bspline"
       id="path-effect938"
       is_visible="true"
       weight="33.333333"
       steps="2"
       helper_size="0"
       apply_no_weight="true"
       apply_with_weight="true"
       only_selected="false" />
  </defs>
  <sodipodi:namedview
     id="base"
     pagecolor="#ffffff"
     bordercolor="#666666"
     borderopacity="1.0"
     inkscape:pageopacity="0.0"
     inkscape:pageshadow="2"
     inkscape:zoom="2.8284272"
     inkscape:cx="789.98186"
     inkscape:cy="141.07666"
     inkscape:document-units="mm"
     inkscape:current-layer="layer1"
     showgrid="false"
     inkscape:window-width="1920"
     inkscape:window-height="1015"
     inkscape:window-x="0"
     inkscape:window-y="32"
     inkscape:window-maximized="1" />
  <metadata
     id="metadata5">
    <rdf:RDF>
      <cc:Work
         rdf:about="">
        <dc:format>image/svg+xml</dc:format>
        <dc:type
           rdf:resource="http://purl.org/dc/dcmitype/StillImage" />
        <dc:title />
      </cc:Work>
    </rdf:RDF>
  </metadata>
  <g
     inkscape:label="Layer 1"
     inkscape:groupmode="layer"
     id="layer1"
     style="display:inline"
     transform="translate(-154.30721,34.978722)">
    <g
       id="g987">
      <g
         id="g917">
        <g
           id="g862"
           transform="translate(195.90856,-114.9259)">
          <path
             style="fill:#dc3c12;stroke-width:0.26458332"
             d="m 162.39747,171.71871 c -5.75687,-0.73523 -10.86911,-3.2701 -15.10218,-7.48831 -3.36371,-3.3519 -5.63743,-7.18493 -6.99218,-11.78739 -0.72871,-2.47564 -1.028,-9.006 -0.54149,-11.81518 0.66579,-3.84436 2.49745,-8.13314 4.78484,-11.20357 5.40348,-7.25323 13.46824,-11.14313 22.34892,-10.77961 5.13023,0.21 9.37505,1.57271 13.5927,4.36365 9.41827,6.23233 13.89941,17.96282 11.04328,28.90854 -2.83366,10.85962 -11.69622,18.57353 -22.78389,19.83095 -2.71635,0.30805 -3.7472,0.30333 -6.35,-0.0291 z m 22.74658,-15.13639 c 0.66125,-0.48352 0.35078,-1.19994 -0.60264,-1.39062 -0.41525,-0.083 -1.37239,-0.71859 -2.12697,-1.41232 -2.11062,-1.94039 -4.46927,-3.02331 -6.98804,-3.20839 -1.77497,-0.13043 -2.1722,-0.25092 -2.69856,-0.81858 -0.55397,-0.59742 -0.88508,-0.68196 -3.23097,-0.82488 -1.43757,-0.0876 -2.80944,-0.23432 -3.04861,-0.3261 -0.23917,-0.0918 -1.12938,-1.17243 -1.97824,-2.40145 -1.57485,-2.28014 -2.37917,-2.84751 -3.14072,-2.21548 -0.2199,0.18251 -0.48272,0.24895 -0.58403,0.14764 -0.35415,-0.35415 -0.40763,-3.84711 -0.0652,-4.2597 0.27249,-0.32833 1.35487,-0.39401 6.49341,-0.39401 7.90938,0 7.83516,0.0527 5.8075,-4.12103 -1.04448,-2.14995 -3.101,-4.36193 -4.90625,-5.27713 -2.55527,-1.29544 -4.05027,-1.55867 -8.85224,-1.55867 -4.88433,0 -6.4453,0.28504 -8.93255,1.6311 -2.44867,1.32518 -5.13576,4.93412 -5.62819,7.55903 -0.32937,1.75565 -0.28807,1.7667 6.60272,1.7667 4.41686,0 6.22121,0.0888 6.44989,0.3175 0.47729,0.47729 0.4495,13.26649 -0.0297,13.66419 -0.19095,0.15848 -1.53041,0.35609 -2.97656,0.43913 -3.95099,0.22688 -7.61531,0.67786 -7.98718,0.983 -0.38575,0.31654 -0.43974,1.16633 -0.0879,1.38377 0.13355,0.0825 2.1172,-0.0295 4.40812,-0.24898 2.33149,-0.22335 6.8549,-0.39943 10.27438,-0.39995 5.79453,-7.9e-4 17.38412,0.59065 20.52886,1.04778 2.21356,0.32177 2.76566,0.30796 3.29971,-0.0825 z m -14.26594,-2.58869 c -3.16486,-0.22648 -4.09147,-0.51957 -3.31906,-1.04985 0.24842,-0.17054 1.99029,-0.22549 4.70062,-0.14829 4.30163,0.12253 5.08675,0.29773 5.08675,1.13513 0,0.41753 -1.33275,0.43051 -6.46831,0.063 z m -10.14752,-0.5452 c -0.21491,-0.21491 -0.31633,-1.43319 -0.31389,-3.77031 0.004,-3.34728 0.14321,-4.6648 0.49027,-4.62349 0.27614,0.0329 4.39374,6.39877 4.48885,6.93988 0.0484,0.27516 -0.18074,0.78629 -0.50914,1.13585 -0.50437,0.53689 -0.84874,0.63557 -2.21783,0.63557 -0.90781,0 -1.76042,-0.13966 -1.93826,-0.3175 z m -9.19034,-15.57254 c -0.76508,-1.23793 3.74539,-7.71597 4.77655,-6.86019 0.25454,0.21125 0.29431,0.48347 0.13272,0.90848 -0.12689,0.33376 -0.43301,1.72352 -0.68025,3.08836 -0.24724,1.36483 -0.56826,2.63034 -0.71337,2.81224 -0.32396,0.40608 -3.2698,0.4489 -3.51565,0.0511 z m 11.86848,-0.0396 c -0.4608,-0.59899 -1.50922,-6.56473 -1.20682,-6.86712 0.73929,-0.73929 4.57943,4.39408 4.658,6.22666 l 0.0355,0.82736 -1.61167,0.0777 c -1.08569,0.0523 -1.69761,-0.034 -1.87498,-0.26458 z m -63.29074,33.51259 c -8.111213,-1.7597 -14.916831,-7.04033 -18.398355,-14.27569 -1.973935,-4.10226 -2.801078,-7.62832 -2.792971,-11.90625 0.02294,-12.10101 7.89787,-22.42739 19.711023,-25.847 1.848103,-0.53498 2.690153,-0.61133 6.742073,-0.61133 4.04715,0 4.89512,0.0767 6.73395,0.6091 9.71248,2.81209 16.54759,9.78844 19.10444,19.49923 0.70679,2.68437 0.69582,10.03286 -0.0192,12.83229 -0.57976,2.27 -1.95423,5.55381 -3.14707,7.51884 -3.83716,6.32116 -10.66379,10.98235 -18.02439,12.30697 -2.16598,0.38979 -7.86579,0.31723 -9.90954,-0.12616 z m -1.025576,-4.68454 c 0.235606,-0.1819 0.555765,-0.81876 0.711464,-1.41525 1.120972,-4.29444 6.150002,-5.94312 9.419592,-3.08806 0.75434,0.6587 1.6223,2.16376 1.83928,3.18936 0.24509,1.15842 1.02336,1.59367 2.58524,1.4458 1.02633,-0.0972 1.25677,-0.21307 1.25677,-0.63205 0,-0.65353 -0.84502,-2.31626 -2.17323,-4.27624 -1.23999,-1.8298 -1.79552,-3.08526 -1.79552,-4.05777 0,-0.3934 -0.18426,-0.91887 -0.40946,-1.16772 -0.72692,-0.80323 -2.23637,-5.46136 -2.23637,-6.90138 0,-0.73559 -0.1731,-1.65347 -0.38467,-2.03972 -0.64395,-1.17566 -1.23539,-7.95352 -1.36487,-15.64136 -0.10453,-6.20693 -0.18476,-7.3351 -0.55034,-7.73907 -1.15331,-1.27439 -1.49618,-0.0893 -1.54718,5.34794 -0.0806,8.58833 -0.80586,16.73972 -1.63343,18.35739 -0.21457,0.41943 -0.3365,1.12802 -0.27095,1.57464 0.17575,1.19745 -1.05356,5.25295 -2.01007,6.63125 -0.29253,0.42153 -0.625891,1.36116 -0.740802,2.08808 -0.141166,0.89301 -0.597881,1.90139 -1.408189,3.10914 -1.642279,2.44777 -2.61878,4.39035 -2.440495,4.85495 0.13699,0.35699 0.780952,0.54933 2.180111,0.65115 0.299609,0.0218 0.737512,-0.10918 0.973119,-0.29108 z m 4.789036,-10.66641 c -0.21039,-0.54826 0.12726,-3.76439 0.4606,-4.38724 0.34338,-0.64161 1.72528,-0.6602 2.05192,-0.0276 0.13149,0.25466 0.39425,1.25963 0.5839,2.23326 0.43644,2.24062 0.21243,2.59538 -1.63881,2.59538 -0.93405,0 -1.34342,-0.11621 -1.45761,-0.4138 z m -124.443352,14.72188 c -3.889734,-0.90282 -6.431926,-1.98863 -9.609797,-4.10448 -5.057205,-3.36713 -8.991799,-9.0475 -10.682192,-15.42188 -0.897818,-3.38562 -1.002599,-9.05806 -0.228618,-12.37651 2.907065,-12.46404 13.538336,-20.97537 26.076857,-20.87698 5.4696783,0.0429 10.1179945,1.47427 14.8155709,4.56211 1.8999993,1.24892 5.4338033,4.78122 6.7927535,6.78987 7.3479476,10.86091 6.0460626,25.07525 -3.1377783,34.25909 -3.78576932,3.78577 -8.292642,6.16536 -13.7630371,7.26677 -2.724994,0.54864 -7.681669,0.50133 -10.263759,-0.098 z m 11.2485276,-12.40986 c 1.8065326,-0.66149 3.2510411,-1.61538 4.4413141,-2.93287 1.3373417,-1.48028 1.5117418,-2.03582 1.4871858,-4.73726 -0.01778,-1.95505 -0.062651,-2.17946 -0.3008047,-1.50413 -0.1539558,0.43656 -0.3329464,0.85328 -0.3977587,0.92604 -0.06481,0.0728 -1.1498368,0.19733 -2.4111717,0.27681 -1.8897837,0.11909 -2.6075295,0.30004 -4.0788724,1.02831 -3.792828,1.87736 -5.53681,5.12668 -3.618118,6.74116 1.007197,0.8475 2.901071,0.9259 4.8782256,0.20194 z m -16.1148906,-0.9142 c 1.67819,-0.85704 2.869315,-1.84681 3.847413,-3.19704 0.689782,-0.95221 0.754367,-1.23556 0.754367,-3.3095 0,-2.12828 -0.0254,-2.23188 -0.411877,-1.6801 -0.343053,0.48978 -0.663588,0.58856 -1.918229,0.59118 -1.635834,0.003 -3.689563,0.46834 -4.945935,1.11968 -2.122208,1.10021 -4.341681,3.80528 -4.359814,5.31368 -0.0032,0.26585 0.357179,0.84636 0.800835,1.29002 0.787349,0.78735 0.855391,0.80372 2.844271,0.68442 1.500105,-0.09 2.394105,-0.30427 3.388969,-0.81234 z m 5.398269,-11.10519 c 0.173288,-1.05455 0.421851,-2.21502 0.552362,-2.57883 0.130509,-0.3638 0.3521,-1.37583 0.492421,-2.24896 0.523304,-3.25612 0.955429,-4.92573 1.337374,-5.16722 0.525997,-0.33258 14.8467994,-0.33139 15.7218373,0.001 0.8245951,0.31351 0.8430842,0.68485 0.1763633,3.54226 -0.7196984,3.08448 -0.9183846,4.60471 -0.5542782,4.24099 0.1613746,-0.1612 0.4613724,-1.23276 0.6666653,-2.38125 0.2052902,-1.14849 0.5644276,-2.86207 0.79808116,-3.80795 0.23365618,-0.94589 0.52885179,-2.25557 0.65599466,-2.91042 0.12714287,-0.65484 0.35644136,-1.60656 0.50955308,-2.11492 0.40013466,-1.32852 0.34535797,-2.30068 -0.14012861,-2.48698 -0.2301822,-0.0883 -4.14079249,-0.16062 -8.69024189,-0.16062 -9.5515951,0 -8.9893771,-0.15969 -9.4098181,2.67277 -0.722588,4.86796 -1.069277,6.84063 -1.316485,7.49084 -0.150299,0.39532 -0.273272,1.01995 -0.273272,1.38806 0,0.36812 -0.229579,1.4617 -0.510175,2.43018 -0.555347,1.91677 -0.871342,4.34185 -0.538991,4.13645 0.114216,-0.0706 0.349449,-0.99116 0.522738,-2.04572 z m 4.948274,-11.28556 c -1.809451,-0.15799 -2.597335,-0.63194 -2.01635,-1.21293 0.167196,-0.1672 3.160506,-0.2668 8.0181103,-0.2668 6.3501294,0 7.834127,0.0687 8.20943844,0.38021 0.42963833,0.35657 0.41982758,0.40967 -0.15777364,0.85402 -0.5525373,0.42506 -1.214718,0.47012 -6.4367302,0.43805 -3.2014579,-0.0197 -6.6289709,-0.10631 -7.6166949,-0.19255 z m 12.4073199,11.05244 c 0.1381046,-2.00889 -0.2604717,-1.37795 -0.511085,0.80903 -0.1156097,1.00888 -0.081336,1.35185 0.1154324,1.15508 0.1539266,-0.15392 0.3319701,-1.03778 0.3956526,-1.96411 z m 42.3052061,24.46975 c -7.667937,-1.17735 -15.352018,-6.78057 -19.159875,-13.97135 -1.113729,-2.10317 -2.271162,-5.62869 -2.67693,-8.15387 -0.656262,-4.08407 -0.0736,-9.81206 1.407544,-13.83721 2.215314,-6.02033 7.243611,-11.48513 13.24901,-14.39915 4.243623,-2.05915 6.33759,-2.51534 11.545876,-2.51534 3.763417,0 4.675854,0.0856 6.614583,0.62027 9.50314,2.62099 16.486026,9.67865 19.104781,19.30936 0.843405,3.1017 0.838685,9.85394 -0.0092,13.14329 -1.946346,7.55092 -7.210477,14.03304 -14.153358,17.42807 -3.976976,1.94473 -5.703665,2.33321 -10.763067,2.42157 -2.401094,0.0419 -4.722812,0.0214 -5.159375,-0.0456 z m 9.0615,-12.40524 c 0.571709,-0.40044 0.956194,-1.42644 1.256469,-3.35292 0.10626,-0.68173 0.392359,-1.15173 0.937297,-1.53976 1.267585,-0.90259 1.405083,-1.40281 0.618818,-2.2512 -0.932878,-1.00659 -0.709959,-2.07358 0.690454,-3.3048 1.188736,-1.04512 1.306521,-1.54112 0.532337,-2.24175 -0.639461,-0.5787 -0.653936,-1.41991 -0.05457,-3.1709 0.439491,-1.28392 0.538969,-1.37145 3.758731,-3.3073 3.056499,-1.83768 3.307292,-2.04865 3.307292,-2.78221 0,-1.16502 -0.824566,-1.14246 -4.36186,0.11937 -1.65169,0.58919 -3.370024,1.06847 -3.818522,1.06507 -0.448498,-0.003 -1.406647,-0.33082 -2.129218,-0.7276 -1.056294,-0.58004 -1.348883,-0.89475 -1.492952,-1.60583 -0.269528,-1.33033 -0.551124,-1.49325 -1.918991,-1.11027 -1.046173,0.29291 -1.278307,0.27474 -2.009745,-0.15733 -0.772391,-0.45627 -0.914234,-0.71647 -1.134581,-2.08133 -0.07577,-0.46934 -0.257173,-0.51993 -1.604545,-0.44746 -1.296088,0.0697 -1.726787,-0.0371 -2.933641,-0.7276 -1.545686,-0.88436 -2.433815,-1.00701 -3.205557,-0.4427 -0.386347,0.28251 -0.443479,0.48922 -0.249007,0.901 0.138803,0.2939 2.074886,2.462 4.302405,4.81799 3.347167,3.54021 4.035928,4.40191 3.96875,4.96528 -0.06755,0.56648 -0.595397,0.96989 -3.123994,2.38751 -4.371681,2.45092 -4.051808,2.39721 -6.740207,1.1318 -2.684703,-1.26368 -3.465986,-1.34838 -3.888287,-0.42153 -0.318757,0.6996 -0.347888,0.64285 1.999429,3.89507 0.648412,0.89837 0.983036,1.74142 1.207723,3.04271 0.373869,2.1653 0.851887,2.99064 1.732105,2.99064 0.799502,0 1.21349,-0.75474 1.839658,-3.35389 0.25158,-1.04427 0.67717,-2.09755 0.945756,-2.34062 0.550199,-0.49792 6.999473,-3.03674 7.714133,-3.03674 0.8948,0 1.031796,0.63741 1.674773,7.79235 0.265647,2.95605 0.538901,4.69239 0.801542,5.09323 0.470604,0.71823 0.611198,0.73881 1.378,0.20172 z m 88.305166,-32.36499 c -1.59954,-0.98803 -1.85303,-1.49771 -1.84166,-3.703 0.009,-1.78783 0.11588,-2.21919 0.91942,-3.71859 0.90198,-1.68308 3.56504,-4.60735 6.67692,-7.33184 1.14022,-0.99827 1.52136,-1.50908 1.52136,-2.03896 0,-0.90892 -0.25352,-0.89138 -1.18613,0.082 -0.41578,0.43398 -1.25607,0.98004 -1.86731,1.21348 -1.05194,0.40174 -1.16624,0.39623 -2.13782,-0.10304 -1.73991,-0.89409 -2.08543,-1.90926 -2.08103,-6.11421 0.004,-4.182328 0.74042,-7.581974 1.9514,-9.013102 0.82096,-0.970211 2.2639,-1.305374 3.06101,-0.711003 0.4759,0.354864 0.49408,0.513121 0.22258,1.937106 -1.1944,6.264459 -1.39688,7.748159 -1.14706,8.405229 0.14347,0.37734 0.4318,0.68607 0.64075,0.68607 1.08201,0 2.98843,-3.63422 4.39135,-8.371245 0.30769,-1.038924 0.77696,-2.08581 1.04282,-2.326414 0.74622,-0.675318 2.21867,-0.82406 2.76357,-0.279166 0.49714,0.497142 0.47564,0.975423 -0.23178,5.15599 -0.70421,4.161555 -1.16505,7.003945 -1.32982,8.202085 -1.07282,7.80106 -3.38076,14.59546 -5.74948,16.92606 -1.62049,1.5944 -4.05078,2.07124 -5.61909,1.1025 z m 3.35987,-3.67491 c 0.86188,-0.9212 1.41519,-2.01872 2.06883,-4.10368 0.55216,-1.76127 0.67616,-3.10622 0.28639,-3.10622 -0.47399,0 -3.03589,3.07436 -3.63792,4.36562 -0.67593,1.44976 -0.79854,2.7603 -0.30446,3.25438 0.48114,0.48114 0.84008,0.38839 1.58716,-0.4101 z M 13.569347,121.45967 c -1.144617,-0.34365 -2.563188,-1.66318 -3.063391,-2.84949 -1.0203441,-2.41992 0.227759,-6.1061 2.818236,-8.32346 1.704253,-1.45878 4.554331,-3.04177 8.050363,-4.47134 1.017677,-0.41614 1.698374,-0.87784 1.896393,-1.28628 0.399709,-0.82445 0.569301,-3.99313 0.220274,-4.11559 -0.145521,-0.0511 -0.588569,0.48402 -0.984552,1.18906 -0.900287,1.60294 -2.652173,3.23582 -4.447963,4.14582 -1.138661,0.577 -1.737424,0.6989 -3.433048,0.6989 -3.462374,0 -5.1297706,-1.27831 -6.0011996,-4.60083 C 8.1268099,99.949067 8.2254862,98.809949 9.3296612,93.705512 10.892285,86.481737 10.903808,86.34679 10.043375,85.346477 L 9.427819,84.630851 8.1949216,85.101699 c -0.8666692,0.330983 -1.7796298,1.050041 -3.073429,2.420664 -1.0122931,1.072398 -2.0113783,1.949815 -2.2201901,1.949815 -0.6073907,0 -1.0265383,-0.70466 -1.0265383,-1.725784 0,-1.728989 2.566318,-4.793095 5.1229946,-6.116699 1.2157577,-0.629404 1.7321794,-0.732874 3.7122702,-0.743793 2.272716,-0.01253 2.311308,-0.0018 3.246258,0.90407 0.537985,0.521243 1.071883,1.377352 1.237517,1.984376 0.349509,1.28089 0.119565,5.647761 -0.410334,7.792629 -1.76316,7.136705 -1.863122,8.883653 -0.571889,9.994323 0.856572,0.73679 2.423252,0.81323 3.751323,0.18302 3.421131,-1.62344 6.87493,-9.140692 7.643481,-16.636177 0.242986,-2.36979 0.816518,-3.808933 1.6432,-4.123238 1.037559,-0.394479 2.074307,-0.282593 2.820538,0.304393 0.618662,0.48664 0.697164,0.73236 0.697346,2.182813 1.12e-4,0.898943 -0.169523,2.586942 -0.376967,3.751109 -0.207444,1.164166 -0.578094,3.545416 -0.823667,5.291667 -0.24557,1.74625 -0.670769,4.60375 -0.944882,6.35 -0.274117,1.746253 -0.498872,3.518103 -0.499457,3.937443 -0.0011,0.734 0.03595,0.75631 0.991121,0.59808 2.503858,-0.41476 4.639239,-0.93299 4.893932,-1.18769 0.1534,-0.15339 0.320117,-1.16353 0.37048,-2.24475 0.09946,-2.135085 -0.01064,-2.351616 -1.360329,-2.675371 -1.159975,-0.278249 -1.456687,-0.62747 -1.456687,-1.714484 0,-1.179071 0.374946,-1.602027 1.441979,-1.626616 1.614961,-0.03722 1.778109,-0.240752 2.545691,-3.175868 1.221507,-4.670861 2.357782,-7.133527 4.182282,-9.064323 1.239353,-1.311557 2.131084,-1.76413 3.475969,-1.76413 1.403892,0 1.921264,0.293785 2.628601,1.492629 0.468939,0.794797 0.575016,1.383294 0.568444,3.153711 -0.01061,2.862171 -0.735166,4.876553 -2.579714,7.172147 -1.418707,1.76562 -1.197549,2.107108 1.468136,2.266946 1.445688,0.08669 1.845003,0.594191 1.369933,1.741109 -0.457116,1.103573 -1.44816,1.428898 -4.914863,1.613375 l -2.910417,0.154875 v 3.30729 c 0,4.05743 0.434602,5.26984 2.03037,5.66414 0.82577,0.20403 1.191514,0.12913 2.430585,-0.49778 2.051761,-1.0381 2.7994,-0.62291 2.429438,1.34914 -0.236082,1.25843 -1.420093,2.3101 -3.248147,2.88509 -2.791571,0.87806 -5.427799,-0.30865 -6.829207,-3.07419 -0.793258,-1.56542 -0.940216,-1.65673 -1.87873,-1.16725 -0.415327,0.21661 -1.052798,0.39738 -1.4166,0.4017 -0.690195,0.008 -4.325228,0.91578 -4.770789,1.19115 -0.140962,0.0871 -0.256294,0.39942 -0.256294,0.69401 0,0.70783 -0.96869,4.54412 -1.527098,6.04774 -1.128329,3.03826 -3.165658,5.43147 -5.575499,6.54943 -1.610751,0.74725 -5.073295,1.04234 -6.655736,0.56723 z m 5.305372,-3.81645 c 1.359048,-0.7028 2.611138,-2.85095 3.31153,-5.68146 0.547486,-2.21257 0.500634,-2.64583 -0.286118,-2.64583 -0.365776,0 -0.871791,0.10948 -1.124479,0.2433 -0.252687,0.13381 -0.995211,0.50307 -1.650055,0.82056 -4.535937,2.19923 -6.313278,6.53961 -3.175,7.75356 0.536075,0.20736 2.073722,-0.0504 2.924122,-0.49013 z M 40.978298,91.247797 c 1.204614,-1.640097 1.92894,-3.461146 2.109451,-5.303441 0.178502,-1.821754 -0.201914,-2.723993 -1.016698,-2.411331 -1.272109,0.488154 -3.399271,8.875364 -2.241809,8.839251 0.181901,-0.0057 0.698976,-0.511691 1.149056,-1.124479 z m -75.49697,18.864783 -0.859896,-0.52429 v -2.44524 c 0,-1.34488 0.17272,-3.34093 0.383821,-4.43566 0.646606,-3.353178 1.869664,-11.572921 2.128223,-14.303035 0.386879,-4.085046 -1.432653,-4.427537 -4.90432,-0.923144 -1.084805,1.095032 -2.102968,1.990967 -2.262583,1.990967 -0.459309,0 -1.165974,-0.915094 -1.165974,-1.509876 0,-1.686471 2.81223,-5.102411 5.291667,-6.427645 1.622085,-0.866988 4.923968,-0.942024 5.820459,-0.132271 1.08402,0.979139 1.587874,2.356112 1.587874,4.33947 0,1.015855 0.113604,1.91722 0.252453,2.003033 0.138849,0.08581 0.568619,-0.489671 0.955045,-1.278855 0.927842,-1.894901 2.729883,-3.921593 4.284034,-4.818107 1.072201,-0.6185 1.570678,-0.727833 3.416808,-0.749426 1.798847,-0.02104 2.287117,0.06712 2.910417,0.525514 1.122574,0.825568 2.189887,2.931082 2.202029,4.343996 0.0176,2.048355 0.343625,2.066099 1.524201,0.08296 1.249968,-2.099711 2.676636,-3.608119 4.1664703,-4.405187 0.8419782,-0.450463 1.5194094,-0.566862 3.3137606,-0.569388 2.5474796,-0.0036 3.3091145,0.375122 4.4239469,2.199721 0.51403249,0.841298 0.59413773,1.339378 0.59531248,3.701542 7.9375e-4,1.780707 -0.18618199,3.574064 -0.53817571,5.159375 -0.29674347,1.336466 -0.72559857,3.322907 -0.95301587,4.414313 -0.2274173,1.091406 -0.5799402,2.723219 -0.7833863,3.626251 -0.203446,0.903032 -0.3699007,2.370702 -0.3699007,3.261492 0,1.43734 0.087048,1.70667 0.7733982,2.39302 1.34324724,1.34325 3.3369858,0.85188 5.4443099,-1.34179 1.3776404,-1.43409 1.8467334,-1.68126 2.5135416,-1.32439 0.6408049,0.34295 0.718005,1.78423 0.1530508,2.85741 -0.4222114,0.80202 -2.5680034,2.91134 -3.6217699,3.56021 -3.01456452,1.85626 -7.141223,1.35205 -8.9091767,-1.08854 -1.5182399,-2.09587 -1.6549025,-5.2452 -0.4551389,-10.488455 0.1997896,-0.873125 0.6160479,-2.778125 0.9250204,-4.233333 0.3089751,-1.455208 0.6738937,-3.145041 0.8109346,-3.755184 0.7495937,-3.337406 -0.1243065,-4.915472 -2.4776032,-4.473991 -3.3449335,0.627513 -7.0362785,9.492012 -8.3861535,20.138743 -0.384609,3.03349 -0.772075,4.09236 -1.705861,4.6618 -1.136211,0.69288 -1.917528,0.61532 -2.811987,-0.27914 -0.646377,-0.64638 -0.773398,-0.98839 -0.773398,-2.0824 0,-1.28006 0.676344,-5.75268 1.42861,-9.447328 0.914365,-4.490758 1.296106,-7.301355 1.321863,-9.732281 0.03107,-2.932465 -0.207528,-3.364594 -1.857777,-3.364594 -1.273638,0 -1.958318,0.344509 -3.228162,1.624308 -2.539809,2.559723 -5.451831,10.894999 -6.27273,17.954855 -0.09306,0.80037 -0.341696,2.23574 -0.552516,3.18972 -0.314653,1.42383 -0.51924,1.8148 -1.142225,2.18281 -0.983577,0.58102 -1.542221,0.56424 -2.5955,-0.078 z m 82.567293,0.25984 c -1.026166,-0.41346 -1.16662,-1.06496 -0.895157,-4.15227 0.292605,-3.32777 1.167558,-8.405772 1.753306,-10.175725 0.592691,-1.790933 2.423525,-2.599982 3.762036,-1.662452 0.323422,0.226533 0.588039,0.661137 0.588039,0.965787 0,0.529569 -0.490974,3.342833 -1.075568,6.16296 -0.150828,0.7276 -0.387043,2.59455 -0.524923,4.14878 -0.301511,3.39875 -0.517636,4.03594 -1.550003,4.5698 -0.885274,0.45779 -1.219094,0.48101 -2.05773,0.14312 z m 8.912391,-0.0703 c -1.270402,-0.63172 -1.715058,-2.08647 -1.716712,-5.61641 -0.0021,-4.49942 0.950397,-8.897558 2.157891,-9.963946 0.672182,-0.593632 2.061613,-0.846851 2.718303,-0.495401 0.676487,0.362045 0.678246,0.890922 0.0122,3.669221 -0.29083,1.213139 -0.459861,2.317216 -0.375629,2.453506 0.08423,0.1363 0.6907,-0.558616 1.347708,-1.544245 1.518899,-2.278628 2.296369,-3.094741 3.772072,-3.959561 1.628868,-0.954581 3.307866,-0.988377 4.046337,-0.08145 0.485798,0.596616 0.521935,0.89489 0.368649,3.042708 -0.09347,1.309688 -0.345845,3.452818 -0.560835,4.762498 -0.214987,1.30969 -0.392967,3.21469 -0.395507,4.23334 -0.006,2.42083 -0.145142,2.8596 -1.082064,3.41305 -0.993822,0.58707 -2.157084,0.3615 -2.880854,-0.55863 -0.642171,-0.81639 -0.677291,-2.21485 -0.131493,-5.23567 0.513469,-2.84188 0.517112,-4.894796 0.0087,-4.894796 -0.934937,0 -3.091733,4.260036 -4.271293,8.436516 -0.377814,1.33773 -0.645297,1.79214 -1.284308,2.18182 -0.952466,0.58083 -0.892654,0.5754 -1.733151,0.15745 z m 19.099704,-0.15225 c -1.606312,-0.49952 -2.949567,-1.6574 -3.810505,-3.28463 -0.499052,-0.94324 -0.593903,-1.54115 -0.597599,-3.76703 -0.0038,-2.3005 0.08525,-2.83734 0.682403,-4.113115 1.466572,-3.133218 3.88145,-4.844456 6.870559,-4.868635 1.511324,-0.01223 1.86926,0.08371 2.713088,0.727198 1.294903,0.987464 1.836581,2.110683 1.821606,3.777251 -0.02574,2.863971 -1.928961,4.965061 -5.61259,6.196081 -1.642909,0.54904 -1.749266,1.31589 -0.274725,1.98081 1.555522,0.70145 2.892462,0.24519 4.723503,-1.61199 1.496219,-1.51758 1.88296,-1.67119 2.543781,-1.01037 1.545584,1.54559 -1.171634,5.20652 -4.481465,6.03792 -2.047663,0.51436 -2.751275,0.5046 -4.578056,-0.0635 z m 2.238023,-8.5417 c 1.054621,-0.63802 1.681022,-1.58778 1.681022,-2.548776 0,-0.972039 -0.436025,-1.385142 -1.462005,-1.385142 -1.213919,0 -2.240878,1.241605 -2.60273,3.146728 -0.31369,1.65156 0.506989,1.92258 2.383713,0.78719 z m 9.675881,8.61773 c -0.32425,-0.22712 -0.795909,-0.79266 -1.048126,-1.25677 -0.984319,-1.81126 -0.342283,-10.920719 0.938345,-13.313594 0.734734,-1.372865 2.625066,-2.073752 3.610671,-1.338745 0.484883,0.361598 0.494699,0.484653 0.165057,2.069398 -0.53707,2.581957 -0.643731,3.933901 -0.310364,3.933901 0.160173,0 0.291224,-0.16148 0.291224,-0.358832 0,-0.398745 1.487218,-2.469405 2.751947,-3.831546 1.681015,-1.81049 4.296611,-2.542096 5.427951,-1.518246 0.445095,0.402805 0.551355,0.813121 0.551355,2.129068 0,1.530421 0.0566,1.680235 0.92604,2.449957 1.17516,1.040409 1.21241,1.977789 0.13754,3.461609 -1.527572,2.10875 -3.380526,2.61506 -4.708909,1.28667 -0.617881,-0.61788 -0.722278,-0.9446 -0.736412,-2.30467 -0.009,-0.8716 -0.148765,-1.717019 -0.310462,-1.878715 -0.780553,-0.780552 -3.112154,3.350355 -4.336648,7.683255 -0.52388,1.85377 -0.76051,2.30483 -1.422193,2.71099 -0.967997,0.59418 -1.175843,0.60241 -1.927016,0.0763 z m 18.20676,-0.006 c -1.29156,-0.56021 -1.85399,-1.12817 -2.42341,-2.44725 -0.63362,-1.46782 -0.66041,-4.5869 -0.0556,-6.47679 1.17192,-3.662093 4.49162,-6.804252 7.64542,-7.236528 0.98921,-0.135586 1.34726,-0.06192 1.9828,0.407951 0.42657,0.31538 1.16363,0.644698 1.6379,0.731818 0.47428,0.08712 1.13021,0.325231 1.45763,0.529136 0.7269,0.452679 0.78331,1.661329 0.19954,4.275053 -0.21768,0.97462 -0.4925,3.46382 -0.61071,5.53157 -0.23475,4.10621 -0.44424,4.6511 -1.91205,4.97349 -0.83819,0.1841 -2.21677,-0.4033 -2.46505,-1.05033 -0.17999,-0.46903 -1.11336,-0.54648 -1.38031,-0.11453 -0.2228,0.36049 -2.2192,1.28541 -2.7611,1.2792 -0.21828,-0.002 -0.81005,-0.18376 -1.31505,-0.40279 z m 4.04378,-4.06851 c 0.77157,-0.91697 1.28402,-2.29251 1.87669,-5.03753 0.73824,-3.419233 0.48868,-4.162881 -1.11815,-3.331957 -1.89941,0.982233 -3.48727,4.069407 -3.48727,6.780087 0,1.30071 0.0942,1.61496 0.58804,1.96083 0.86015,0.60247 1.40003,0.5088 2.14069,-0.37142 z m 10.99552,4.08608 c -1.14739,-0.6197 -1.55342,-2.09917 -1.55342,-5.66025 0,-3.44902 0.72035,-7.727648 1.53786,-9.134294 0.30761,-0.529284 0.86054,-0.947327 1.59048,-1.202473 2.05183,-0.717206 2.53593,0.262112 1.75945,3.559312 -0.67407,2.862345 -0.45583,3.165395 0.84185,1.16902 1.80771,-2.781019 3.61785,-4.376706 5.48968,-4.839301 1.77119,-0.437722 3.01768,0.965429 2.67253,3.008399 -0.16977,1.004832 -0.11538,1.143104 0.76793,1.95218 1.11465,1.020977 1.25545,2.129607 0.43836,3.451687 -1.29132,2.08939 -3.75666,2.77106 -4.96045,1.37157 -0.50219,-0.58383 -0.61269,-1.01698 -0.61269,-2.40172 0,-1.01441 -0.12497,-1.766657 -0.31278,-1.882727 -0.83436,-0.515669 -3.2046,3.762257 -4.42495,7.986377 -0.73404,2.54081 -1.7937,3.40005 -3.23385,2.62223 z M 50.061494,90.815447 c -1.229582,-1.22958 -0.932908,-2.92711 0.699651,-4.003299 1.330817,-0.877282 3.575523,-0.541168 4.409879,0.660319 0.235127,0.338588 0.254537,1.646269 0.03651,2.459741 -0.239834,0.894833 -1.67767,1.656637 -3.126748,1.656637 -1.024263,0 -1.383472,-0.137579 -2.019289,-0.773398 z"
             id="path866"
             inkscape:connector-curvature="0" />
          <path
             style="fill:#3d5058;stroke-width:0.26458332"
             d="m 162.39747,171.71871 c -5.75687,-0.73523 -10.86911,-3.2701 -15.10218,-7.48831 -3.36371,-3.3519 -5.63743,-7.18493 -6.99218,-11.78739 -0.72871,-2.47564 -1.028,-9.006 -0.54149,-11.81518 0.66579,-3.84436 2.49745,-8.13314 4.78484,-11.20357 5.40348,-7.25323 13.46824,-11.14313 22.34892,-10.77961 5.13023,0.21 9.37505,1.57271 13.5927,4.36365 9.41827,6.23233 13.89941,17.96282 11.04328,28.90854 -2.83366,10.85962 -11.69622,18.57353 -22.78389,19.83095 -2.71635,0.30805 -3.7472,0.30333 -6.35,-0.0291 z m 22.74658,-15.13639 c 0.66125,-0.48352 0.35078,-1.19994 -0.60264,-1.39062 -0.41525,-0.083 -1.37239,-0.71859 -2.12697,-1.41232 -2.11062,-1.94039 -4.46927,-3.02331 -6.98804,-3.20839 -1.77497,-0.13043 -2.1722,-0.25092 -2.69856,-0.81858 -0.55397,-0.59742 -0.88508,-0.68196 -3.23097,-0.82488 -1.43757,-0.0876 -2.80944,-0.23432 -3.04861,-0.3261 -0.23917,-0.0918 -1.12938,-1.17243 -1.97824,-2.40145 -1.57485,-2.28014 -2.37917,-2.84751 -3.14072,-2.21548 -0.2199,0.18251 -0.48272,0.24895 -0.58403,0.14764 -0.35415,-0.35415 -0.40763,-3.84711 -0.0652,-4.2597 0.27249,-0.32833 1.35487,-0.39401 6.49341,-0.39401 7.90938,0 7.83516,0.0527 5.8075,-4.12103 -1.04448,-2.14995 -3.101,-4.36193 -4.90625,-5.27713 -2.55527,-1.29544 -4.05027,-1.55867 -8.85224,-1.55867 -4.88433,0 -6.4453,0.28504 -8.93255,1.6311 -2.44867,1.32518 -5.13576,4.93412 -5.62819,7.55903 -0.32937,1.75565 -0.28807,1.7667 6.60272,1.7667 4.41686,0 6.22121,0.0888 6.44989,0.3175 0.47729,0.47729 0.4495,13.26649 -0.0297,13.66419 -0.19095,0.15848 -1.53041,0.35609 -2.97656,0.43913 -3.95099,0.22688 -7.61531,0.67786 -7.98718,0.983 -0.38575,0.31654 -0.43974,1.16633 -0.0879,1.38377 0.13355,0.0825 2.1172,-0.0295 4.40812,-0.24898 2.33149,-0.22335 6.8549,-0.39943 10.27438,-0.39995 5.79453,-7.9e-4 17.38412,0.59065 20.52886,1.04778 2.21356,0.32177 2.76566,0.30796 3.29971,-0.0825 z m -14.26594,-2.58869 c -3.16486,-0.22648 -4.09147,-0.51957 -3.31906,-1.04985 0.24842,-0.17054 1.99029,-0.22549 4.70062,-0.14829 4.30163,0.12253 5.08675,0.29773 5.08675,1.13513 0,0.41753 -1.33275,0.43051 -6.46831,0.063 z m -10.14752,-0.5452 c -0.21491,-0.21491 -0.31633,-1.43319 -0.31389,-3.77031 0.004,-3.34728 0.14321,-4.6648 0.49027,-4.62349 0.27614,0.0329 4.39374,6.39877 4.48885,6.93988 0.0484,0.27516 -0.18074,0.78629 -0.50914,1.13585 -0.50437,0.53689 -0.84874,0.63557 -2.21783,0.63557 -0.90781,0 -1.76042,-0.13966 -1.93826,-0.3175 z m -9.19034,-15.57254 c -0.76508,-1.23793 3.74539,-7.71597 4.77655,-6.86019 0.25454,0.21125 0.29431,0.48347 0.13272,0.90848 -0.12689,0.33376 -0.43301,1.72352 -0.68025,3.08836 -0.24724,1.36483 -0.56826,2.63034 -0.71337,2.81224 -0.32396,0.40608 -3.2698,0.4489 -3.51565,0.0511 z m 11.86848,-0.0396 c -0.4608,-0.59899 -1.50922,-6.56473 -1.20682,-6.86712 0.73929,-0.73929 4.57943,4.39408 4.658,6.22666 l 0.0355,0.82736 -1.61167,0.0777 c -1.08569,0.0523 -1.69761,-0.034 -1.87498,-0.26458 z m -63.29074,33.51259 c -8.111213,-1.7597 -14.916831,-7.04033 -18.398355,-14.27569 -1.973935,-4.10226 -2.801078,-7.62832 -2.792971,-11.90625 0.02294,-12.10101 7.89787,-22.42739 19.711023,-25.847 1.848103,-0.53498 2.690153,-0.61133 6.742073,-0.61133 4.04715,0 4.89512,0.0767 6.73395,0.6091 9.71248,2.81209 16.54759,9.78844 19.10444,19.49923 0.70679,2.68437 0.69582,10.03286 -0.0192,12.83229 -0.57976,2.27 -1.95423,5.55381 -3.14707,7.51884 -3.83716,6.32116 -10.66379,10.98235 -18.02439,12.30697 -2.16598,0.38979 -7.86579,0.31723 -9.90954,-0.12616 z m -1.025576,-4.68454 c 0.235606,-0.1819 0.555765,-0.81876 0.711464,-1.41525 1.120972,-4.29444 6.150002,-5.94312 9.419592,-3.08806 0.75434,0.6587 1.6223,2.16376 1.83928,3.18936 0.24509,1.15842 1.02336,1.59367 2.58524,1.4458 1.02633,-0.0972 1.25677,-0.21307 1.25677,-0.63205 0,-0.65353 -0.84502,-2.31626 -2.17323,-4.27624 -1.23999,-1.8298 -1.79552,-3.08526 -1.79552,-4.05777 0,-0.3934 -0.18426,-0.91887 -0.40946,-1.16772 -0.72692,-0.80323 -2.23637,-5.46136 -2.23637,-6.90138 0,-0.73559 -0.1731,-1.65347 -0.38467,-2.03972 -0.64395,-1.17566 -1.23539,-7.95352 -1.36487,-15.64136 -0.10453,-6.20693 -0.18476,-7.3351 -0.55034,-7.73907 -1.15331,-1.27439 -1.49618,-0.0893 -1.54718,5.34794 -0.0806,8.58833 -0.80586,16.73972 -1.63343,18.35739 -0.21457,0.41943 -0.3365,1.12802 -0.27095,1.57464 0.17575,1.19745 -1.05356,5.25295 -2.01007,6.63125 -0.29253,0.42153 -0.625891,1.36116 -0.740802,2.08808 -0.141166,0.89301 -0.597881,1.90139 -1.408189,3.10914 -1.642279,2.44777 -2.61878,4.39035 -2.440495,4.85495 0.13699,0.35699 0.780952,0.54933 2.180111,0.65115 0.299609,0.0218 0.737512,-0.10918 0.973119,-0.29108 z m 4.789036,-10.66641 c -0.21039,-0.54826 0.12726,-3.76439 0.4606,-4.38724 0.34338,-0.64161 1.72528,-0.6602 2.05192,-0.0276 0.13149,0.25466 0.39425,1.25963 0.5839,2.23326 0.43644,2.24062 0.21243,2.59538 -1.63881,2.59538 -0.93405,0 -1.34342,-0.11621 -1.45761,-0.4138 z m -124.443352,14.72188 c -3.889734,-0.90282 -6.431926,-1.98863 -9.609797,-4.10448 -5.057205,-3.36713 -8.991799,-9.0475 -10.682192,-15.42188 -0.897818,-3.38562 -1.002599,-9.05806 -0.228618,-12.37651 2.907065,-12.46404 13.538336,-20.97537 26.076857,-20.87698 5.4696783,0.0429 10.1179945,1.47427 14.8155709,4.56211 1.8999993,1.24892 5.4338033,4.78122 6.7927535,6.78987 7.3479476,10.86091 6.0460626,25.07525 -3.1377783,34.25909 -3.78576932,3.78577 -8.292642,6.16536 -13.7630371,7.26677 -2.724994,0.54864 -7.681669,0.50133 -10.263759,-0.098 z m 11.2485276,-12.40986 c 1.8065326,-0.66149 3.2510411,-1.61538 4.4413141,-2.93287 1.3373417,-1.48028 1.5117418,-2.03582 1.4871858,-4.73726 -0.01778,-1.95505 -0.062651,-2.17946 -0.3008047,-1.50413 -0.1539558,0.43656 -0.3329464,0.85328 -0.3977587,0.92604 -0.06481,0.0728 -1.1498368,0.19733 -2.4111717,0.27681 -1.8897837,0.11909 -2.6075295,0.30004 -4.0788724,1.02831 -3.792828,1.87736 -5.53681,5.12668 -3.618118,6.74116 1.007197,0.8475 2.901071,0.9259 4.8782256,0.20194 z m -16.1148906,-0.9142 c 1.67819,-0.85704 2.869315,-1.84681 3.847413,-3.19704 0.689782,-0.95221 0.754367,-1.23556 0.754367,-3.3095 0,-2.12828 -0.0254,-2.23188 -0.411877,-1.6801 -0.343053,0.48978 -0.663588,0.58856 -1.918229,0.59118 -1.635834,0.003 -3.689563,0.46834 -4.945935,1.11968 -2.122208,1.10021 -4.341681,3.80528 -4.359814,5.31368 -0.0032,0.26585 0.357179,0.84636 0.800835,1.29002 0.787349,0.78735 0.855391,0.80372 2.844271,0.68442 1.500105,-0.09 2.394105,-0.30427 3.388969,-0.81234 z m 5.398269,-11.10519 c 0.173288,-1.05455 0.421851,-2.21502 0.552362,-2.57883 0.130509,-0.3638 0.3521,-1.37583 0.492421,-2.24896 0.523304,-3.25612 0.955429,-4.92573 1.337374,-5.16722 0.525997,-0.33258 14.8467994,-0.33139 15.7218373,0.001 0.8245951,0.31351 0.8430842,0.68485 0.1763633,3.54226 -0.7196984,3.08448 -0.9183846,4.60471 -0.5542782,4.24099 0.1613746,-0.1612 0.4613724,-1.23276 0.6666653,-2.38125 0.2052902,-1.14849 0.5644276,-2.86207 0.79808116,-3.80795 0.23365618,-0.94589 0.52885179,-2.25557 0.65599466,-2.91042 0.12714287,-0.65484 0.35644136,-1.60656 0.50955308,-2.11492 0.40013466,-1.32852 0.34535797,-2.30068 -0.14012861,-2.48698 -0.2301822,-0.0883 -4.14079249,-0.16062 -8.69024189,-0.16062 -9.5515951,0 -8.9893771,-0.15969 -9.4098181,2.67277 -0.722588,4.86796 -1.069277,6.84063 -1.316485,7.49084 -0.150299,0.39532 -0.273272,1.01995 -0.273272,1.38806 0,0.36812 -0.229579,1.4617 -0.510175,2.43018 -0.555347,1.91677 -0.871342,4.34185 -0.538991,4.13645 0.114216,-0.0706 0.349449,-0.99116 0.522738,-2.04572 z m 4.948274,-11.28556 c -1.809451,-0.15799 -2.597335,-0.63194 -2.01635,-1.21293 0.167196,-0.1672 3.160506,-0.2668 8.0181103,-0.2668 6.3501294,0 7.834127,0.0687 8.20943844,0.38021 0.42963833,0.35657 0.41982758,0.40967 -0.15777364,0.85402 -0.5525373,0.42506 -1.214718,0.47012 -6.4367302,0.43805 -3.2014579,-0.0197 -6.6289709,-0.10631 -7.6166949,-0.19255 z m 12.4073199,11.05244 c 0.1381046,-2.00889 -0.2604717,-1.37795 -0.511085,0.80903 -0.1156097,1.00888 -0.081336,1.35185 0.1154324,1.15508 0.1539266,-0.15392 0.3319701,-1.03778 0.3956526,-1.96411 z m 42.3052061,24.46975 c -7.667937,-1.17735 -15.352018,-6.78057 -19.159875,-13.97135 -1.113729,-2.10317 -2.271162,-5.62869 -2.67693,-8.15387 -0.656262,-4.08407 -0.0736,-9.81206 1.407544,-13.83721 2.215314,-6.02033 7.243611,-11.48513 13.24901,-14.39915 4.243623,-2.05915 6.33759,-2.51534 11.545876,-2.51534 3.763417,0 4.675854,0.0856 6.614583,0.62027 9.50314,2.62099 16.486026,9.67865 19.104781,19.30936 0.843405,3.1017 0.838685,9.85394 -0.0092,13.14329 -1.946346,7.55092 -7.210477,14.03304 -14.153358,17.42807 -3.976976,1.94473 -5.703665,2.33321 -10.763067,2.42157 -2.401094,0.0419 -4.722812,0.0214 -5.159375,-0.0456 z m 9.0615,-12.40524 c 0.571709,-0.40044 0.956194,-1.42644 1.256469,-3.35292 0.10626,-0.68173 0.392359,-1.15173 0.937297,-1.53976 1.267585,-0.90259 1.405083,-1.40281 0.618818,-2.2512 -0.932878,-1.00659 -0.709959,-2.07358 0.690454,-3.3048 1.188736,-1.04512 1.306521,-1.54112 0.532337,-2.24175 -0.639461,-0.5787 -0.653936,-1.41991 -0.05457,-3.1709 0.439491,-1.28392 0.538969,-1.37145 3.758731,-3.3073 3.056499,-1.83768 3.307292,-2.04865 3.307292,-2.78221 0,-1.16502 -0.824566,-1.14246 -4.36186,0.11937 -1.65169,0.58919 -3.370024,1.06847 -3.818522,1.06507 -0.448498,-0.003 -1.406647,-0.33082 -2.129218,-0.7276 -1.056294,-0.58004 -1.348883,-0.89475 -1.492952,-1.60583 -0.269528,-1.33033 -0.551124,-1.49325 -1.918991,-1.11027 -1.046173,0.29291 -1.278307,0.27474 -2.009745,-0.15733 -0.772391,-0.45627 -0.914234,-0.71647 -1.134581,-2.08133 -0.07577,-0.46934 -0.257173,-0.51993 -1.604545,-0.44746 -1.296088,0.0697 -1.726787,-0.0371 -2.933641,-0.7276 -1.545686,-0.88436 -2.433815,-1.00701 -3.205557,-0.4427 -0.386347,0.28251 -0.443479,0.48922 -0.249007,0.901 0.138803,0.2939 2.074886,2.462 4.302405,4.81799 3.347167,3.54021 4.035928,4.40191 3.96875,4.96528 -0.06755,0.56648 -0.595397,0.96989 -3.123994,2.38751 -4.371681,2.45092 -4.051808,2.39721 -6.740207,1.1318 -2.684703,-1.26368 -3.465986,-1.34838 -3.888287,-0.42153 -0.318757,0.6996 -0.347888,0.64285 1.999429,3.89507 0.648412,0.89837 0.983036,1.74142 1.207723,3.04271 0.373869,2.1653 0.851887,2.99064 1.732105,2.99064 0.799502,0 1.21349,-0.75474 1.839658,-3.35389 0.25158,-1.04427 0.67717,-2.09755 0.945756,-2.34062 0.550199,-0.49792 6.999473,-3.03674 7.714133,-3.03674 0.8948,0 1.031796,0.63741 1.674773,7.79235 0.265647,2.95605 0.538901,4.69239 0.801542,5.09323 0.470604,0.71823 0.611198,0.73881 1.378,0.20172 z"
             id="path864"
             inkscape:connector-curvature="0" />
        </g>
        <path
           style="fill:none;stroke:#ffffff;stroke-width:0.49998719px;stroke-linecap:butt;stroke-linejoin:miter;stroke-opacity:1"
           d="m 195.12035,21.561788 -3.29411,15.567567 -0.72365,2.958745"
           id="path868"
           inkscape:connector-curvature="0"
           sodipodi:nodetypes="ccc" />
        <path
           style="display:inline;fill:none;stroke:#ffffff;stroke-width:0.49998719px;stroke-linecap:butt;stroke-linejoin:miter;stroke-opacity:1"
           d="m 177.83781,20.952703 -3.29411,15.567567 -0.72365,2.958745"
           id="path868-3"
           inkscape:connector-curvature="0"
           sodipodi:nodetypes="ccc" />
        <path
           style="fill:none;stroke:#ffffff;stroke-width:0.26458332px;stroke-linecap:butt;stroke-linejoin:miter;stroke-opacity:1"
           d="m 175.04161,33.620516 c -0.10926,0.856723 -0.67084,1.507974 -1.61197,1.440749"
           id="path909"
           inkscape:connector-curvature="0" />
      </g>
      <path
         inkscape:connector-curvature="0"
         id="path927"
         d="m 356.42802,27.299047 -10e-4,6.26856"
         style="fill:#3d5058;fill-opacity:1;stroke:#3d5058;stroke-width:0.09736229;stroke-miterlimit:4;stroke-dasharray:none;stroke-opacity:1" />
      <path
         sodipodi:nodetypes="ccccccssccccccsscc"
         transform="scale(0.26458333)"
         inkscape:connector-curvature="0"
         id="path968"
         d="m 1350.6484,118.10652 c -3.0614,-4.09255 -2.7619,-3.6837 -2.9129,-3.97724 -0.7112,-1.38265 -0.3296,-2.95306 1.0715,-4.40859 1.02,-1.05975 2.1405,-1.67752 3.356,-1.8503 0.3677,-0.0523 1.1898,-0.0194 1.5346,0.0613 0.3454,0.0809 0.6831,0.19839 0.8852,0.30796 0.1444,0.0783 2.8023,2.26635 2.8023,2.30692 0,0.0237 -0.5967,0.73251 -0.6167,0.73251 -0.01,0 -0.5948,-0.4832 -1.3015,-1.07379 -0.7067,-0.59058 -1.3271,-1.09535 -1.3787,-1.12172 -0.1673,-0.0855 -0.4936,-0.18047 -0.7812,-0.22725 -1.2293,-0.19992 -2.4678,0.26334 -3.61,1.35031 -1.1805,1.12334 -1.5842,2.24571 -1.1871,3.30023 0.083,0.22136 0.1125,0.26289 1.2168,1.73135 1.603,2.13157 4.1858,5.91966 4.1858,5.94658 0,0.0303 -0.6376,0.34429 -0.6775,0.34429 -0.014,0 -1.1785,-1.54016 -2.5866,-3.42258 z"
         style="fill:#3d5058;fill-opacity:1;stroke:#3d5058;stroke-width:0.06673228;stroke-miterlimit:4;stroke-dasharray:none;stroke-opacity:1" />
      <path
         inkscape:connector-curvature="0"
         id="path972"
         d="m 356.5383,30.94822 c 0,-0.105239 0.0242,-2.490619 0.0242,-2.490619 l 0.0519,0.04677 -0.0277,2.584162"
         style="fill:none;stroke:#000000;stroke-width:0.20348944px;stroke-linecap:butt;stroke-linejoin:miter;stroke-opacity:1" />
      <path
         transform="scale(0.26458333)"
         inkscape:connector-curvature="0"
         id="path974"
         d="m 1347.4115,117.48361 c -0.048,-0.009 -0.05,-0.0178 -0.05,-0.26215 v -0.25258 h -0.1014 -0.1015 l 0.013,-0.48061 c 0.01,-0.26434 0.018,-1.23136 0.025,-2.14894 0.022,-2.96072 0.073,-7.58387 0.084,-7.59435 0.01,-0.006 0.215,0.17492 0.4653,0.40116 l 0.4551,0.41134 -3e-4,0.62326 c -2e-4,0.3428 -0.02,2.36838 -0.044,4.5013 -0.024,2.13292 -0.044,4.08935 -0.044,4.34761 l -4e-4,0.46956 -0.3259,-0.003 c -0.1793,-0.002 -0.3483,-0.007 -0.3757,-0.0126 z"
         style="fill:#3d5058;fill-opacity:1;stroke:#3d5058;stroke-width:0.04718685;stroke-miterlimit:4;stroke-dasharray:none;stroke-opacity:1" />
    </g>
    <path
       style="fill:#ffffff;fill-opacity:1;stroke:#ffffff;stroke-width:0.75498956;stroke-miterlimit:4;stroke-dasharray:none;stroke-opacity:1"
       d="m 108.7552,297.47207 c -2.7277,-0.65519 -3.6234,-1.07168 -5.10807,-2.37525 -4.01613,-3.52621 -3.64609,-9.07877 1.00812,-15.12726 3.89094,-5.05658 12.95067,-10.89101 19.51356,-12.56666 2.03762,-0.52025 3.3917,-0.68675 13.21097,-1.62447 2.22894,-0.21286 4.24874,-0.54977 4.48843,-0.7487 0.71164,-0.59061 1.439,-3.23278 3.10176,-11.26743 1.37708,-6.65415 3.98217,-19.05362 6.75953,-32.17335 0.97506,-4.60604 1.04488,-5.81357 0.40882,-7.07107 -0.68964,-1.36344 -2.14078,-1.83968 -6.58661,-2.16161 -5.16337,-0.37389 -46.326546,-0.37541 -51.259199,-0.002 -5.185373,0.39266 -4.653951,-0.5402 -7.476205,13.12366 -0.984024,4.76413 -2.416615,11.52584 -3.183536,15.02602 -4.91885,22.44937 -5.283159,24.44639 -5.283159,28.96071 0,6.87388 -0.957762,9.31279 -5.681603,14.46803 -4.182416,4.56437 -11.836073,9.33316 -17.12259,10.66864 -2.70432,0.68316 -9.958856,1.35276 -12.59225,1.16228 -2.550149,-0.18446 -4.324782,-1.35292 -6.54934,-4.31224 -1.509624,-2.00824 -1.605109,-2.26384 -1.464563,-3.92045 0.422657,-4.98187 7.688452,-14.05723 14.539807,-18.16098 4.893344,-2.93097 10.672633,-4.47487 19.195321,-5.12789 6.384485,-0.48919 7.347172,-0.76929 8.391208,-2.44145 0.593697,-0.95089 0.923531,-2.35893 4.119091,-17.58436 1.367226,-6.51422 3.348964,-15.90106 4.403861,-20.85965 1.054897,-4.95858 2.48035,-12.75444 3.167672,-17.32411 1.727034,-11.48224 1.842844,-11.96662 3.181019,-13.30479 1.406358,-1.40636 3.090244,-1.86727 8.295006,-2.27047 4.70623,-0.36459 38.0894,-0.38959 49.78947,-0.0373 9.40481,0.28319 9.12315,0.15791 9.09901,4.04721 -0.0104,1.67413 -0.39619,4.00666 -1.12345,6.79236 -1.16374,4.45753 -3.38417,14.58672 -8.40908,38.36054 -1.66456,7.8754 -3.52369,16.5463 -4.13139,19.26866 -0.90826,4.06881 -1.14789,6.08237 -1.34644,11.31371 -0.33122,8.72715 -1.03629,10.35891 -7.05805,16.33462 -7.8386,7.77867 -20.71754,12.7555 -28.29712,10.93491 z m 43.48707,-89.53199 c 4.54675,-2.12669 3.475,-4.48858 -2.313,-5.09735 -3.88644,-0.40876 -48.01981,-0.42245 -53.284328,-0.0165 -2.090965,0.16123 -4.039928,0.49081 -4.331029,0.7324 -0.811702,0.67365 -0.633098,1.98745 0.378344,2.78305 2.527497,1.98813 9.791663,2.4442 37.983253,2.38473 19.52232,-0.0412 20.01188,-0.059 21.56676,-0.7863 z"
       id="path830"
       inkscape:connector-curvature="0"
       transform="matrix(0.26458333,0,0,0.26458333,154.30721,-34.978722)" />
    <path
       style="fill:#ffffff;fill-opacity:1;stroke:#ffffff;stroke-width:0.75498956;stroke-miterlimit:4;stroke-dasharray:none;stroke-opacity:1"
       d="m 336.63817,295.21644 c -1.52105,-2.30183 -2.08551,-5.88441 -3.91032,-24.81834 -2.14616,-22.26822 -2.66843,-24.41397 -5.94236,-24.41397 -2.40373,0 -17.96442,5.74188 -25.9567,9.578 -3.36166,1.61353 -3.67852,1.8557 -4.46889,3.41556 -0.85718,1.69172 -1.88157,4.86511 -3.56639,11.04807 -2.11162,7.74922 -4.49596,10.19902 -7.90415,8.12112 -1.58008,-0.96334 -2.71566,-3.55169 -3.82821,-8.72571 -1.82764,-8.49961 -2.3383,-9.61643 -8.04619,-17.59714 -4.71025,-6.58582 -5.36079,-7.87476 -4.81267,-9.53558 0.52504,-1.59088 2.22703,-3.02184 3.5942,-3.02184 1.62477,0 5.78401,1.51536 11.89712,4.33454 5.42415,2.50144 5.61502,2.55976 8.37902,2.55976 2.58367,0 3.08872,-0.12507 5.83636,-1.44521 4.30745,-2.06958 16.74838,-9.13004 19.35457,-10.98408 3.77967,-2.68885 4.08135,-4.48529 1.36732,-8.14221 -1.92383,-2.59219 -3.62866,-4.49459 -14.19897,-15.8445 -10.4735,-11.24596 -14.56935,-15.90859 -15.29346,-17.40979 -0.53027,-1.09931 -0.51769,-1.18406 0.30673,-2.06652 1.48998,-1.59486 2.69908,-2.01892 5.18703,-1.81921 1.90317,0.15276 3.04905,0.58297 7.41317,2.78316 l 5.16203,2.60246 5.60995,0.12559 c 6.36211,0.14244 5.94464,-0.0714 6.65699,3.40994 0.66046,3.22777 1.48328,4.54136 3.72171,5.9415 2.69129,1.68341 3.80892,1.82886 7.4353,0.96759 5.56588,-1.32189 6.39194,-0.95939 7.42562,3.25862 0.44954,1.83438 0.93979,2.85942 1.84883,3.86562 2.2997,2.5455 8.86078,5.5664 12.12224,5.58142 1.89697,0.009 8.43982,-1.74188 15.14871,-4.05323 10.33249,-3.55975 13.91413,-4.17404 15.03194,-2.57815 0.70585,1.00774 0.70857,3.42722 0.005,4.43174 -0.78754,1.12437 -4.03896,3.35501 -11.47542,7.8727 -12.438,7.55618 -13.08532,8.15252 -14.85865,13.68847 -1.92533,6.01049 -1.78715,8.78293 0.56762,11.38939 1.48396,1.64255 1.92154,2.76594 1.50853,3.87273 -0.17483,0.46851 -1.88622,2.48016 -3.80309,4.47032 -5.32641,5.53006 -5.79892,7.89508 -2.47658,12.39576 2.72386,3.68994 2.42184,4.70517 -2.59646,8.72782 -2.17847,1.74626 -2.58743,2.60596 -3.60893,7.5864 -1.36589,6.65958 -2.56923,9.3612 -4.83851,10.86293 -1.9332,1.27933 -2.93276,1.17028 -3.99402,-0.43573 z"
       id="path832"
       inkscape:connector-curvature="0"
       transform="matrix(0.26458333,0,0,0.26458333,154.30721,-34.978722)" />
    <path
       style="fill:#ffffff;fill-opacity:1;stroke:#ffffff;stroke-width:0.75498956;stroke-miterlimit:4;stroke-dasharray:none;stroke-opacity:1"
       d="m 524.54386,328.31234 c -1.06407,-0.17633 -2.49596,-0.59526 -3.18198,-0.93093 -1.12478,-0.55037 -1.24294,-0.74526 -1.20277,-1.98378 0.061,-1.88081 3.47803,-8.58919 7.76456,-15.24356 4.25201,-6.60081 5.48825,-9.21514 6.68738,-14.14214 0.52058,-2.139 1.39218,-4.76413 1.93688,-5.83363 0.54471,-1.0695 1.64147,-3.21733 2.43725,-4.77297 3.07793,-6.01688 6.05489,-17.04322 6.05489,-22.42662 0,-2.02704 0.21665,-3.46467 0.73755,-4.89421 3.52252,-9.66709 5.53844,-31.08947 6.32891,-67.2547 0.34408,-15.74196 0.66508,-20.27769 1.61795,-22.86141 0.65508,-1.77627 1.40956,-2.14416 2.58996,-1.26287 2.54978,1.90369 2.75467,3.34427 3.21913,22.63371 0.91067,37.82076 2.53648,59.0878 5.03308,65.83729 0.87535,2.36645 1.54272,5.76745 2.02262,10.30742 0.66492,6.29036 5.26692,20.25845 7.96525,24.1763 0.82379,1.19611 1.36736,2.51117 1.61253,3.90123 0.84751,4.80523 1.13223,5.83152 2.28524,8.23745 0.66526,1.38817 2.86411,5.10875 4.88633,8.26797 5.98448,9.34927 8.38162,14.31919 7.87677,16.33068 -0.29203,1.16353 -1.97293,1.60862 -6.04701,1.60121 -4.99324,-0.009 -6.99431,-1.29355 -7.97153,-5.11679 -1.11921,-4.37882 -4.43835,-10.05075 -7.33641,-12.53684 -6.77297,-5.81019 -16.67638,-6.69803 -24.82037,-2.22512 -4.86138,2.67001 -8.62557,7.61027 -10.76245,14.12505 -1.96188,5.98127 -3.70317,7.06665 -9.73376,6.06726 z m 35.06421,-39.5624 c 2.97099,-0.82515 3.4054,-3.26338 1.87384,-10.51725 -1.76607,-8.36457 -2.11562,-8.95566 -5.43824,-9.19599 -2.24851,-0.16265 -3.98167,0.46675 -4.63214,1.68216 -0.69604,1.30057 -1.78687,9.00039 -1.81772,12.83078 -0.0427,5.3062 0.0868,5.43164 5.69931,5.51788 1.65286,0.0254 3.59459,-0.11751 4.31495,-0.31758 z"
       id="path834"
       inkscape:connector-curvature="0"
       transform="matrix(0.26458333,0,0,0.26458333,154.30721,-34.978722)" />
    <path
       style="fill:#ffffff;fill-opacity:1;stroke:#ffffff;stroke-width:0.75498956;stroke-miterlimit:4;stroke-dasharray:none;stroke-opacity:1"
       d="m 845.73723,289.9821 c -4.41052,-0.65463 -18.36564,-1.81246 -29.34494,-2.43469 -21.0916,-1.19533 -29.14203,-1.42792 -49.32069,-1.42496 -20.65981,0.003 -28.54394,0.2719 -41.18897,1.40464 -9.95279,0.89156 -13.88401,1.03754 -14.48603,0.53791 -0.75381,-0.62561 -0.70464,-3.26332 0.0787,-4.22389 1.15602,-1.41751 9.31521,-2.61192 26.71685,-3.91102 9.92646,-0.74105 14.04798,-1.26967 14.91914,-1.9135 1.11379,-0.82317 1.37786,-5.82451 1.39261,-26.37561 0.0139,-19.35084 -0.21974,-24.59609 -1.13634,-25.51268 -0.79126,-0.79126 -5.92241,-1.06917 -24.83331,-1.34501 -22.7328,-0.33159 -24.05426,-0.47544 -24.60725,-2.67875 -0.86474,-3.4454 3.00475,-12.9208 8.00714,-19.60748 4.87437,-6.51554 9.55649,-10.62684 15.47015,-13.58409 7.83594,-3.91854 12.43866,-4.75805 27.64646,-5.04253 19.36972,-0.36233 26.33097,0.59586 35.30649,4.8598 4.58227,2.17686 7.2093,4.04243 10.92556,7.75868 4.72824,4.72824 7.8684,9.27088 10.9107,15.78371 3.75001,8.02788 3.82985,10.10531 0.43776,11.39024 -2.0753,0.78613 -8.40581,1.10853 -21.94607,1.11768 -15.26455,0.0103 -23.93371,0.37522 -25.46243,1.07175 -0.75847,0.34558 -1.02797,0.80725 -1.33523,2.2873 -0.56138,2.70414 -0.32937,47.72203 0.25267,49.02781 0.6216,1.3945 2.60703,1.84289 8.23467,1.8597 4.5937,0.0137 4.83569,-0.0226 6.44295,-0.96741 1.9068,-1.12087 3.59796,-3.64328 3.59796,-5.36642 0,-0.72365 -0.82258,-2.47039 -2.426,-5.15158 -4.15327,-6.94496 -10.82255,-17.08022 -13.8923,-21.11204 -1.09647,-1.4401 -0.88927,-2.4528 0.80646,-3.94167 3.04439,-2.67301 5.37943,-0.96731 12.74204,9.30783 1.52405,2.12694 3.65372,4.7877 4.73262,5.91281 l 1.96163,2.04566 2.82842,0.35528 c 1.55564,0.1954 5.29447,0.52493 8.30851,0.73229 5.88304,0.40473 9.274,0.88797 10.42056,1.48502 0.394,0.20517 1.45108,1.05348 2.34905,1.88513 1.98761,1.8408 2.98496,2.14005 9.42396,2.82763 10.76077,1.14908 17.93176,4.41129 27.12713,12.34059 3.18261,2.74441 5.71487,4.29721 9.43885,5.78796 0.52446,0.20994 1.21099,0.77459 1.52561,1.25476 0.51605,0.78759 0.51941,0.97483 0.0343,1.91297 -0.82569,1.59672 -2.48916,2.2023 -5.92565,2.1572 -1.62346,-0.0213 -4.38365,-0.25127 -6.13373,-0.51102 z m -19.26866,-9.31049 c 1.2155,-0.33529 1.41415,-2.15725 0.34392,-3.15432 -1.71839,-1.60093 -8.22624,-2.23609 -23.67845,-2.31101 -11.51573,-0.0558 -13.08252,0.10843 -13.58754,1.42449 -0.52341,1.36397 1.21603,2.02717 7.23679,2.75919 9.74219,1.18448 27.29087,1.94214 29.68528,1.28165 z m -84.09345,-61.30595 c 1.51566,-0.63328 1.69755,-1.20063 3.99132,-12.44918 0.87235,-4.278 1.82913,-8.57367 2.12619,-9.54594 0.69649,-2.27966 0.68701,-3.32597 -0.0374,-4.12641 -0.72083,-0.79651 -1.59124,-0.81908 -3.02354,-0.0784 -5.19946,2.68874 -15.2595,17.67779 -15.71445,23.4139 -0.0874,1.10227 -0.0199,2.20647 0.15017,2.45379 0.17001,0.24731 1.01353,0.59882 1.87447,0.78112 2.23462,0.47317 9.12236,0.18241 10.63322,-0.44887 z m 45.66114,0.12908 c 0.15498,-0.14987 0.12847,-1.50737 -0.0589,-3.01666 -0.54163,-4.36272 -4.46229,-11.67365 -9.5152,-17.74319 -5.24522,-6.30055 -8.56495,-7.956 -8.56021,-4.26873 0.004,3.2775 2.33512,16.75657 3.7557,21.71833 0.78253,2.73316 1.46287,3.397 3.71297,3.62288 2.55132,0.25611 10.31276,0.0286 10.66565,-0.31263 z"
       id="path836"
       inkscape:connector-curvature="0"
       transform="matrix(0.26458333,0,0,0.26458333,154.30721,-34.978722)" />
  </g>
</svg>
