<?xml version="1.0" encoding="UTF-8" standalone="no"?>
<!-- Created with Inkscape (http://www.inkscape.org/) -->

<svg
   xmlns:dc="http://purl.org/dc/elements/1.1/"
   xmlns:cc="http://creativecommons.org/ns#"
   xmlns:rdf="http://www.w3.org/1999/02/22-rdf-syntax-ns#"
   xmlns:svg="http://www.w3.org/2000/svg"
   xmlns="http://www.w3.org/2000/svg"
   xmlns:sodipodi="http://sodipodi.sourceforge.net/DTD/sodipodi-0.dtd"
   xmlns:inkscape="http://www.inkscape.org/namespaces/inkscape"
   width="233.98515mm"
   height="92.026413mm"
   viewBox="0 0 233.98515 92.026413"
   version="1.1"
   id="svg8"
   inkscape:version="0.92.3 (2405546, 2018-03-11)"
   sodipodi:docname="mytinerary logo.svg">
  <defs
     id="defs2">
    <inkscape:path-effect
       effect="bspline"
       id="path-effect938"
       is_visible="true"
       weight="33.333333"
       steps="2"
       helper_size="0"
       apply_no_weight="true"
       apply_with_weight="true"
       only_selected="false" />
  </defs>
  <sodipodi:namedview
     id="base"
     pagecolor="#ffffff"
     bordercolor="#666666"
     borderopacity="1.0"
     inkscape:pageopacity="0.0"
     inkscape:pageshadow="2"
     inkscape:zoom="0.7071068"
     inkscape:cx="349.3104"
     inkscape:cy="120.10075"
     inkscape:document-units="mm"
     inkscape:current-layer="layer1"
     showgrid="false"
     inkscape:window-width="1920"
     inkscape:window-height="1015"
     inkscape:window-x="0"
     inkscape:window-y="32"
     inkscape:window-maximized="1" />
  <metadata
     id="metadata5">
    <rdf:RDF>
      <cc:Work
         rdf:about="">
        <dc:format>image/svg+xml</dc:format>
        <dc:type
           rdf:resource="http://purl.org/dc/dcmitype/StillImage" />
        <dc:title />
      </cc:Work>
    </rdf:RDF>
  </metadata>
  <g
     inkscape:label="Layer 1"
     inkscape:groupmode="layer"
     id="layer1"
     style="display:inline"
     transform="translate(-154.30721,34.978722)">
    <g
       id="g987">
      <g
         id="g917">
        <g
           id="g862"
           transform="translate(195.90856,-114.9259)">
          <path
             style="fill:#dc3c12;stroke-width:0.26458332"
             d="m 162.39747,171.71871 c -5.75687,-0.73523 -10.86911,-3.2701 -15.10218,-7.48831 -3.36371,-3.3519 -5.63743,-7.18493 -6.99218,-11.78739 -0.72871,-2.47564 -1.028,-9.006 -0.54149,-11.81518 0.66579,-3.84436 2.49745,-8.13314 4.78484,-11.20357 5.40348,-7.25323 13.46824,-11.14313 22.34892,-10.77961 5.13023,0.21 9.37505,1.57271 13.5927,4.36365 9.41827,6.23233 13.89941,17.96282 11.04328,28.90854 -2.83366,10.85962 -11.69622,18.57353 -22.78389,19.83095 -2.71635,0.30805 -3.7472,0.30333 -6.35,-0.0291 z m 22.74658,-15.13639 c 0.66125,-0.48352 0.35078,-1.19994 -0.60264,-1.39062 -0.41525,-0.083 -1.37239,-0.71859 -2.12697,-1.41232 -2.11062,-1.94039 -4.46927,-3.02331 -6.98804,-3.20839 -1.77497,-0.13043 -2.1722,-0.25092 -2.69856,-0.81858 -0.55397,-0.59742 -0.88508,-0.68196 -3.23097,-0.82488 -1.43757,-0.0876 -2.80944,-0.23432 -3.04861,-0.3261 -0.23917,-0.0918 -1.12938,-1.17243 -1.97824,-2.40145 -1.57485,-2.28014 -2.37917,-2.84751 -3.14072,-2.21548 -0.2199,0.18251 -0.48272,0.24895 -0.58403,0.14764 -0.35415,-0.35415 -0.40763,-3.84711 -0.0652,-4.2597 0.27249,-0.32833 1.35487,-0.39401 6.49341,-0.39401 7.90938,0 7.83516,0.0527 5.8075,-4.12103 -1.04448,-2.14995 -3.101,-4.36193 -4.90625,-5.27713 -2.55527,-1.29544 -4.05027,-1.55867 -8.85224,-1.55867 -4.88433,0 -6.4453,0.28504 -8.93255,1.6311 -2.44867,1.32518 -5.13576,4.93412 -5.62819,7.55903 -0.32937,1.75565 -0.28807,1.7667 6.60272,1.7667 4.41686,0 6.22121,0.0888 6.44989,0.3175 0.47729,0.47729 0.4495,13.26649 -0.0297,13.66419 -0.19095,0.15848 -1.53041,0.35609 -2.97656,0.43913 -3.95099,0.22688 -7.61531,0.67786 -7.98718,0.983 -0.38575,0.31654 -0.43974,1.16633 -0.0879,1.38377 0.13355,0.0825 2.1172,-0.0295 4.40812,-0.24898 2.33149,-0.22335 6.8549,-0.39943 10.27438,-0.39995 5.79453,-7.9e-4 17.38412,0.59065 20.52886,1.04778 2.21356,0.32177 2.76566,0.30796 3.29971,-0.0825 z m -14.26594,-2.58869 c -3.16486,-0.22648 -4.09147,-0.51957 -3.31906,-1.04985 0.24842,-0.17054 1.99029,-0.22549 4.70062,-0.14829 4.30163,0.12253 5.08675,0.29773 5.08675,1.13513 0,0.41753 -1.33275,0.43051 -6.46831,0.063 z m -10.14752,-0.5452 c -0.21491,-0.21491 -0.31633,-1.43319 -0.31389,-3.77031 0.004,-3.34728 0.14321,-4.6648 0.49027,-4.62349 0.27614,0.0329 4.39374,6.39877 4.48885,6.93988 0.0484,0.27516 -0.18074,0.78629 -0.50914,1.13585 -0.50437,0.53689 -0.84874,0.63557 -2.21783,0.63557 -0.90781,0 -1.76042,-0.13966 -1.93826,-0.3175 z m -9.19034,-15.57254 c -0.76508,-1.23793 3.74539,-7.71597 4.77655,-6.86019 0.25454,0.21125 0.29431,0.48347 0.13272,0.90848 -0.12689,0.33376 -0.43301,1.72352 -0.68025,3.08836 -0.24724,1.36483 -0.56826,2.63034 -0.71337,2.81224 -0.32396,0.40608 -3.2698,0.4489 -3.51565,0.0511 z m 11.86848,-0.0396 c -0.4608,-0.59899 -1.50922,-6.56473 -1.20682,-6.86712 0.73929,-0.73929 4.57943,4.39408 4.658,6.22666 l 0.0355,0.82736 -1.61167,0.0777 c -1.08569,0.0523 -1.69761,-0.034 -1.87498,-0.26458 z m -63.29074,33.51259 c -8.111213,-1.7597 -14.916831,-7.04033 -18.398355,-14.27569 -1.973935,-4.10226 -2.801078,-7.62832 -2.792971,-11.90625 0.02294,-12.10101 7.89787,-22.42739 19.711023,-25.847 1.848103,-0.53498 2.690153,-0.61133 6.742073,-0.61133 4.04715,0 4.89512,0.0767 6.73395,0.6091 9.71248,2.81209 16.54759,9.78844 19.10444,19.49923 0.70679,2.68437 0.69582,10.03286 -0.0192,12.83229 -0.57976,2.27 -1.95423,5.55381 -3.14707,7.51884 -3.83716,6.32116 -10.66379,10.98235 -18.02439,12.30697 -2.16598,0.38979 -7.86579,0.31723 -9.90954,-0.12616 z m -1.025576,-4.68454 c 0.235606,-0.1819 0.555765,-0.81876 0.711464,-1.41525 1.120972,-4.29444 6.150002,-5.94312 9.419592,-3.08806 0.75434,0.6587 1.6223,2.16376 1.83928,3.18936 0.24509,1.15842 1.02336,1.59367 2.58524,1.4458 1.02633,-0.0972 1.25677,-0.21307 1.25677,-0.63205 0,-0.65353 -0.84502,-2.31626 -2.17323,-4.27624 -1.23999,-1.8298 -1.79552,-3.08526 -1.79552,-4.05777 0,-0.3934 -0.18426,-0.91887 -0.40946,-1.16772 -0.72692,-0.80323 -2.23637,-5.46136 -2.23637,-6.90138 0,-0.73559 -0.1731,-1.65347 -0.38467,-2.03972 -0.64395,-1.17566 -1.23539,-7.95352 -1.36487,-15.64136 -0.10453,-6.20693 -0.18476,-7.3351 -0.55034,-7.73907 -1.15331,-1.27439 -1.49618,-0.0893 -1.54718,5.34794 -0.0806,8.58833 -0.80586,16.73972 -1.63343,18.35739 -0.21457,0.41943 -0.3365,1.12802 -0.27095,1.57464 0.17575,1.19745 -1.05356,5.25295 -2.01007,6.63125 -0.29253,0.42153 -0.625891,1.36116 -0.740802,2.08808 -0.141166,0.89301 -0.597881,1.90139 -1.408189,3.10914 -1.642279,2.44777 -2.61878,4.39035 -2.440495,4.85495 0.13699,0.35699 0.780952,0.54933 2.180111,0.65115 0.299609,0.0218 0.737512,-0.10918 0.973119,-0.29108 z m 4.789036,-10.66641 c -0.21039,-0.54826 0.12726,-3.76439 0.4606,-4.38724 0.34338,-0.64161 1.72528,-0.6602 2.05192,-0.0276 0.13149,0.25466 0.39425,1.25963 0.5839,2.23326 0.43644,2.24062 0.21243,2.59538 -1.63881,2.59538 -0.93405,0 -1.34342,-0.11621 -1.45761,-0.4138 z m -124.443352,14.72188 c -3.889734,-0.90282 -6.431926,-1.98863 -9.609797,-4.10448 -5.057205,-3.36713 -8.991799,-9.0475 -10.682192,-15.42188 -0.897818,-3.38562 -1.002599,-9.05806 -0.228618,-12.37651 2.907065,-12.46404 13.538336,-20.97537 26.076857,-20.87698 5.4696783,0.0429 10.1179945,1.47427 14.8155709,4.56211 1.8999993,1.24892 5.4338033,4.78122 6.7927535,6.78987 7.3479476,10.86091 6.0460626,25.07525 -3.1377783,34.25909 -3.78576932,3.78577 -8.292642,6.16536 -13.7630371,7.26677 -2.724994,0.54864 -7.681669,0.50133 -10.263759,-0.098 z m 11.2485276,-12.40986 c 1.8065326,-0.66149 3.2510411,-1.61538 4.4413141,-2.93287 1.3373417,-1.48028 1.5117418,-2.03582 1.4871858,-4.73726 -0.01778,-1.95505 -0.062651,-2.17946 -0.3008047,-1.50413 -0.1539558,0.43656 -0.3329464,0.85328 -0.3977587,0.92604 -0.06481,0.0728 -1.1498368,0.19733 -2.4111717,0.27681 -1.8897837,0.11909 -2.6075295,0.30004 -4.0788724,1.02831 -3.792828,1.87736 -5.53681,5.12668 -3.618118,6.74116 1.007197,0.8475 2.901071,0.9259 4.8782256,0.20194 z m -16.1148906,-0.9142 c 1.67819,-0.85704 2.869315,-1.84681 3.847413,-3.19704 0.689782,-0.95221 0.754367,-1.23556 0.754367,-3.3095 0,-2.12828 -0.0254,-2.23188 -0.411877,-1.6801 -0.343053,0.48978 -0.663588,0.58856 -1.918229,0.59118 -1.635834,0.003 -3.689563,0.46834 -4.945935,1.11968 -2.122208,1.10021 -4.341681,3.80528 -4.359814,5.31368 -0.0032,0.26585 0.357179,0.84636 0.800835,1.29002 0.787349,0.78735 0.855391,0.80372 2.844271,0.68442 1.500105,-0.09 2.394105,-0.30427 3.388969,-0.81234 z m 5.398269,-11.10519 c 0.173288,-1.05455 0.421851,-2.21502 0.552362,-2.57883 0.130509,-0.3638 0.3521,-1.37583 0.492421,-2.24896 0.523304,-3.25612 0.955429,-4.92573 1.337374,-5.16722 0.525997,-0.33258 14.8467994,-0.33139 15.7218373,0.001 0.8245951,0.31351 0.8430842,0.68485 0.1763633,3.54226 -0.7196984,3.08448 -0.9183846,4.60471 -0.5542782,4.24099 0.1613746,-0.1612 0.4613724,-1.23276 0.6666653,-2.38125 0.2052902,-1.14849 0.5644276,-2.86207 0.79808116,-3.80795 0.23365618,-0.94589 0.52885179,-2.25557 0.65599466,-2.91042 0.12714287,-0.65484 0.35644136,-1.60656 0.50955308,-2.11492 0.40013466,-1.32852 0.34535797,-2.30068 -0.14012861,-2.48698 -0.2301822,-0.0883 -4.14079249,-0.16062 -8.69024189,-0.16062 -9.5515951,0 -8.9893771,-0.15969 -9.4098181,2.67277 -0.722588,4.86796 -1.069277,6.84063 -1.316485,7.49084 -0.150299,0.39532 -0.273272,1.01995 -0.273272,1.38806 0,0.36812 -0.229579,1.4617 -0.510175,2.43018 -0.555347,1.91677 -0.871342,4.34185 -0.538991,4.13645 0.114216,-0.0706 0.349449,-0.99116 0.522738,-2.04572 z m 4.948274,-11.28556 c -1.809451,-0.15799 -2.597335,-0.63194 -2.01635,-1.21293 0.167196,-0.1672 3.160506,-0.2668 8.0181103,-0.2668 6.3501294,0 7.834127,0.0687 8.20943844,0.38021 0.42963833,0.35657 0.41982758,0.40967 -0.15777364,0.85402 -0.5525373,0.42506 -1.214718,0.47012 -6.4367302,0.43805 -3.2014579,-0.0197 -6.6289709,-0.10631 -7.6166949,-0.19255 z m 12.4073199,11.05244 c 0.1381046,-2.00889 -0.2604717,-1.37795 -0.511085,0.80903 -0.1156097,1.00888 -0.081336,1.35185 0.1154324,1.15508 0.1539266,-0.15392 0.3319701,-1.03778 0.3956526,-1.96411 z m 42.3052061,24.46975 c -7.667937,-1.17735 -15.352018,-6.78057 -19.159875,-13.97135 -1.113729,-2.10317 -2.271162,-5.62869 -2.67693,-8.15387 -0.656262,-4.08407 -0.0736,-9.81206 1.407544,-13.83721 2.215314,-6.02033 7.243611,-11.48513 13.24901,-14.39915 4.243623,-2.05915 6.33759,-2.51534 11.545876,-2.51534 3.763417,0 4.675854,0.0856 6.614583,0.62027 9.50314,2.62099 16.486026,9.67865 19.104781,19.30936 0.843405,3.1017 0.838685,9.85394 -0.0092,13.14329 -1.946346,7.55092 -7.210477,14.03304 -14.153358,17.42807 -3.976976,1.94473 -5.703665,2.33321 -10.763067,2.42157 -2.401094,0.0419 -4.722812,0.0214 -5.159375,-0.0456 z m 9.0615,-12.40524 c 0.571709,-0.40044 0.956194,-1.42644 1.256469,-3.35292 0.10626,-0.68173 0.392359,-1.15173 0.937297,-1.53976 1.267585,-0.90259 1.405083,-1.40281 0.618818,-2.2512 -0.932878,-1.00659 -0.709959,-2.07358 0.690454,-3.3048 1.188736,-1.04512 1.306521,-1.54112 0.532337,-2.24175 -0.639461,-0.5787 -0.653936,-1.41991 -0.05457,-3.1709 0.439491,-1.28392 0.538969,-1.37145 3.758731,-3.3073 3.056499,-1.83768 3.307292,-2.04865 3.307292,-2.78221 0,-1.16502 -0.824566,-1.14246 -4.36186,0.11937 -1.65169,0.58919 -3.370024,1.06847 -3.818522,1.06507 -0.448498,-0.003 -1.406647,-0.33082 -2.129218,-0.7276 -1.056294,-0.58004 -1.348883,-0.89475 -1.492952,-1.60583 -0.269528,-1.33033 -0.551124,-1.49325 -1.918991,-1.11027 -1.046173,0.29291 -1.278307,0.27474 -2.009745,-0.15733 -0.772391,-0.45627 -0.914234,-0.71647 -1.134581,-2.08133 -0.07577,-0.46934 -0.257173,-0.51993 -1.604545,-0.44746 -1.296088,0.0697 -1.726787,-0.0371 -2.933641,-0.7276 -1.545686,-0.88436 -2.433815,-1.00701 -3.205557,-0.4427 -0.386347,0.28251 -0.443479,0.48922 -0.249007,0.901 0.138803,0.2939 2.074886,2.462 4.302405,4.81799 3.347167,3.54021 4.035928,4.40191 3.96875,4.96528 -0.06755,0.56648 -0.595397,0.96989 -3.123994,2.38751 -4.371681,2.45092 -4.051808,2.39721 -6.740207,1.1318 -2.684703,-1.26368 -3.465986,-1.34838 -3.888287,-0.42153 -0.318757,0.6996 -0.347888,0.64285 1.999429,3.89507 0.648412,0.89837 0.983036,1.74142 1.207723,3.04271 0.373869,2.1653 0.851887,2.99064 1.732105,2.99064 0.799502,0 1.21349,-0.75474 1.839658,-3.35389 0.25158,-1.04427 0.67717,-2.09755 0.945756,-2.34062 0.550199,-0.49792 6.999473,-3.03674 7.714133,-3.03674 0.8948,0 1.031796,0.63741 1.674773,7.79235 0.265647,2.95605 0.538901,4.69239 0.801542,5.09323 0.470604,0.71823 0.611198,0.73881 1.378,0.20172 z m 88.305166,-32.36499 c -1.59954,-0.98803 -1.85303,-1.49771 -1.84166,-3.703 0.009,-1.78783 0.11588,-2.21919 0.91942,-3.71859 0.90198,-1.68308 3.56504,-4.60735 6.67692,-7.33184 1.14022,-0.99827 1.52136,-1.50908 1.52136,-2.03896 0,-0.90892 -0.25352,-0.89138 -1.18613,0.082 -0.41578,0.43398 -1.25607,0.98004 -1.86731,1.21348 -1.05194,0.40174 -1.16624,0.39623 -2.13782,-0.10304 -1.73991,-0.89409 -2.08543,-1.90926 -2.08103,-6.11421 0.004,-4.182328 0.74042,-7.581974 1.9514,-9.013102 0.82096,-0.970211 2.2639,-1.305374 3.06101,-0.711003 0.4759,0.354864 0.49408,0.513121 0.22258,1.937106 -1.1944,6.264459 -1.39688,7.748159 -1.14706,8.405229 0.14347,0.37734 0.4318,0.68607 0.64075,0.68607 1.08201,0 2.98843,-3.63422 4.39135,-8.371245 0.30769,-1.038924 0.77696,-2.08581 1.04282,-2.326414 0.74622,-0.675318 2.21867,-0.82406 2.76357,-0.279166 0.49714,0.497142 0.47564,0.975423 -0.23178,5.15599 -0.70421,4.161555 -1.16505,7.003945 -1.32982,8.202085 -1.07282,7.80106 -3.38076,14.59546 -5.74948,16.92606 -1.62049,1.5944 -4.05078,2.07124 -5.61909,1.1025 z m 3.35987,-3.67491 c 0.86188,-0.9212 1.41519,-2.01872 2.06883,-4.10368 0.55216,-1.76127 0.67616,-3.10622 0.28639,-3.10622 -0.47399,0 -3.03589,3.07436 -3.63792,4.36562 -0.67593,1.44976 -0.79854,2.7603 -0.30446,3.25438 0.48114,0.48114 0.84008,0.38839 1.58716,-0.4101 z M 13.569347,121.45967 c -1.144617,-0.34365 -2.563188,-1.66318 -3.063391,-2.84949 -1.0203441,-2.41992 0.227759,-6.1061 2.818236,-8.32346 1.704253,-1.45878 4.554331,-3.04177 8.050363,-4.47134 1.017677,-0.41614 1.698374,-0.87784 1.896393,-1.28628 0.399709,-0.82445 0.569301,-3.99313 0.220274,-4.11559 -0.145521,-0.0511 -0.588569,0.48402 -0.984552,1.18906 -0.900287,1.60294 -2.652173,3.23582 -4.447963,4.14582 -1.138661,0.577 -1.737424,0.6989 -3.433048,0.6989 -3.462374,0 -5.1297706,-1.27831 -6.0011996,-4.60083 C 8.1268099,99.949067 8.2254862,98.809949 9.3296612,93.705512 10.892285,86.481737 10.903808,86.34679 10.043375,85.346477 L 9.427819,84.630851 8.1949216,85.101699 c -0.8666692,0.330983 -1.7796298,1.050041 -3.073429,2.420664 -1.0122931,1.072398 -2.0113783,1.949815 -2.2201901,1.949815 -0.6073907,0 -1.0265383,-0.70466 -1.0265383,-1.725784 0,-1.728989 2.566318,-4.793095 5.1229946,-6.116699 1.2157577,-0.629404 1.7321794,-0.732874 3.7122702,-0.743793 2.272716,-0.01253 2.311308,-0.0018 3.246258,0.90407 0.537985,0.521243 1.071883,1.377352 1.237517,1.984376 0.349509,1.28089 0.119565,5.647761 -0.410334,7.792629 -1.76316,7.136705 -1.863122,8.883653 -0.571889,9.994323 0.856572,0.73679 2.423252,0.81323 3.751323,0.18302 3.421131,-1.62344 6.87493,-9.140692 7.643481,-16.636177 0.242986,-2.36979 0.816518,-3.808933 1.6432,-4.123238 1.037559,-0.394479 2.074307,-0.282593 2.820538,0.304393 0.618662,0.48664 0.697164,0.73236 0.697346,2.182813 1.12e-4,0.898943 -0.169523,2.586942 -0.376967,3.751109 -0.207444,1.164166 -0.578094,3.545416 -0.823667,5.291667 -0.24557,1.74625 -0.670769,4.60375 -0.944882,6.35 -0.274117,1.746253 -0.498872,3.518103 -0.499457,3.937443 -0.0011,0.734 0.03595,0.75631 0.991121,0.59808 2.503858,-0.41476 4.639239,-0.93299 4.893932,-1.18769 0.1534,-0.15339 0.320117,-1.16353 0.37048,-2.24475 0.09946,-2.135085 -0.01064,-2.351616 -1.360329,-2.675371 -1.159975,-0.278249 -1.456687,-0.62747 -1.456687,-1.714484 0,-1.179071 0.374946,-1.602027 1.441979,-1.626616 1.614961,-0.03722 1.778109,-0.240752 2.545691,-3.175868 1.221507,-4.670861 2.357782,-7.133527 4.182282,-9.064323 1.239353,-1.311557 2.131084,-1.76413 3.475969,-1.76413 1.403892,0 1.921264,0.293785 2.628601,1.492629 0.468939,0.794797 0.575016,1.383294 0.568444,3.153711 -0.01061,2.862171 -0.735166,4.876553 -2.579714,7.172147 -1.418707,1.76562 -1.197549,2.107108 1.468136,2.266946 1.445688,0.08669 1.845003,0.594191 1.369933,1.741109 -0.457116,1.103573 -1.44816,1.428898 -4.914863,1.613375 l -2.910417,0.154875 v 3.30729 c 0,4.05743 0.434602,5.26984 2.03037,5.66414 0.82577,0.20403 1.191514,0.12913 2.430585,-0.49778 2.051761,-1.0381 2.7994,-0.62291 2.429438,1.34914 -0.236082,1.25843 -1.420093,2.3101 -3.248147,2.88509 -2.791571,0.87806 -5.427799,-0.30865 -6.829207,-3.07419 -0.793258,-1.56542 -0.940216,-1.65673 -1.87873,-1.16725 -0.415327,0.21661 -1.052798,0.39738 -1.4166,0.4017 -0.690195,0.008 -4.325228,0.91578 -4.770789,1.19115 -0.140962,0.0871 -0.256294,0.39942 -0.256294,0.69401 0,0.70783 -0.96869,4.54412 -1.527098,6.04774 -1.128329,3.03826 -3.165658,5.43147 -5.575499,6.54943 -1.610751,0.74725 -5.073295,1.04234 -6.655736,0.56723 z m 5.305372,-3.81645 c 1.359048,-0.7028 2.611138,-2.85095 3.31153,-5.68146 0.547486,-2.21257 0.500634,-2.64583 -0.286118,-2.64583 -0.365776,0 -0.871791,0.10948 -1.124479,0.2433 -0.252687,0.13381 -0.995211,0.50307 -1.650055,0.82056 -4.535937,2.19923 -6.313278,6.53961 -3.175,7.75356 0.536075,0.20736 2.073722,-0.0504 2.924122,-0.49013 z M 40.978298,91.247797 c 1.204614,-1.640097 1.92894,-3.461146 2.109451,-5.303441 0.178502,-1.821754 -0.201914,-2.723993 -1.016698,-2.411331 -1.272109,0.488154 -3.399271,8.875364 -2.241809,8.839251 0.181901,-0.0057 0.698976,-0.511691 1.149056,-1.124479 z m -75.49697,18.864783 -0.859896,-0.52429 v -2.44524 c 0,-1.34488 0.17272,-3.34093 0.383821,-4.43566 0.646606,-3.353178 1.869664,-11.572921 2.128223,-14.303035 0.386879,-4.085046 -1.432653,-4.427537 -4.90432,-0.923144 -1.084805,1.095032 -2.102968,1.990967 -2.262583,1.990967 -0.459309,0 -1.165974,-0.915094 -1.165974,-1.509876 0,-1.686471 2.81223,-5.102411 5.291667,-6.427645 1.622085,-0.866988 4.923968,-0.942024 5.820459,-0.132271 1.08402,0.979139 1.587874,2.356112 1.587874,4.33947 0,1.015855 0.113604,1.91722 0.252453,2.003033 0.138849,0.08581 0.568619,-0.489671 0.955045,-1.278855 0.927842,-1.894901 2.729883,-3.921593 4.284034,-4.818107 1.072201,-0.6185 1.570678,-0.727833 3.416808,-0.749426 1.798847,-0.02104 2.287117,0.06712 2.910417,0.525514 1.122574,0.825568 2.189887,2.931082 2.202029,4.343996 0.0176,2.048355 0.343625,2.066099 1.524201,0.08296 1.249968,-2.099711 2.676636,-3.608119 4.1664703,-4.405187 0.8419782,-0.450463 1.5194094,-0.566862 3.3137606,-0.569388 2.5474796,-0.0036 3.3091145,0.375122 4.4239469,2.199721 0.51403249,0.841298 0.59413773,1.339378 0.59531248,3.701542 7.9375e-4,1.780707 -0.18618199,3.574064 -0.53817571,5.159375 -0.29674347,1.336466 -0.72559857,3.322907 -0.95301587,4.414313 -0.2274173,1.091406 -0.5799402,2.723219 -0.7833863,3.626251 -0.203446,0.903032 -0.3699007,2.370702 -0.3699007,3.261492 0,1.43734 0.087048,1.70667 0.7733982,2.39302 1.34324724,1.34325 3.3369858,0.85188 5.4443099,-1.34179 1.3776404,-1.43409 1.8467334,-1.68126 2.5135416,-1.32439 0.6408049,0.34295 0.718005,1.78423 0.1530508,2.85741 -0.4222114,0.80202 -2.5680034,2.91134 -3.6217699,3.56021 -3.01456452,1.85626 -7.141223,1.35205 -8.9091767,-1.08854 -1.5182399,-2.09587 -1.6549025,-5.2452 -0.4551389,-10.488455 0.1997896,-0.873125 0.6160479,-2.778125 0.9250204,-4.233333 0.3089751,-1.455208 0.6738937,-3.145041 0.8109346,-3.755184 0.7495937,-3.337406 -0.1243065,-4.915472 -2.4776032,-4.473991 -3.3449335,0.627513 -7.0362785,9.492012 -8.3861535,20.138743 -0.384609,3.03349 -0.772075,4.09236 -1.705861,4.6618 -1.136211,0.69288 -1.917528,0.61532 -2.811987,-0.27914 -0.646377,-0.64638 -0.773398,-0.98839 -0.773398,-2.0824 0,-1.28006 0.676344,-5.75268 1.42861,-9.447328 0.914365,-4.490758 1.296106,-7.301355 1.321863,-9.732281 0.03107,-2.932465 -0.207528,-3.364594 -1.857777,-3.364594 -1.273638,0 -1.958318,0.344509 -3.228162,1.624308 -2.539809,2.559723 -5.451831,10.894999 -6.27273,17.954855 -0.09306,0.80037 -0.341696,2.23574 -0.552516,3.18972 -0.314653,1.42383 -0.51924,1.8148 -1.142225,2.18281 -0.983577,0.58102 -1.542221,0.56424 -2.5955,-0.078 z m 82.567293,0.25984 c -1.026166,-0.41346 -1.16662,-1.06496 -0.895157,-4.15227 0.292605,-3.32777 1.167558,-8.405772 1.753306,-10.175725 0.592691,-1.790933 2.423525,-2.599982 3.762036,-1.662452 0.323422,0.226533 0.588039,0.661137 0.588039,0.965787 0,0.529569 -0.490974,3.342833 -1.075568,6.16296 -0.150828,0.7276 -0.387043,2.59455 -0.524923,4.14878 -0.301511,3.39875 -0.517636,4.03594 -1.550003,4.5698 -0.885274,0.45779 -1.219094,0.48101 -2.05773,0.14312 z m 8.912391,-0.0703 c -1.270402,-0.63172 -1.715058,-2.08647 -1.716712,-5.61641 -0.0021,-4.49942 0.950397,-8.897558 2.157891,-9.963946 0.672182,-0.593632 2.061613,-0.846851 2.718303,-0.495401 0.676487,0.362045 0.678246,0.890922 0.0122,3.669221 -0.29083,1.213139 -0.459861,2.317216 -0.375629,2.453506 0.08423,0.1363 0.6907,-0.558616 1.347708,-1.544245 1.518899,-2.278628 2.296369,-3.094741 3.772072,-3.959561 1.628868,-0.954581 3.307866,-0.988377 4.046337,-0.08145 0.485798,0.596616 0.521935,0.89489 0.368649,3.042708 -0.09347,1.309688 -0.345845,3.452818 -0.560835,4.762498 -0.214987,1.30969 -0.392967,3.21469 -0.395507,4.23334 -0.006,2.42083 -0.145142,2.8596 -1.082064,3.41305 -0.993822,0.58707 -2.157084,0.3615 -2.880854,-0.55863 -0.642171,-0.81639 -0.677291,-2.21485 -0.131493,-5.23567 0.513469,-2.84188 0.517112,-4.894796 0.0087,-4.894796 -0.934937,0 -3.091733,4.260036 -4.271293,8.436516 -0.377814,1.33773 -0.645297,1.79214 -1.284308,2.18182 -0.952466,0.58083 -0.892654,0.5754 -1.733151,0.15745 z m 19.099704,-0.15225 c -1.606312,-0.49952 -2.949567,-1.6574 -3.810505,-3.28463 -0.499052,-0.94324 -0.593903,-1.54115 -0.597599,-3.76703 -0.0038,-2.3005 0.08525,-2.83734 0.682403,-4.113115 1.466572,-3.133218 3.88145,-4.844456 6.870559,-4.868635 1.511324,-0.01223 1.86926,0.08371 2.713088,0.727198 1.294903,0.987464 1.836581,2.110683 1.821606,3.777251 -0.02574,2.863971 -1.928961,4.965061 -5.61259,6.196081 -1.642909,0.54904 -1.749266,1.31589 -0.274725,1.98081 1.555522,0.70145 2.892462,0.24519 4.723503,-1.61199 1.496219,-1.51758 1.88296,-1.67119 2.543781,-1.01037 1.545584,1.54559 -1.171634,5.20652 -4.481465,6.03792 -2.047663,0.51436 -2.751275,0.5046 -4.578056,-0.0635 z m 2.238023,-8.5417 c 1.054621,-0.63802 1.681022,-1.58778 1.681022,-2.548776 0,-0.972039 -0.436025,-1.385142 -1.462005,-1.385142 -1.213919,0 -2.240878,1.241605 -2.60273,3.146728 -0.31369,1.65156 0.506989,1.92258 2.383713,0.78719 z m 9.675881,8.61773 c -0.32425,-0.22712 -0.795909,-0.79266 -1.048126,-1.25677 -0.984319,-1.81126 -0.342283,-10.920719 0.938345,-13.313594 0.734734,-1.372865 2.625066,-2.073752 3.610671,-1.338745 0.484883,0.361598 0.494699,0.484653 0.165057,2.069398 -0.53707,2.581957 -0.643731,3.933901 -0.310364,3.933901 0.160173,0 0.291224,-0.16148 0.291224,-0.358832 0,-0.398745 1.487218,-2.469405 2.751947,-3.831546 1.681015,-1.81049 4.296611,-2.542096 5.427951,-1.518246 0.445095,0.402805 0.551355,0.813121 0.551355,2.129068 0,1.530421 0.0566,1.680235 0.92604,2.449957 1.17516,1.040409 1.21241,1.977789 0.13754,3.461609 -1.527572,2.10875 -3.380526,2.61506 -4.708909,1.28667 -0.617881,-0.61788 -0.722278,-0.9446 -0.736412,-2.30467 -0.009,-0.8716 -0.148765,-1.717019 -0.310462,-1.878715 -0.780553,-0.780552 -3.112154,3.350355 -4.336648,7.683255 -0.52388,1.85377 -0.76051,2.30483 -1.422193,2.71099 -0.967997,0.59418 -1.175843,0.60241 -1.927016,0.0763 z m 18.20676,-0.006 c -1.29156,-0.56021 -1.85399,-1.12817 -2.42341,-2.44725 -0.63362,-1.46782 -0.66041,-4.5869 -0.0556,-6.47679 1.17192,-3.662093 4.49162,-6.804252 7.64542,-7.236528 0.98921,-0.135586 1.34726,-0.06192 1.9828,0.407951 0.42657,0.31538 1.16363,0.644698 1.6379,0.731818 0.47428,0.08712 1.13021,0.325231 1.45763,0.529136 0.7269,0.452679 0.78331,1.661329 0.19954,4.275053 -0.21768,0.97462 -0.4925,3.46382 -0.61071,5.53157 -0.23475,4.10621 -0.44424,4.6511 -1.91205,4.97349 -0.83819,0.1841 -2.21677,-0.4033 -2.46505,-1.05033 -0.17999,-0.46903 -1.11336,-0.54648 -1.38031,-0.11453 -0.2228,0.36049 -2.2192,1.28541 -2.7611,1.2792 -0.21828,-0.002 -0.81005,-0.18376 -1.31505,-0.40279 z m 4.04378,-4.06851 c 0.77157,-0.91697 1.28402,-2.29251 1.87669,-5.03753 0.73824,-3.419233 0.48868,-4.162881 -1.11815,-3.331957 -1.89941,0.982233 -3.48727,4.069407 -3.48727,6.780087 0,1.30071 0.0942,1.61496 0.58804,1.96083 0.86015,0.60247 1.40003,0.5088 2.14069,-0.37142 z m 10.99552,4.08608 c -1.14739,-0.6197 -1.55342,-2.09917 -1.55342,-5.66025 0,-3.44902 0.72035,-7.727648 1.53786,-9.134294 0.30761,-0.529284 0.86054,-0.947327 1.59048,-1.202473 2.05183,-0.717206 2.53593,0.262112 1.75945,3.559312 -0.67407,2.862345 -0.45583,3.165395 0.84185,1.16902 1.80771,-2.781019 3.61785,-4.376706 5.48968,-4.839301 1.77119,-0.437722 3.01768,0.965429 2.67253,3.008399 -0.16977,1.004832 -0.11538,1.143104 0.76793,1.95218 1.11465,1.020977 1.25545,2.129607 0.43836,3.451687 -1.29132,2.08939 -3.75666,2.77106 -4.96045,1.37157 -0.50219,-0.58383 -0.61269,-1.01698 -0.61269,-2.40172 0,-1.01441 -0.12497,-1.766657 -0.31278,-1.882727 -0.83436,-0.515669 -3.2046,3.762257 -4.42495,7.986377 -0.73404,2.54081 -1.7937,3.40005 -3.23385,2.62223 z M 50.061494,90.815447 c -1.229582,-1.22958 -0.932908,-2.92711 0.699651,-4.003299 1.330817,-0.877282 3.575523,-0.541168 4.409879,0.660319 0.235127,0.338588 0.254537,1.646269 0.03651,2.459741 -0.239834,0.894833 -1.67767,1.656637 -3.126748,1.656637 -1.024263,0 -1.383472,-0.137579 -2.019289,-0.773398 z"
             id="path866"
             inkscape:connector-curvature="0" />
          <path
             style="fill:#3d5058;stroke-width:0.26458332"
             d="m 162.39747,171.71871 c -5.75687,-0.73523 -10.86911,-3.2701 -15.10218,-7.48831 -3.36371,-3.3519 -5.63743,-7.18493 -6.99218,-11.78739 -0.72871,-2.47564 -1.028,-9.006 -0.54149,-11.81518 0.66579,-3.84436 2.49745,-8.13314 4.78484,-11.20357 5.40348,-7.25323 13.46824,-11.14313 22.34892,-10.77961 5.13023,0.21 9.37505,1.57271 13.5927,4.36365 9.41827,6.23233 13.89941,17.96282 11.04328,28.90854 -2.83366,10.85962 -11.69622,18.57353 -22.78389,19.83095 -2.71635,0.30805 -3.7472,0.30333 -6.35,-0.0291 z m 22.74658,-15.13639 c 0.66125,-0.48352 0.35078,-1.19994 -0.60264,-1.39062 -0.41525,-0.083 -1.37239,-0.71859 -2.12697,-1.41232 -2.11062,-1.94039 -4.46927,-3.02331 -6.98804,-3.20839 -1.77497,-0.13043 -2.1722,-0.25092 -2.69856,-0.81858 -0.55397,-0.59742 -0.88508,-0.68196 -3.23097,-0.82488 -1.43757,-0.0876 -2.80944,-0.23432 -3.04861,-0.3261 -0.23917,-0.0918 -1.12938,-1.17243 -1.97824,-2.40145 -1.57485,-2.28014 -2.37917,-2.84751 -3.14072,-2.21548 -0.2199,0.18251 -0.48272,0.24895 -0.58403,0.14764 -0.35415,-0.35415 -0.40763,-3.84711 -0.0652,-4.2597 0.27249,-0.32833 1.35487,-0.39401 6.49341,-0.39401 7.90938,0 7.83516,0.0527 5.8075,-4.12103 -1.04448,-2.14995 -3.101,-4.36193 -4.90625,-5.27713 -2.55527,-1.29544 -4.05027,-1.55867 -8.85224,-1.55867 -4.88433,0 -6.4453,0.28504 -8.93255,1.6311 -2.44867,1.32518 -5.13576,4.93412 -5.62819,7.55903 -0.32937,1.75565 -0.28807,1.7667 6.60272,1.7667 4.41686,0 6.22121,0.0888 6.44989,0.3175 0.47729,0.47729 0.4495,13.26649 -0.0297,13.66419 -0.19095,0.15848 -1.53041,0.35609 -2.97656,0.43913 -3.95099,0.22688 -7.61531,0.67786 -7.98718,0.983 -0.38575,0.31654 -0.43974,1.16633 -0.0879,1.38377 0.13355,0.0825 2.1172,-0.0295 4.40812,-0.24898 2.33149,-0.22335 6.8549,-0.39943 10.27438,-0.39995 5.79453,-7.9e-4 17.38412,0.59065 20.52886,1.04778 2.21356,0.32177 2.76566,0.30796 3.29971,-0.0825 z m -14.26594,-2.58869 c -3.16486,-0.22648 -4.09147,-0.51957 -3.31906,-1.04985 0.24842,-0.17054 1.99029,-0.22549 4.70062,-0.14829 4.30163,0.12253 5.08675,0.29773 5.08675,1.13513 0,0.41753 -1.33275,0.43051 -6.46831,0.063 z m -10.14752,-0.5452 c -0.21491,-0.21491 -0.31633,-1.43319 -0.31389,-3.77031 0.004,-3.34728 0.14321,-4.6648 0.49027,-4.62349 0.27614,0.0329 4.39374,6.39877 4.48885,6.93988 0.0484,0.27516 -0.18074,0.78629 -0.50914,1.13585 -0.50437,0.53689 -0.84874,0.63557 -2.21783,0.63557 -0.90781,0 -1.76042,-0.13966 -1.93826,-0.3175 z m -9.19034,-15.57254 c -0.76508,-1.23793 3.74539,-7.71597 4.77655,-6.86019 0.25454,0.21125 0.29431,0.48347 0.13272,0.90848 -0.12689,0.33376 -0.43301,1.72352 -0.68025,3.08836 -0.24724,1.36483 -0.56826,2.63034 -0.71337,2.81224 -0.32396,0.40608 -3.2698,0.4489 -3.51565,0.0511 z m 11.86848,-0.0396 c -0.4608,-0.59899 -1.50922,-6.56473 -1.20682,-6.86712 0.73929,-0.73929 4.57943,4.39408 4.658,6.22666 l 0.0355,0.82736 -1.61167,0.0777 c -1.08569,0.0523 -1.69761,-0.034 -1.87498,-0.26458 z m -63.29074,33.51259 c -8.111213,-1.7597 -14.916831,-7.04033 -18.398355,-14.27569 -1.973935,-4.10226 -2.801078,-7.62832 -2.792971,-11.90625 0.02294,-12.10101 7.89787,-22.42739 19.711023,-25.847 1.848103,-0.53498 2.690153,-0.61133 6.742073,-0.61133 4.04715,0 4.89512,0.0767 6.73395,0.6091 9.71248,2.81209 16.54759,9.78844 19.10444,19.49923 0.70679,2.68437 0.69582,10.03286 -0.0192,12.83229 -0.57976,2.27 -1.95423,5.55381 -3.14707,7.51884 -3.83716,6.32116 -10.66379,10.98235 -18.02439,12.30697 -2.16598,0.38979 -7.86579,0.31723 -9.90954,-0.12616 z m -1.025576,-4.68454 c 0.235606,-0.1819 0.555765,-0.81876 0.711464,-1.41525 1.120972,-4.29444 6.150002,-5.94312 9.419592,-3.08806 0.75434,0.6587 1.6223,2.16376 1.83928,3.18936 0.24509,1.15842 1.02336,1.59367 2.58524,1.4458 1.02633,-0.0972 1.25677,-0.21307 1.25677,-0.63205 0,-0.65353 -0.84502,-2.31626 -2.17323,-4.27624 -1.23999,-1.8298 -1.79552,-3.08526 -1.79552,-4.05777 0,-0.3934 -0.18426,-0.91887 -0.40946,-1.16772 -0.72692,-0.80323 -2.23637,-5.46136 -2.23637,-6.90138 0,-0.73559 -0.1731,-1.65347 -0.38467,-2.03972 -0.64395,-1.17566 -1.23539,-7.95352 -1.36487,-15.64136 -0.10453,-6.20693 -0.18476,-7.3351 -0.55034,-7.73907 -1.15331,-1.27439 -1.49618,-0.0893 -1.54718,5.34794 -0.0806,8.58833 -0.80586,16.73972 -1.63343,18.35739 -0.21457,0.41943 -0.3365,1.12802 -0.27095,1.57464 0.17575,1.19745 -1.05356,5.25295 -2.01007,6.63125 -0.29253,0.42153 -0.625891,1.36116 -0.740802,2.08808 -0.141166,0.89301 -0.597881,1.90139 -1.408189,3.10914 -1.642279,2.44777 -2.61878,4.39035 -2.440495,4.85495 0.13699,0.35699 0.780952,0.54933 2.180111,0.65115 0.299609,0.0218 0.737512,-0.10918 0.973119,-0.29108 z m 4.789036,-10.66641 c -0.21039,-0.54826 0.12726,-3.76439 0.4606,-4.38724 0.34338,-0.64161 1.72528,-0.6602 2.05192,-0.0276 0.13149,0.25466 0.39425,1.25963 0.5839,2.23326 0.43644,2.24062 0.21243,2.59538 -1.63881,2.59538 -0.93405,0 -1.34342,-0.11621 -1.45761,-0.4138 z m -124.443352,14.72188 c -3.889734,-0.90282 -6.431926,-1.98863 -9.609797,-4.10448 -5.057205,-3.36713 -8.991799,-9.0475 -10.682192,-15.42188 -0.897818,-3.38562 -1.002599,-9.05806 -0.228618,-12.37651 2.907065,-12.46404 13.538336,-20.97537 26.076857,-20.87698 5.4696783,0.0429 10.1179945,1.47427 14.8155709,4.56211 1.8999993,1.24892 5.4338033,4.78122 6.7927535,6.78987 7.3479476,10.86091 6.0460626,25.07525 -3.1377783,34.25909 -3.78576932,3.78577 -8.292642,6.16536 -13.7630371,7.26677 -2.724994,0.54864 -7.681669,0.50133 -10.263759,-0.098 z m 11.2485276,-12.40986 c 1.8065326,-0.66149 3.2510411,-1.61538 4.4413141,-2.93287 1.3373417,-1.48028 1.5117418,-2.03582 1.4871858,-4.73726 -0.01778,-1.95505 -0.062651,-2.17946 -0.3008047,-1.50413 -0.1539558,0.43656 -0.3329464,0.85328 -0.3977587,0.92604 -0.06481,0.0728 -1.1498368,0.19733 -2.4111717,0.27681 -1.8897837,0.11909 -2.6075295,0.30004 -4.0788724,1.02831 -3.792828,1.87736 -5.53681,5.12668 -3.618118,6.74116 1.007197,0.8475 2.901071,0.9259 4.8782256,0.20194 z m -16.1148906,-0.9142 c 1.67819,-0.85704 2.869315,-1.84681 3.847413,-3.19704 0.689782,-0.95221 0.754367,-1.23556 0.754367,-3.3095 0,-2.12828 -0.0254,-2.23188 -0.411877,-1.6801 -0.343053,0.48978 -0.663588,0.58856 -1.918229,0.59118 -1.635834,0.003 -3.689563,0.46834 -4.945935,1.11968 -2.122208,1.10021 -4.341681,3.80528 -4.359814,5.31368 -0.0032,0.26585 0.357179,0.84636 0.800835,1.29002 0.787349,0.78735 0.855391,0.80372 2.844271,0.68442 1.500105,-0.09 2.394105,-0.30427 3.388969,-0.81234 z m 5.398269,-11.10519 c 0.173288,-1.05455 0.421851,-2.21502 0.552362,-2.57883 0.130509,-0.3638 0.3521,-1.37583 0.492421,-2.24896 0.523304,-3.25612 0.955429,-4.92573 1.337374,-5.16722 0.525997,-0.33258 14.8467994,-0.33139 15.7218373,0.001 0.8245951,0.31351 0.8430842,0.68485 0.1763633,3.54226 -0.7196984,3.08448 -0.9183846,4.60471 -0.5542782,4.24099 0.1613746,-0.1612 0.4613724,-1.23276 0.6666653,-2.38125 0.2052902,-1.14849 0.5644276,-2.86207 0.79808116,-3.80795 0.23365618,-0.94589 0.52885179,-2.25557 0.65599466,-2.91042 0.12714287,-0.65484 0.35644136,-1.60656 0.50955308,-2.11492 0.40013466,-1.32852 0.34535797,-2.30068 -0.14012861,-2.48698 -0.2301822,-0.0883 -4.14079249,-0.16062 -8.69024189,-0.16062 -9.5515951,0 -8.9893771,-0.15969 -9.4098181,2.67277 -0.722588,4.86796 -1.069277,6.84063 -1.316485,7.49084 -0.150299,0.39532 -0.273272,1.01995 -0.273272,1.38806 0,0.36812 -0.229579,1.4617 -0.510175,2.43018 -0.555347,1.91677 -0.871342,4.34185 -0.538991,4.13645 0.114216,-0.0706 0.349449,-0.99116 0.522738,-2.04572 z m 4.948274,-11.28556 c -1.809451,-0.15799 -2.597335,-0.63194 -2.01635,-1.21293 0.167196,-0.1672 3.160506,-0.2668 8.0181103,-0.2668 6.3501294,0 7.834127,0.0687 8.20943844,0.38021 0.42963833,0.35657 0.41982758,0.40967 -0.15777364,0.85402 -0.5525373,0.42506 -1.214718,0.47012 -6.4367302,0.43805 -3.2014579,-0.0197 -6.6289709,-0.10631 -7.6166949,-0.19255 z m 12.4073199,11.05244 c 0.1381046,-2.00889 -0.2604717,-1.37795 -0.511085,0.80903 -0.1156097,1.00888 -0.081336,1.35185 0.1154324,1.15508 0.1539266,-0.15392 0.3319701,-1.03778 0.3956526,-1.96411 z m 42.3052061,24.46975 c -7.667937,-1.17735 -15.352018,-6.78057 -19.159875,-13.97135 -1.113729,-2.10317 -2.271162,-5.62869 -2.67693,-8.15387 -0.656262,-4.08407 -0.0736,-9.81206 1.407544,-13.83721 2.215314,-6.02033 7.243611,-11.48513 13.24901,-14.39915 4.243623,-2.05915 6.33759,-2.51534 11.545876,-2.51534 3.763417,0 4.675854,0.0856 6.614583,0.62027 9.50314,2.62099 16.486026,9.67865 19.104781,19.30936 0.843405,3.1017 0.838685,9.85394 -0.0092,13.14329 -1.946346,7.55092 -7.210477,14.03304 -14.153358,17.42807 -3.976976,1.94473 -5.703665,2.33321 -10.763067,2.42157 -2.401094,0.0419 -4.722812,0.0214 -5.159375,-0.0456 z m 9.0615,-12.40524 c 0.571709,-0.40044 0.956194,-1.42644 1.256469,-3.35292 0.10626,-0.68173 0.392359,-1.15173 0.937297,-1.53976 1.267585,-0.90259 1.405083,-1.40281 0.618818,-2.2512 -0.932878,-1.00659 -0.709959,-2.07358 0.690454,-3.3048 1.188736,-1.04512 1.306521,-1.54112 0.532337,-2.24175 -0.639461,-0.5787 -0.653936,-1.41991 -0.05457,-3.1709 0.439491,-1.28392 0.538969,-1.37145 3.758731,-3.3073 3.056499,-1.83768 3.307292,-2.04865 3.307292,-2.78221 0,-1.16502 -0.824566,-1.14246 -4.36186,0.11937 -1.65169,0.58919 -3.370024,1.06847 -3.818522,1.06507 -0.448498,-0.003 -1.406647,-0.33082 -2.129218,-0.7276 -1.056294,-0.58004 -1.348883,-0.89475 -1.492952,-1.60583 -0.269528,-1.33033 -0.551124,-1.49325 -1.918991,-1.11027 -1.046173,0.29291 -1.278307,0.27474 -2.009745,-0.15733 -0.772391,-0.45627 -0.914234,-0.71647 -1.134581,-2.08133 -0.07577,-0.46934 -0.257173,-0.51993 -1.604545,-0.44746 -1.296088,0.0697 -1.726787,-0.0371 -2.933641,-0.7276 -1.545686,-0.88436 -2.433815,-1.00701 -3.205557,-0.4427 -0.386347,0.28251 -0.443479,0.48922 -0.249007,0.901 0.138803,0.2939 2.074886,2.462 4.302405,4.81799 3.347167,3.54021 4.035928,4.40191 3.96875,4.96528 -0.06755,0.56648 -0.595397,0.96989 -3.123994,2.38751 -4.371681,2.45092 -4.051808,2.39721 -6.740207,1.1318 -2.684703,-1.26368 -3.465986,-1.34838 -3.888287,-0.42153 -0.318757,0.6996 -0.347888,0.64285 1.999429,3.89507 0.648412,0.89837 0.983036,1.74142 1.207723,3.04271 0.373869,2.1653 0.851887,2.99064 1.732105,2.99064 0.799502,0 1.21349,-0.75474 1.839658,-3.35389 0.25158,-1.04427 0.67717,-2.09755 0.945756,-2.34062 0.550199,-0.49792 6.999473,-3.03674 7.714133,-3.03674 0.8948,0 1.031796,0.63741 1.674773,7.79235 0.265647,2.95605 0.538901,4.69239 0.801542,5.09323 0.470604,0.71823 0.611198,0.73881 1.378,0.20172 z"
             id="path864"
             inkscape:connector-curvature="0" />
        </g>
        <path
           style="fill:none;stroke:#ffffff;stroke-width:0.49998719px;stroke-linecap:butt;stroke-linejoin:miter;stroke-opacity:1"
           d="m 195.12035,21.561788 -3.29411,15.567567 -0.72365,2.958745"
           id="path868"
           inkscape:connector-curvature="0"
           sodipodi:nodetypes="ccc" />
        <path
           style="display:inline;fill:none;stroke:#ffffff;stroke-width:0.49998719px;stroke-linecap:butt;stroke-linejoin:miter;stroke-opacity:1"
           d="m 177.83781,20.952703 -3.29411,15.567567 -0.72365,2.958745"
           id="path868-3"
           inkscape:connector-curvature="0"
           sodipodi:nodetypes="ccc" />
        <path
           style="fill:none;stroke:#ffffff;stroke-width:0.26458332px;stroke-linecap:butt;stroke-linejoin:miter;stroke-opacity:1"
           d="m 175.04161,33.620516 c -0.10926,0.856723 -0.67084,1.507974 -1.61197,1.440749"
           id="path909"
           inkscape:connector-curvature="0" />
      </g>
      <path
         inkscape:connector-curvature="0"
         id="path927"
         d="m 356.42802,27.299047 -10e-4,6.26856"
         style="fill:#3d5058;fill-opacity:1;stroke:#3d5058;stroke-width:0.09736229;stroke-miterlimit:4;stroke-dasharray:none;stroke-opacity:1" />
      <path
         sodipodi:nodetypes="ccccccssccccccsscc"
         transform="scale(0.26458333)"
         inkscape:connector-curvature="0"
         id="path968"
         d="m 1350.6484,118.10652 c -3.0614,-4.09255 -2.7619,-3.6837 -2.9129,-3.97724 -0.7112,-1.38265 -0.3296,-2.95306 1.0715,-4.40859 1.02,-1.05975 2.1405,-1.67752 3.356,-1.8503 0.3677,-0.0523 1.1898,-0.0194 1.5346,0.0613 0.3454,0.0809 0.6831,0.19839 0.8852,0.30796 0.1444,0.0783 2.8023,2.26635 2.8023,2.30692 0,0.0237 -0.5967,0.73251 -0.6167,0.73251 -0.01,0 -0.5948,-0.4832 -1.3015,-1.07379 -0.7067,-0.59058 -1.3271,-1.09535 -1.3787,-1.12172 -0.1673,-0.0855 -0.4936,-0.18047 -0.7812,-0.22725 -1.2293,-0.19992 -2.4678,0.26334 -3.61,1.35031 -1.1805,1.12334 -1.5842,2.24571 -1.1871,3.30023 0.083,0.22136 0.1125,0.26289 1.2168,1.73135 1.603,2.13157 4.1858,5.91966 4.1858,5.94658 0,0.0303 -0.6376,0.34429 -0.6775,0.34429 -0.014,0 -1.1785,-1.54016 -2.5866,-3.42258 z"
         style="fill:#3d5058;fill-opacity:1;stroke:#3d5058;stroke-width:0.06673228;stroke-miterlimit:4;stroke-dasharray:none;stroke-opacity:1" />
      <path
         inkscape:connector-curvature="0"
         id="path972"
         d="m 356.5383,30.94822 c 0,-0.105239 0.0242,-2.490619 0.0242,-2.490619 l 0.0519,0.04677 -0.0277,2.584162"
         style="fill:none;stroke:#000000;stroke-width:0.20348944px;stroke-linecap:butt;stroke-linejoin:miter;stroke-opacity:1" />
      <path
         transform="scale(0.26458333)"
         inkscape:connector-curvature="0"
         id="path974"
         d="m 1347.4115,117.48361 c -0.048,-0.009 -0.05,-0.0178 -0.05,-0.26215 v -0.25258 h -0.1014 -0.1015 l 0.013,-0.48061 c 0.01,-0.26434 0.018,-1.23136 0.025,-2.14894 0.022,-2.96072 0.073,-7.58387 0.084,-7.59435 0.01,-0.006 0.215,0.17492 0.4653,0.40116 l 0.4551,0.41134 -3e-4,0.62326 c -2e-4,0.3428 -0.02,2.36838 -0.044,4.5013 -0.024,2.13292 -0.044,4.08935 -0.044,4.34761 l -4e-4,0.46956 -0.3259,-0.003 c -0.1793,-0.002 -0.3483,-0.007 -0.3757,-0.0126 z"
         style="fill:#3d5058;fill-opacity:1;stroke:#3d5058;stroke-width:0.04718685;stroke-miterlimit:4;stroke-dasharray:none;stroke-opacity:1" />
    </g>
    <path
       style="fill:#ffffff;fill-opacity:1;stroke:#ffffff;stroke-width:0.75498956;stroke-miterlimit:4;stroke-dasharray:none;stroke-opacity:1"
       d="m 108.7552,297.47207 c -2.7277,-0.65519 -3.6234,-1.07168 -5.10807,-2.37525 -4.01613,-3.52621 -3.64609,-9.07877 1.00812,-15.12726 3.89094,-5.05658 12.95067,-10.89101 19.51356,-12.56666 2.03762,-0.52025 3.3917,-0.68675 13.21097,-1.62447 2.22894,-0.21286 4.24874,-0.54977 4.48843,-0.7487 0.71164,-0.59061 1.439,-3.23278 3.10176,-11.26743 1.37708,-6.65415 3.98217,-19.05362 6.75953,-32.17335 0.97506,-4.60604 1.04488,-5.81357 0.40882,-7.07107 -0.68964,-1.36344 -2.14078,-1.83968 -6.58661,-2.16161 -5.16337,-0.37389 -46.326546,-0.37541 -51.259199,-0.002 -5.185373,0.39266 -4.653951,-0.5402 -7.476205,13.12366 -0.984024,4.76413 -2.416615,11.52584 -3.183536,15.02602 -4.91885,22.44937 -5.283159,24.44639 -5.283159,28.96071 0,6.87388 -0.957762,9.31279 -5.681603,14.46803 -4.182416,4.56437 -11.836073,9.33316 -17.12259,10.66864 -2.70432,0.68316 -9.958856,1.35276 -12.59225,1.16228 -2.550149,-0.18446 -4.324782,-1.35292 -6.54934,-4.31224 -1.509624,-2.00824 -1.605109,-2.26384 -1.464563,-3.92045 0.422657,-4.98187 7.688452,-14.05723 14.539807,-18.16098 4.893344,-2.93097 10.672633,-4.47487 19.195321,-5.12789 6.384485,-0.48919 7.347172,-0.76929 8.391208,-2.44145 0.593697,-0.95089 0.923531,-2.35893 4.119091,-17.58436 1.367226,-6.51422 3.348964,-15.90106 4.403861,-20.85965 1.054897,-4.95858 2.48035,-12.75444 3.167672,-17.32411 1.727034,-11.48224 1.842844,-11.96662 3.181019,-13.30479 1.406358,-1.40636 3.090244,-1.86727 8.295006,-2.27047 4.70623,-0.36459 38.0894,-0.38959 49.78947,-0.0373 9.40481,0.28319 9.12315,0.15791 9.09901,4.04721 -0.0104,1.67413 -0.39619,4.00666 -1.12345,6.79236 -1.16374,4.45753 -3.38417,14.58672 -8.40908,38.36054 -1.66456,7.8754 -3.52369,16.5463 -4.13139,19.26866 -0.90826,4.06881 -1.14789,6.08237 -1.34644,11.31371 -0.33122,8.72715 -1.03629,10.35891 -7.05805,16.33462 -7.8386,7.77867 -20.71754,12.7555 -28.29712,10.93491 z m 43.48707,-89.53199 c 4.54675,-2.12669 3.475,-4.48858 -2.313,-5.09735 -3.88644,-0.40876 -48.01981,-0.42245 -53.284328,-0.0165 -2.090965,0.16123 -4.039928,0.49081 -4.331029,0.7324 -0.811702,0.67365 -0.633098,1.98745 0.378344,2.78305 2.527497,1.98813 9.791663,2.4442 37.983253,2.38473 19.52232,-0.0412 20.01188,-0.059 21.56676,-0.7863 z"
       id="path830"
       inkscape:connector-curvature="0"
       transform="matrix(0.26458333,0,0,0.26458333,154.30721,-34.978722)" />
    <path
       style="fill:#ffffff;fill-opacity:1;stroke:#ffffff;stroke-width:0.75498956;stroke-miterlimit:4;stroke-dasharray:none;stroke-opacity:1"
       d="m 336.63817,295.21644 c -1.52105,-2.30183 -2.08551,-5.88441 -3.91032,-24.81834 -2.14616,-22.26822 -2.66843,-24.41397 -5.94236,-24.41397 -2.40373,0 -17.96442,5.74188 -25.9567,9.578 -3.36166,1.61353 -3.67852,1.8557 -4.46889,3.41556 -0.85718,1.69172 -1.88157,4.86511 -3.56639,11.04807 -2.11162,7.74922 -4.49596,10.19902 -7.90415,8.12112 -1.58008,-0.96334 -2.71566,-3.55169 -3.82821,-8.72571 -1.82764,-8.49961 -2.3383,-9.61643 -8.04619,-17.59714 -4.71025,-6.58582 -5.36079,-7.87476 -4.81267,-9.53558 0.52504,-1.59088 2.22703,-3.02184 3.5942,-3.02184 1.62477,0 5.78401,1.51536 11.89712,4.33454 5.42415,2.50144 5.61502,2.55976 8.37902,2.55976 2.58367,0 3.08872,-0.12507 5.83636,-1.44521 4.30745,-2.06958 16.74838,-9.13004 19.35457,-10.98408 3.77967,-2.68885 4.08135,-4.48529 1.36732,-8.14221 -1.92383,-2.59219 -3.62866,-4.49459 -14.19897,-15.8445 -10.4735,-11.24596 -14.56935,-15.90859 -15.29346,-17.40979 -0.53027,-1.09931 -0.51769,-1.18406 0.30673,-2.06652 1.48998,-1.59486 2.69908,-2.01892 5.18703,-1.81921 1.90317,0.15276 3.04905,0.58297 7.41317,2.78316 l 5.16203,2.60246 5.60995,0.12559 c 6.36211,0.14244 5.94464,-0.0714 6.65699,3.40994 0.66046,3.22777 1.48328,4.54136 3.72171,5.9415 2.69129,1.68341 3.80892,1.82886 7.4353,0.96759 5.56588,-1.32189 6.39194,-0.95939 7.42562,3.25862 0.44954,1.83438 0.93979,2.85942 1.84883,3.86562 2.2997,2.5455 8.86078,5.5664 12.12224,5.58142 1.89697,0.009 8.43982,-1.74188 15.14871,-4.05323 10.33249,-3.55975 13.91413,-4.17404 15.03194,-2.57815 0.70585,1.00774 0.70857,3.42722 0.005,4.43174 -0.78754,1.12437 -4.03896,3.35501 -11.47542,7.8727 -12.438,7.55618 -13.08532,8.15252 -14.85865,13.68847 -1.92533,6.01049 -1.78715,8.78293 0.56762,11.38939 1.48396,1.64255 1.92154,2.76594 1.50853,3.87273 -0.17483,0.46851 -1.88622,2.48016 -3.80309,4.47032 -5.32641,5.53006 -5.79892,7.89508 -2.47658,12.39576 2.72386,3.68994 2.42184,4.70517 -2.59646,8.72782 -2.17847,1.74626 -2.58743,2.60596 -3.60893,7.5864 -1.36589,6.65958 -2.56923,9.3612 -4.83851,10.86293 -1.9332,1.27933 -2.93276,1.17028 -3.99402,-0.43573 z"
       id="path832"
       inkscape:connector-curvature="0"
       transform="matrix(0.26458333,0,0,0.26458333,154.30721,-34.978722)" />
    <path
       style="fill:#ffffff;fill-opacity:1;stroke:#ffffff;stroke-width:0.75498956;stroke-miterlimit:4;stroke-dasharray:none;stroke-opacity:1"
       d="m 524.54386,328.31234 c -1.06407,-0.17633 -2.49596,-0.59526 -3.18198,-0.93093 -1.12478,-0.55037 -1.24294,-0.74526 -1.20277,-1.98378 0.061,-1.88081 3.47803,-8.58919 7.76456,-15.24356 4.25201,-6.60081 5.48825,-9.21514 6.68738,-14.14214 0.52058,-2.139 1.39218,-4.76413 1.93688,-5.83363 0.54471,-1.0695 1.64147,-3.21733 2.43725,-4.77297 3.07793,-6.01688 6.05489,-17.04322 6.05489,-22.42662 0,-2.02704 0.21665,-3.46467 0.73755,-4.89421 3.52252,-9.66709 5.53844,-31.08947 6.32891,-67.2547 0.34408,-15.74196 0.66508,-20.27769 1.61795,-22.86141 0.65508,-1.77627 1.40956,-2.14416 2.58996,-1.26287 2.54978,1.90369 2.75467,3.34427 3.21913,22.63371 0.91067,37.82076 2.53648,59.0878 5.03308,65.83729 0.87535,2.36645 1.54272,5.76745 2.02262,10.30742 0.66492,6.29036 5.26692,20.25845 7.96525,24.1763 0.82379,1.19611 1.36736,2.51117 1.61253,3.90123 0.84751,4.80523 1.13223,5.83152 2.28524,8.23745 0.66526,1.38817 2.86411,5.10875 4.88633,8.26797 5.98448,9.34927 8.38162,14.31919 7.87677,16.33068 -0.29203,1.16353 -1.97293,1.60862 -6.04701,1.60121 -4.99324,-0.009 -6.99431,-1.29355 -7.97153,-5.11679 -1.11921,-4.37882 -4.43835,-10.05075 -7.33641,-12.53684 -6.77297,-5.81019 -16.67638,-6.69803 -24.82037,-2.22512 -4.86138,2.67001 -8.62557,7.61027 -10.76245,14.12505 -1.96188,5.98127 -3.70317,7.06665 -9.73376,6.06726 z m 35.06421,-39.5624 c 2.97099,-0.82515 3.4054,-3.26338 1.87384,-10.51725 -1.76607,-8.36457 -2.11562,-8.95566 -5.43824,-9.19599 -2.24851,-0.16265 -3.98167,0.46675 -4.63214,1.68216 -0.69604,1.30057 -1.78687,9.00039 -1.81772,12.83078 -0.0427,5.3062 0.0868,5.43164 5.69931,5.51788 1.65286,0.0254 3.59459,-0.11751 4.31495,-0.31758 z"
       id="path834"
       inkscape:connector-curvature="0"
       transform="matrix(0.26458333,0,0,0.26458333,154.30721,-34.978722)" />
    <path
       style="fill:#ffffff;fill-opacity:1;stroke:#ffffff;stroke-width:0.75498956;stroke-miterlimit:4;stroke-dasharray:none;stroke-opacity:1"
       d="m 845.73723,289.9821 c -4.41052,-0.65463 -18.36564,-1.81246 -29.34494,-2.43469 -21.0916,-1.19533 -29.14203,-1.42792 -49.32069,-1.42496 -20.65981,0.003 -28.54394,0.2719 -41.18897,1.40464 -9.95279,0.89156 -13.88401,1.03754 -14.48603,0.53791 -0.75381,-0.62561 -0.70464,-3.26332 0.0787,-4.22389 1.15602,-1.41751 9.31521,-2.61192 26.71685,-3.91102 9.92646,-0.74105 14.04798,-1.26967 14.91914,-1.9135 1.11379,-0.82317 1.37786,-5.82451 1.39261,-26.37561 0.0139,-19.35084 -0.21974,-24.59609 -1.13634,-25.51268 -0.79126,-0.79126 -5.92241,-1.06917 -24.83331,-1.34501 -22.7328,-0.33159 -24.05426,-0.47544 -24.60725,-2.67875 -0.86474,-3.4454 3.00475,-12.9208 8.00714,-19.60748 4.87437,-6.51554 9.55649,-10.62684 15.47015,-13.58409 7.83594,-3.91854 12.43866,-4.75805 27.64646,-5.04253 19.36972,-0.36233 26.33097,0.59586 35.30649,4.8598 4.58227,2.17686 7.2093,4.04243 10.92556,7.75868 4.72824,4.72824 7.8684,9.27088 10.9107,15.78371 3.75001,8.02788 3.82985,10.10531 0.43776,11.39024 -2.0753,0.78613 -8.40581,1.10853 -21.94607,1.11768 -15.26455,0.0103 -23.93371,0.37522 -25.46243,1.07175 -0.75847,0.34558 -1.02797,0.80725 -1.33523,2.2873 -0.56138,2.70414 -0.32937,47.72203 0.25267,49.02781 0.6216,1.3945 2.60703,1.84289 8.23467,1.8597 4.5937,0.0137 4.83569,-0.0226 6.44295,-0.96741 1.9068,-1.12087 3.59796,-3.64328 3.59796,-5.36642 0,-0.72365 -0.82258,-2.47039 -2.426,-5.15158 -4.15327,-6.94496 -10.82255,-17.08022 -13.8923,-21.11204 -1.09647,-1.4401 -0.88927,-2.4528 0.80646,-3.94167 3.04439,-2.67301 5.37943,-0.96731 12.74204,9.30783 1.52405,2.12694 3.65372,4.7877 4.73262,5.91281 l 1.96163,2.04566 2.82842,0.35528 c 1.55564,0.1954 5.29447,0.52493 8.30851,0.73229 5.88304,0.40473 9.274,0.88797 10.42056,1.48502 0.394,0.20517 1.45108,1.05348 2.34905,1.88513 1.98761,1.8408 2.98496,2.14005 9.42396,2.82763 10.76077,1.14908 17.93176,4.41129 27.12713,12.34059 3.18261,2.74441 5.71487,4.29721 9.43885,5.78796 0.52446,0.20994 1.21099,0.77459 1.52561,1.25476 0.51605,0.78759 0.51941,0.97483 0.0343,1.91297 -0.82569,1.59672 -2.48916,2.2023 -5.92565,2.1572 -1.62346,-0.0213 -4.38365,-0.25127 -6.13373,-0.51102 z m -19.26866,-9.31049 c 1.2155,-0.33529 1.41415,-2.15725 0.34392,-3.15432 -1.71839,-1.60093 -8.22624,-2.23609 -23.67845,-2.31101 -11.51573,-0.0558 -13.08252,0.10843 -13.58754,1.42449 -0.52341,1.36397 1.21603,2.02717 7.23679,2.75919 9.74219,1.18448 27.29087,1.94214 29.68528,1.28165 z m -84.09345,-61.30595 c 1.51566,-0.63328 1.69755,-1.20063 3.99132,-12.44918 0.87235,-4.278 1.82913,-8.57367 2.12619,-9.54594 0.69649,-2.27966 0.68701,-3.32597 -0.0374,-4.12641 -0.72083,-0.79651 -1.59124,-0.81908 -3.02354,-0.0784 -5.19946,2.68874 -15.2595,17.67779 -15.71445,23.4139 -0.0874,1.10227 -0.0199,2.20647 0.15017,2.45379 0.17001,0.24731 1.01353,0.59882 1.87447,0.78112 2.23462,0.47317 9.12236,0.18241 10.63322,-0.44887 z m 45.66114,0.12908 c 0.15498,-0.14987 0.12847,-1.50737 -0.0589,-3.01666 -0.54163,-4.36272 -4.46229,-11.67365 -9.5152,-17.74319 -5.24522,-6.30055 -8.56495,-7.956 -8.56021,-4.26873 0.004,3.2775 2.33512,16.75657 3.7557,21.71833 0.78253,2.73316 1.46287,3.397 3.71297,3.62288 2.55132,0.25611 10.31276,0.0286 10.66565,-0.31263 z"
       id="path836"
       inkscape:connector-curvature="0"
       transform="matrix(0.26458333,0,0,0.26458333,154.30721,-34.978722)" />
    <path
       style="fill:#ffffff;fill-opacity:1;stroke:#ffffff;stroke-width:3.01995826;stroke-miterlimit:4;stroke-dasharray:none;stroke-opacity:1"
       d="m 678.44107,173.48439 c -7.1864,-1.96767 -9.39398,-5.15314 -9.39398,-13.55521 0,-11.46057 2.92484,-16.49846 19.11991,-32.9331 13.76438,-13.96799 17.58586,-19.8353 12.91908,-19.8353 -1.04618,0 -3.01715,1.23207 -4.37994,2.73794 -6.99651,7.73106 -18.12392,5.00349 -19.98143,-4.89788 -0.52862,-2.81779 -0.67306,-11.916792 -0.32097,-20.219993 0.9166,-21.616028 6.78423,-33.346598 15.32418,-30.636123 3.31725,1.052853 3.38762,2.700242 0.73262,17.150936 -3.47542,18.916012 -3.32645,24.551408 0.64896,24.551408 4.19956,0 9.41942,-9.674226 17.7771,-32.947166 2.61391,-7.278753 6.09108,-10.167151 10.53981,-8.755178 1.93155,0.613052 2.77501,2.149585 2.77501,5.055286 0,7.750022 -10.14807,65.47206 -13.647,77.62394 -8.0686,28.02242 -18.82286,40.29943 -32.11335,36.66044 z m 10.85817,-15.36804 c 4.43608,-5.27198 8.36031,-16.85802 7.77258,-22.94805 l -0.44757,-4.63766 -4.04044,4.22497 c -6.79626,7.10665 -12.22301,16.53529 -12.22301,21.23671 0,7.6784 3.55409,8.52296 8.93844,2.12403 z"
       id="path833"
       inkscape:connector-curvature="0"
       transform="matrix(0.26458333,0,0,0.26458333,154.30721,-34.978722)" />
    <path
       style="fill:#ffffff;fill-opacity:1;stroke:#ffffff;stroke-width:1.50997913;stroke-miterlimit:4;stroke-dasharray:none;stroke-opacity:1"
       d="m 616.31504,114.54639 c -2.11073,-0.85283 -4.367,-3.94538 -5.36553,-7.35425 -1.12191,-3.83008 -1.11549,-22.369694 0.0105,-30.255182 2.32536,-16.285115 5.50962,-22.036951 12.73646,-23.006273 1.85644,-0.249001 3.32999,-0.06799 4.00465,0.491921 1.36418,1.132171 1.36706,6.54926 0.007,12.733537 -1.15626,5.256676 -1.35659,9.899494 -0.42715,9.899494 0.34843,0 2.79132,-3.044101 5.42863,-6.76467 7.5517,-10.653481 15.23464,-16.545754 21.59644,-16.562945 5.11607,-0.01383 8.27251,4.804476 7.40946,11.310501 -0.43093,3.24852 -0.32244,3.530422 2.739,7.116994 1.75324,2.053972 3.38418,4.781793 3.62432,6.061825 0.95974,5.115875 -5.15477,12.753522 -11.48657,14.347887 -6.49414,1.635244 -10.84072,-2.732122 -10.86146,-10.913398 -0.0204,-8.047113 -1.61085,-9.44012 -5.59599,-4.901293 -2.94868,3.358367 -9.12407,16.415477 -12.47422,26.375232 -3.6138,10.74357 -6.30818,13.45584 -11.34528,11.42062 z"
       id="path835"
       inkscape:connector-curvature="0"
       transform="matrix(0.26458333,0,0,0.26458333,154.30721,-34.978722)" />
    <path
       style="fill:#ffffff;fill-opacity:1;stroke:#ffffff;stroke-width:0.37749478;stroke-miterlimit:4;stroke-dasharray:none;stroke-opacity:1"
       d="m 560.70163,115.1238 c -5.56082,-1.87107 -8.35762,-4.14629 -10.52954,-8.56584 -1.56892,-3.19252 -2.22282,-6.02737 -2.44233,-10.588209 -0.33438,-6.947425 0.4457,-12.722477 2.37841,-17.607669 4.40473,-11.133581 13.92579,-20.717182 23.77975,-23.935952 3.41116,-1.114248 7.29898,-1.490905 9.11358,-0.882938 0.46522,0.155871 1.48226,0.708651 2.26008,1.228402 2.01358,1.345512 4.46619,2.441768 6.71751,3.002574 3.68221,0.917238 5.60709,1.871035 6.44618,3.194155 0.73842,1.164361 0.97431,2.337435 0.956,4.754225 -0.0191,2.524433 -0.21184,3.991712 -1.12608,8.57367 -1.229,6.15954 -2.00223,12.86399 -2.6504,22.98097 -0.92874,14.496402 -1.72091,16.748602 -6.31152,17.944302 -3.57568,0.93135 -8.4259,-0.80265 -9.98819,-3.57088 -0.65628,-1.16285 -1.49574,-1.63561 -2.91502,-1.64162 -1.22699,-0.005 -1.57152,0.15025 -2.6834,1.21071 -1.70377,1.62497 -8.34243,4.62367 -10.22009,4.61644 -0.3716,-0.001 -1.62482,-0.32198 -2.78494,-0.71234 z m 10.46299,-13.6568 c 1.64875,-0.79859 4.14138,-3.9172 5.52548,-6.913087 1.80708,-3.911404 3.88213,-11.56578 5.23059,-19.294363 0.62945,-3.607593 0.68262,-6.9163 0.12785,-7.95537 -0.63315,-1.185888 -1.66106,-1.420365 -3.48127,-0.794119 -7.28416,2.506118 -13.80621,12.864877 -14.97508,23.784447 -0.26004,2.429202 -0.11179,6.534759 0.28312,7.840996 0.34669,1.146727 1.33054,2.173006 2.86953,2.993286 1.80276,0.96086 2.95264,1.04885 4.41978,0.33821 z"
       id="path837"
       inkscape:connector-curvature="0"
       transform="matrix(0.26458333,0,0,0.26458333,154.30721,-34.978722)" />
    <path
       style="fill:#ffffff;fill-opacity:1;stroke:#ffffff;stroke-width:0.37749478;stroke-miterlimit:4;stroke-dasharray:none;stroke-opacity:1"
       d="m 491.56993,115.41986 c -2.64707,-1.24412 -5.58611,-4.65202 -6.3468,-7.35929 -0.89302,-3.17819 -1.25517,-8.156859 -1.10586,-15.2028 0.30217,-14.259812 2.49928,-28.14218 5.30178,-33.499182 0.67654,-1.293224 2.99136,-3.651779 4.39311,-4.476125 1.81715,-1.068632 3.3686,-1.50941 5.35917,-1.522584 1.55332,-0.01028 1.88571,0.04426 2.74004,0.449576 1.27049,0.602759 2.249,1.572137 2.40013,2.377727 0.15682,0.835896 0.0366,1.677718 -0.98329,6.883716 -1.14568,5.848241 -1.62134,9.137292 -1.65462,11.441283 -0.0252,1.745392 0.004,1.9266 0.36763,2.290456 l 0.39502,0.395116 0.48061,-0.358825 c 0.30945,-0.23104 0.55529,-0.651604 0.69033,-1.180944 0.66872,-2.621394 7.29559,-11.527874 11.62994,-15.630584 3.88412,-3.676545 8.76189,-5.977177 13.12182,-6.188993 2.94766,-0.143205 4.77553,0.415671 6.27998,1.920121 1.34344,1.343444 1.73749,2.912933 1.74713,6.958817 0.009,3.6239 0.25873,5.82031 0.78466,6.891138 0.29029,0.591034 1.16514,1.60592 2.62171,3.041329 3.92597,3.868959 4.46406,6.01428 2.51904,10.043299 -1.49071,3.087949 -5.2413,7.391054 -7.75859,8.901521 -4.43889,2.66351 -8.48963,2.273141 -11.87396,-1.144291 -2.16847,-2.189684 -2.40291,-2.984424 -2.73156,-9.259832 -0.26757,-5.109237 -0.75124,-6.717514 -2.02021,-6.717514 -2.00974,0 -5.12524,4.099838 -8.80837,11.591389 -2.66778,5.426303 -4.65107,10.639809 -6.85452,18.018586 -2.21098,7.404 -2.9075,8.61123 -6.0216,10.4369 -1.39022,0.81503 -2.70235,1.32049 -3.41918,1.31714 -0.20331,-9.5e-4 -0.7674,-0.18867 -1.25354,-0.41715 z"
       id="path839"
       inkscape:connector-curvature="0"
       transform="matrix(0.26458333,0,0,0.26458333,154.30721,-34.978722)" />
    <path
       style="fill:#ffffff;fill-opacity:1;stroke:#ffffff;stroke-width:0.37749478;stroke-miterlimit:4;stroke-dasharray:none;stroke-opacity:1"
       d="m 449.81653,115.3994 c -1.52777,-0.27713 -4.83107,-1.20262 -6.41608,-1.79759 -5.70338,-2.14091 -10.58909,-6.81219 -13.43654,-12.84681 -1.61011,-3.412331 -1.84432,-5.454015 -1.71586,-14.957524 0.11148,-8.246769 0.27909,-9.180256 2.48998,-13.867455 4.75057,-10.071446 12.10003,-16.239269 21.31993,-17.892145 3.54908,-0.636252 9.29309,-0.492213 11.37075,0.285137 1.96692,0.735921 5.4274,3.502765 7.03945,5.628432 1.991,2.625354 2.93736,5.473813 3.10675,9.351037 0.37059,8.482576 -3.46199,15.251318 -11.44521,20.213445 -2.11477,1.314478 -5.65928,2.975661 -8.65514,4.056345 -3.81681,1.376823 -5.11815,2.138687 -5.75428,3.368824 -0.75204,1.454284 0.4151,2.982978 3.36779,4.411054 2.01144,0.97284 3.38982,1.30157 5.48008,1.30693 4.02267,0.0103 7.14299,-1.76519 12.9464,-7.366688 4.61949,-4.458766 6.00668,-5.369194 7.49943,-4.921954 0.9666,0.2896 2.33089,1.596565 2.91691,2.794356 2.57753,5.268271 -3.74067,14.683206 -12.93292,19.271736 -2.5286,1.26222 -6.13166,2.32627 -10.00323,2.95414 -1.99311,0.32324 -5.42143,0.32741 -7.17821,0.009 z m -1.35454,-31.224204 c 2.73241,-0.843423 5.8891,-2.749115 7.86402,-4.747495 2.40714,-2.435748 3.62572,-5.676836 3.17849,-8.453912 -0.39922,-2.478895 -1.53311,-3.555226 -4.15638,-3.945389 -1.63072,-0.24254 -3.00627,-0.03581 -4.47022,0.671835 -1.4187,0.685769 -3.46192,2.7637 -4.45947,4.535235 -2.08559,3.703762 -3.1462,9.241629 -2.11974,11.067968 0.71634,1.274551 1.99262,1.541791 4.1633,0.871758 z"
       id="path841"
       inkscape:connector-curvature="0"
       transform="matrix(0.26458333,0,0,0.26458333,154.30721,-34.978722)" />
    <path
       style="fill:#ffffff;fill-opacity:1;stroke:#ffffff;stroke-width:0.37749478;stroke-miterlimit:4;stroke-dasharray:none;stroke-opacity:1"
       d="m 374.7927,115.67136 c -0.25199,-0.0774 -1.17797,-0.5124 -2.05773,-0.96678 -2.60146,-1.3436 -3.96636,-2.99981 -4.98654,-6.0508 -1.11779,-3.34292 -1.60018,-7.86544 -1.60002,-15.000514 3.3e-4,-14.184949 2.30223,-27.723922 5.89013,-34.643699 1.9562,-3.772819 4.85994,-5.463203 9.39951,-5.471846 1.68503,-0.0032 2.05676,0.05144 2.78534,0.409501 1.65797,0.814801 2.18052,1.961961 2.02209,4.439094 -0.10663,1.666995 -0.43658,3.398029 -1.71847,9.015611 -1.3358,5.853831 -1.86566,9.529234 -1.41399,9.80838 0.47265,0.292112 2.81134,-2.47202 5.75606,-6.803176 5.11573,-7.524335 8.28369,-10.83003 13.197,-13.770784 6.26465,-3.749573 12.42993,-4.029275 15.42349,-0.699723 1.67127,1.858854 1.96488,3.037978 1.7985,7.222662 -0.20572,5.17421 -0.99587,13.043679 -1.97909,19.710601 -1.35756,9.205275 -1.62831,11.989855 -1.83913,18.915103 -0.17346,5.69806 -0.32462,7.35874 -0.8053,8.84706 -0.59032,1.82782 -2.13502,3.28134 -4.58719,4.31641 -0.92113,0.38882 -1.32152,0.44834 -3.01585,0.44834 -1.91104,0 -1.98386,-0.0149 -3.33366,-0.68201 -1.65404,-0.81747 -3.20322,-2.28378 -3.87504,-3.66776 -0.92005,-1.89535 -1.09203,-2.95278 -1.07506,-6.61039 0.0167,-3.60769 0.20223,-5.306716 1.24484,-11.402093 0.99966,-5.844248 1.31229,-8.532548 1.42517,-12.255178 0.14819,-4.886584 -0.25867,-6.836704 -1.42637,-6.836704 -0.66054,0 -1.93151,0.943904 -2.87906,2.138168 -4.19039,5.281469 -9.17809,16.228136 -12.71857,27.913867 -1.95541,6.45404 -2.43668,7.51172 -4.11567,9.04486 -1.12029,1.02297 -3.67467,2.53625 -4.52689,2.68184 -0.29168,0.0498 -0.7365,0.0273 -0.9885,-0.05 z"
       id="path843"
       inkscape:connector-curvature="0"
       transform="matrix(0.26458333,0,0,0.26458333,154.30721,-34.978722)" />
    <path
       style="fill:#ffffff;fill-opacity:1;stroke:#ffffff;stroke-width:0.37749478;stroke-miterlimit:4;stroke-dasharray:none;stroke-opacity:1"
       d="m 340.83394,115.56529 c -2.27921,-0.55272 -4.21382,-1.74322 -4.87011,-2.99692 -0.81086,-1.54896 -1.06277,-4.44456 -0.76897,-8.83883 1.01933,-15.245382 5.14706,-39.282744 7.62574,-44.407721 1.62033,-3.350203 4.3229,-5.490119 7.66974,-6.072946 3.85078,-0.670584 7.87935,2.02138 7.8779,5.264149 -7.1e-4,1.725334 -1.29998,9.499259 -3.09567,18.523235 -1.53176,7.697666 -1.94516,10.60481 -2.91597,20.506096 -1.07568,10.970747 -1.73679,13.589187 -3.92856,15.559787 -1.42503,1.28122 -4.9088,2.7894 -6.28731,2.72187 -0.16536,-0.008 -0.75341,-0.12452 -1.30679,-0.25872 z"
       id="path845"
       inkscape:connector-curvature="0"
       transform="matrix(0.26458333,0,0,0.26458333,154.30721,-34.978722)" />
    <path
       style="fill:#ffffff;fill-opacity:1;stroke:#ffffff;stroke-width:0.37749478;stroke-miterlimit:4;stroke-dasharray:none;stroke-opacity:1"
       d="m 212.93678,157.56372 c -5.01924,-0.45102 -7.98472,-1.8797 -11.72256,-5.64761 -3.90695,-3.93836 -5.25568,-6.97214 -5.42936,-12.21252 -0.11154,-3.36529 0.27801,-5.97489 1.39193,-9.3246 2.31299,-6.95552 6.65769,-12.87344 12.91346,-17.58944 5.93795,-4.47641 15.34741,-9.61654 25.33026,-13.837248 2.23622,-0.945465 4.66248,-2.027913 5.39169,-2.405437 1.77561,-0.919273 3.60001,-2.289548 4.1452,-3.113379 1.02253,-1.545154 1.73636,-6.079204 1.7605,-11.182317 0.0178,-3.756696 -0.16716,-4.949747 -0.7673,-4.949747 -0.67463,0 -1.93476,1.544294 -3.89468,4.77297 -4.01316,6.611084 -10.45779,12.438699 -17.41879,15.751115 -3.4014,1.618567 -5.37421,2.049114 -10.15712,2.216693 -8.78291,0.30774 -14.60081,-1.394005 -18.58928,-5.43739 -2.85651,-2.89583 -5.22152,-7.963417 -6.43239,-13.782879 -1.2953,-6.225207 -0.76679,-10.770438 3.62624,-31.186061 4.58118,-21.290025 5.00225,-24.440354 3.63555,-27.200451 -0.48295,-0.975325 -3.47069,-4.586196 -3.86428,-4.670207 -0.30388,-0.06486 -4.59774,1.563708 -6.23262,2.363902 -2.37135,1.160661 -4.85921,3.242129 -9.98097,8.350576 -4.47756,4.46592 -6.92402,6.680168 -8.0415,7.278223 -0.97763,0.523211 -2.64141,-0.524901 -3.39532,-2.138911 -0.78825,-1.68753 -0.99363,-4.410158 -0.48342,-6.408256 0.61395,-2.404305 2.84047,-6.287419 5.40386,-9.424489 5.37654,-6.579788 13.14148,-12.104447 18.97913,-13.5034096 2.00169,-0.4796944 7.06913,-0.7615351 11.66727,-0.6489098 5.54128,0.1357265 6.1985,0.3909047 9.29233,3.607938 2.45995,2.5579149 4.15733,5.4763464 4.6924,8.0679834 0.37113,1.797584 0.51465,8.963876 0.2626,13.112808 -0.4545,7.481675 -1.08979,11.770928 -2.77501,18.735941 -2.17606,8.993623 -3.43033,14.94724 -4.153,19.712989 -0.47331,3.121272 -0.57002,8.344047 -0.18331,9.899495 0.43855,1.763991 1.23721,3.189854 2.48264,4.432322 1.33731,1.334124 2.4658,1.942372 4.60533,2.482232 1.27871,0.322653 1.81804,0.363287 3.71231,0.279684 3.40802,-0.150412 5.93899,-0.98105 8.79814,-2.887446 1.81341,-1.209129 5.44067,-4.738707 7.15104,-6.958443 8.10201,-10.514935 14.79774,-27.218664 18.06964,-45.078056 0.4555,-2.486297 0.89707,-5.600029 1.51613,-10.690832 1.06228,-8.7355954 3.18329,-13.4427523 6.55096,-14.5385937 4.33971,-1.4121413 8.55546,-0.4997006 11.18038,2.4198378 0.9585,1.0660782 1.1584,1.6984804 1.37076,4.3364239 0.32463,4.032609 -0.17889,9.705169 -1.68681,19.003494 -1.23532,7.61734 -1.75565,11.028182 -3.18221,20.85965 -0.6419,4.423836 -1.79296,12.179914 -2.5579,17.235727 -1.89981,12.556668 -2.34541,16.057477 -2.36988,18.618862 -0.0241,2.519927 0.0664,2.682729 1.49114,2.682729 2.19966,0 14.98314,-2.621427 18.5522,-3.804381 2.05184,-0.680077 2.36911,-0.931473 2.70277,-2.141618 0.50226,-1.821616 0.85061,-4.999741 0.95775,-8.737888 0.19391,-6.765977 -0.22021,-7.465873 -5.21904,-8.820435 -3.00157,-0.813357 -4.09993,-1.469396 -4.82704,-2.883152 -0.79968,-1.554873 -0.78041,-5.542794 0.0352,-7.27787 0.74477,-1.584426 1.90392,-2.105561 5.11295,-2.298689 2.3543,-0.141687 3.91169,-0.481635 4.73738,-1.034082 0.83777,-0.560525 1.85268,-2.163253 2.49641,-3.942283 0.30659,-0.847301 1.15489,-3.735776 1.88512,-6.418832 1.74648,-6.417031 2.68121,-9.575958 3.84966,-13.01001 3.58188,-10.527067 7.40442,-17.164308 13.18434,-22.8925811 3.98463,-3.9490173 6.7949,-5.35473374 11.19971,-5.60217207 2.1357,-0.11997214 4.49989,0.15894231 5.90498,0.69663841 2.39688,0.91723426 5.4084,4.97775916 6.32593,8.52945586 0.70117,2.7141559 0.78677,10.0832679 0.17147,14.7608539 -0.3616,2.748853 -1.24582,6.309476 -2.11039,8.498217 -1.31154,3.32031 -3.525,7.19743 -5.89655,10.3285 -0.44185,0.583363 -1.42218,1.873961 -2.17851,2.867995 -4.16941,5.479811 -3.18547,6.800631 5.56641,7.472248 1.34441,0.103171 2.85585,0.273594 3.35875,0.37872 1.25043,0.261387 2.53182,0.983136 2.95175,1.662588 0.68422,1.107105 0.32856,3.57513 -0.78665,5.458769 -1.43968,2.431659 -4.36182,3.733548 -9.91278,4.416394 -2.51842,0.3098 -6.17324,0.568519 -13.61181,0.963557 l -5.48008,0.291029 0.014,9.899495 c 0.0113,8.008527 0.0706,10.410865 0.31035,12.576599 0.82602,7.461527 2.66413,10.335555 7.3962,11.564561 1.73298,0.45009 3.57318,0.44119 4.96876,-0.024 0.60461,-0.20155 2.3323,-0.951468 3.83932,-1.66649 3.18091,-1.509219 4.6467,-2.034428 6.03708,-2.163151 1.40461,-0.130043 2.15533,0.05437 2.76664,0.679637 0.78108,0.798914 0.98849,1.780178 0.86681,4.100984 -0.17798,3.39479 -1.08921,5.49934 -3.39234,7.83492 -2.19955,2.23052 -4.84259,3.78208 -8.55484,5.022 -8.28458,2.76711 -16.28635,0.82703 -22.01303,-5.3372 -1.73891,-1.87176 -2.83241,-3.47633 -4.45637,-6.5391 -1.53926,-2.903031 -2.1334,-3.812346 -2.92763,-4.480641 -0.78604,-0.661406 -1.6981,-0.550474 -3.9517,0.480636 -2.26806,1.037726 -3.32453,1.343807 -5.37789,1.558094 -2.1734,0.226811 -5.19908,0.848791 -9.94159,2.043651 -5.36494,1.35168 -7.69231,2.11198 -8.28774,2.7074 -0.53147,0.53148 -0.86895,1.51036 -0.87048,2.52488 -0.003,2.19462 -2.9436,14.19386 -5.03783,20.55927 -2.62935,7.99189 -6.47064,14.43566 -11.75212,19.71419 -6.25787,6.25437 -11.88171,8.84279 -21.48319,9.88783 -2.33794,0.25446 -7.35978,0.35818 -9.22548,0.19053 z m 9.60007,-13.18011 c 1.84498,-0.31698 3.07199,-0.64465 4.69919,-1.25489 5.30819,-1.99073 9.9819,-8.83095 13.11077,-19.18831 0.83371,-2.75978 1.82882,-7.14225 2.08523,-9.1834 0.18853,-1.50076 0.17887,-1.79144 -0.0823,-2.47522 -0.16274,-0.42612 -0.46201,-0.87851 -0.66506,-1.00532 -0.61539,-0.38432 -1.94154,-0.44136 -3.52493,-0.15163 -1.31634,0.24086 -2.13502,0.59152 -6.62836,2.83906 -6.79774,3.40019 -9.44745,5.16648 -12.96339,8.64133 -3.35762,3.31839 -5.38452,6.40181 -6.4694,9.84157 -1.41894,4.49896 -0.31561,8.39894 3.01926,10.67226 2.2563,1.53809 4.04867,1.84359 7.41896,1.26455 z m 86.08688,-97.815154 c 2.24065,-1.638477 5.49476,-6.186569 7.77309,-10.864045 3.68297,-7.561221 5.07248,-17.7388 2.90141,-21.251662 -0.59876,-0.968812 -1.07194,-1.201761 -2.24369,-1.10459 -0.94989,0.07877 -1.05372,0.136091 -1.89824,1.04787 -2.8662,3.094478 -6.86066,14.951963 -8.32803,24.721627 -0.37864,2.520974 -0.43378,6.02068 -0.1093,6.937123 0.39547,1.11696 0.89539,1.251778 1.90476,0.513677 z"
       id="path855"
       inkscape:connector-curvature="0"
       transform="matrix(0.26458333,0,0,0.26458333,154.30721,-34.978722)" />
    <path
       style="fill:#ffffff;fill-opacity:1;stroke:#ffffff;stroke-width:1.06771648;stroke-miterlimit:4;stroke-dasharray:none;stroke-opacity:1"
       d="m 349.34434,42.993276 c -2.0082,-0.874441 -4.60314,-4.049968 -5.24277,-6.415793 -1.42285,-5.262682 3.87014,-11.42925 10.4823,-12.212363 3.3104,-0.392068 7.53074,0.915444 9.76925,3.026631 1.7182,1.620473 1.78006,1.803279 1.78006,5.26083 0,4.340874 -0.82088,6.481017 -3.17441,8.27614 -3.37465,2.57397 -10.10175,3.594099 -13.61443,2.064555 z"
       id="path857"
       inkscape:connector-curvature="0"
       transform="matrix(0.26458333,0,0,0.26458333,154.30721,-34.978722)" />
    <path
       style="fill:#ffffff;fill-opacity:1;stroke:#ffffff;stroke-width:1.06771648;stroke-miterlimit:4;stroke-dasharray:none;stroke-opacity:1"
       d="m 27.184547,113.87565 -3.551361,-1.82684 0.01684,-6.04816 c 0.02435,-8.745204 0.621773,-14.190859 3.433628,-31.298168 4.418953,-26.884888 6.752417,-45.10532 6.246779,-48.776852 -0.402341,-2.921477 -1.642252,-5.524736 -2.969778,-6.235206 -3.174283,-1.698825 -7.789935,0.904137 -17.088733,9.637059 -3.733448,3.50625 -7.1142104,6.375 -7.5128049,6.375 -1.138623,0 -3.5638283,-2.907815 -3.8872621,-4.660817 -0.6740651,-3.653413 3.6030773,-10.829764 10.483243,-17.589183 7.469258,-7.3381704 12.627831,-9.6668961 21.52809,-9.7183881 5.988338,-0.034645 8.03413,0.5891707 10.57145,3.2235135 3.505244,3.6392786 4.669021,8.2668706 5.154186,20.4948746 0.02182,0.55 0.244083,1.323032 0.493912,1.717849 0.674127,1.065349 1.714762,0.01677 3.889522,-3.919198 3.201175,-5.793612 5.72666,-9.197367 9.867225,-13.298651 6.788839,-6.7244411 12.026214,-8.6318368 22.345589,-8.1380211 4.06408,0.1944796 5.17756,0.4391839 7.08505,1.5570466 4.12992,2.4202948 8.825448,11.1380265 8.854988,16.4402015 0.0116,2.083025 0.67561,5.744973 1.12279,6.192154 0.58506,0.585065 1.99974,-0.654416 3.67871,-3.223125 5.46098,-8.354952 6.73096,-10.042 10.08225,-13.39329 2.62868,-2.6286762 4.72978,-4.1866494 7.47855,-5.5453654 l 3.82278,-1.8896001 h 7.5265 c 6.08427,0 7.97892,0.1745709 9.88755,0.9110298 2.73188,1.0541109 6.00235,4.425663 7.88894,8.1327597 1.15595,2.2714 1.26284,3.076956 1.42057,10.70621 0.2234,10.805269 -0.25589,14.309943 -4.92553,36.017074 -6.13914,28.538119 -6.30548,33.472729 -1.27714,37.887664 5.18163,4.549529 11.84055,2.714509 20.5321,-5.658115 5.70002,-5.490855 7.35338,-6.188705 9.52273,-4.01935 1.02426,1.02426 1.22546,1.706605 1.21629,4.125 -0.0146,3.86725 -1.13662,6.13584 -5.19329,10.500704 -8.24297,8.8692 -15.57508,12.64702 -24.54573,12.64702 -15.52932,0 -23.9733,-10.36926 -23.04253,-28.296399 0.37117,-7.1491 0.99361,-10.633639 5.88638,-32.953599 4.70657,-21.470512 5.24509,-26.201261 3.41334,-29.985151 -1.39176,-2.874987 -3.3073,-3.930675 -7.07,-3.896402 -4.63355,0.0422 -8.13151,2.290587 -12.46076,8.009402 -9.33597,12.332529 -17.841498,38.893951 -21.734113,67.87215 -1.47454,10.977089 -2.76875,14.921189 -5.707685,17.394139 -3.45793,2.90966 -7.085585,2.94212 -10.41393,0.0932 -2.967195,-2.5398 -3.836995,-5.18082 -3.41039,-10.35513 0.504765,-6.122329 2.54275,-18.978674 5.313665,-33.520518 3.5321,-18.536588 4.483425,-25.515231 4.7864,-35.111659 0.324135,-10.266584 -0.12901,-12.498259 -2.82414,-13.90848 -2.29213,-1.199354 -7.50532,-0.862267 -10.53014,0.680883 -2.9585,1.509313 -7.101169,5.555642 -9.675139,9.450139 -8.70301,13.167927 -16.713087,38.070192 -20.025531,62.256721 -1.135964,8.294484 -2.654629,15.631914 -3.749665,18.116514 -0.720309,1.63436 -1.47947,2.37743 -3.448091,3.375 -3.322662,1.68372 -4.289605,1.62147 -8.506301,-0.54761 z"
       id="path859"
       inkscape:connector-curvature="0"
       transform="matrix(0.26458333,0,0,0.26458333,154.30721,-34.978722)" />
    <path
       style="fill:#000000;fill-opacity:1;stroke:#000000;stroke-width:1.50997913;stroke-miterlimit:4;stroke-dasharray:none;stroke-opacity:1"
       d="M 87.566676,344.07364 C 75.551228,342.69966 60.506415,337.66724 49.906224,331.4764 25.370837,317.14696 7.5004833,291.91985 1.8648774,263.65768 0.11528501,254.8836 0.10966931,232.23852 1.8550564,224.05516 6.9158566,200.32728 21.184058,177.91073 40.490305,163.35593 c 10.683408,-8.05412 26.248803,-14.92708 40.216736,-17.75785 9.70026,-1.96588 30.683769,-1.75802 40.376499,0.39995 19.53357,4.34892 34.53328,12.62391 48.86769,26.95918 14.88262,14.88351 23.4113,30.6122 28.00067,51.63917 1.86904,8.56337 1.87126,31.02909 0.004,39.56935 -5.8067,26.55646 -21.32174,49.68278 -43.011,64.11105 -10.16454,6.76172 -24.17529,12.47312 -36.27869,14.78881 -6.98755,1.33689 -23.533569,1.87321 -31.099427,1.00805 z m 33.220744,-47.14141 c 5.22505,-1.59327 11.7598,-5.41029 16.18244,-9.45234 6.13103,-5.60341 6.77786,-7.06599 7.87636,-17.80943 0.8437,-8.25141 3.80703,-22.96476 13.81631,-68.59991 1.74703,-7.96516 1.48548,-10.17067 -1.2931,-10.9044 -1.06358,-0.28086 -14.9799,-0.52435 -30.92515,-0.5411 -30.192409,-0.0317 -32.666859,0.18079 -35.242262,3.02657 -0.701153,0.77477 -1.903418,5.84444 -3.221706,13.58519 -2.011973,11.81393 -7.036193,36.59461 -10.055489,49.59608 -1.32579,5.70902 -1.57566,6.18689 -3.604887,6.89429 -1.199196,0.41804 -3.377679,0.76007 -4.841068,0.76007 -4.89978,0 -13.701413,2.09038 -18.289658,4.34377 -7.648631,3.75642 -17.022367,14.78423 -17.022367,20.02611 0,2.3074 3.200042,6.42248 6.043727,7.7719 2.302473,1.09259 3.362058,1.14309 9.412344,0.44852 8.683241,-0.99682 15.210412,-4.0283 21.656173,-10.05799 5.747442,-5.37645 7.177148,-8.41258 7.780133,-16.5219 0.419555,-5.64251 9.458564,-50.47433 10.987393,-54.49544 0.562326,-1.47903 1.161338,-1.60019 10.365517,-2.09651 13.41719,-0.7235 47.66987,-0.0132 49.61703,1.02884 1.03949,0.55632 1.51741,1.4872 1.51741,2.9556 0,3.42469 -9.18425,46.15815 -10.11591,47.0684 -0.46433,0.45366 -4.50353,1.20177 -8.97598,1.66246 -5.16666,0.53219 -9.59763,1.43131 -12.15199,2.46585 -9.46983,3.83533 -17.44887,11.15292 -19.37114,17.7653 -1.038398,3.57193 -1.026723,3.98695 0.18044,6.41455 3.04074,6.11495 9.72454,7.69985 19.67543,4.66552 z"
       id="path840"
       inkscape:connector-curvature="0"
       transform="matrix(0.26458333,0,0,0.26458333,154.30721,-34.978722)" />
    <path
       style="fill:#000000;fill-opacity:1;stroke:#000000;stroke-width:1.50997913;stroke-miterlimit:4;stroke-dasharray:none;stroke-opacity:1"
       d="m 307.46361,341.89341 c -6.78803,-0.62178 -18.27938,-4.2641 -26.57015,-8.42174 -25.58468,-12.83013 -43.82506,-33.52838 -52.24009,-59.27939 -3.84427,-11.76391 -4.63425,-16.97936 -4.56685,-30.15046 0.16039,-31.34305 9.90123,-54.63531 31.18558,-74.57084 11.18228,-10.47365 27.1339,-19.71435 40.93601,-23.71405 12.49902,-3.62207 38.42826,-4.13935 50.72475,-1.01193 28.97893,7.37033 52.96337,26.77012 65.93923,53.33488 7.63483,15.63035 9.75903,25.2815 9.72708,44.19417 -0.025,14.76494 -0.94433,21.8218 -4.09676,31.44533 -8.65594,26.42422 -28.0743,48.27517 -53.76316,60.49819 -8.79152,4.1831 -14.89614,6.08488 -22.4317,6.98815 -7.82102,0.93749 -27.80993,1.332 -34.84394,0.68769 z m 33.43427,-45.56861 c 2.14587,-1.50303 3.33312,-4.00141 5.00751,-10.53748 1.21233,-4.73244 1.89219,-6.02276 4.64691,-8.81953 3.75502,-3.81235 3.96221,-5.25631 1.38522,-9.65362 -2.34787,-4.00633 -2.03173,-5.20056 2.87735,-10.86924 2.15269,-2.48578 3.91398,-5.03833 3.91398,-5.67233 0,-0.634 -0.7955,-2.23096 -1.76777,-3.5488 -2.04666,-2.77409 -2.18357,-4.70713 -0.68967,-9.73763 1.5442,-5.19988 3.53861,-7.17774 13.4946,-13.38258 11.56504,-7.20763 13.71157,-8.99826 13.71157,-11.43808 0,-4.60381 -2.95084,-4.67727 -16.38901,-0.408 -12.53098,3.98106 -15.7551,4.44127 -19.80833,2.82742 -4.77017,-1.89931 -7.4971,-4.33226 -8.46075,-7.54866 -1.26425,-4.21967 -2.86286,-5.01044 -8.14372,-4.02837 -3.98597,0.74127 -4.4964,0.68378 -6.85157,-0.7718 -1.85949,-1.14922 -2.77217,-2.36873 -3.38929,-4.52869 -1.29001,-4.51512 -1.61754,-4.72373 -7.41672,-4.72373 -4.69551,0 -5.80966,-0.29023 -10.85788,-2.82842 -6.76743,-3.4026 -10.24597,-3.70259 -12.69577,-1.09489 l -1.62858,1.73355 1.41449,2.23403 c 0.77797,1.22872 7.26248,8.60994 14.41002,16.4027 15.4342,16.82748 16.6291,18.41544 15.58369,20.70987 -0.72488,1.59093 -8.30114,6.39039 -18.7814,11.89776 -6.75658,3.55058 -9.5039,3.46248 -18.90649,-0.60623 -8.14324,-3.52377 -10.5469,-3.8624 -12.62998,-1.77932 -2.27687,2.27687 -1.6932,4.44726 3.07755,11.44381 5.9553,8.73377 6.45251,9.78853 8.27636,17.55711 1.19068,5.07166 2.02983,7.11903 3.53461,8.62381 4.14036,4.14035 6.67763,1.71297 10.23177,-9.78869 1.42604,-4.61483 3.13749,-8.95704 3.80322,-9.64935 1.49262,-1.55221 11.71995,-6.00498 21.75239,-9.47055 l 7.51945,-2.5975 1.2238,1.51133 c 1.44807,1.7883 1.57428,2.58325 3.89671,24.54339 1.90364,18.00028 2.61714,21.88057 4.3882,23.86485 1.36101,1.52486 2.24214,1.5525 4.26753,0.13386 z"
       id="path842"
       inkscape:connector-curvature="0"
       transform="matrix(0.26458333,0,0,0.26458333,154.30721,-34.978722)" />
    <path
       style="fill:#000000;fill-opacity:1;stroke:#000000;stroke-width:1.50997913;stroke-miterlimit:4;stroke-dasharray:none;stroke-opacity:1"
       d="m 544.61119,346.18108 c -21.03913,-1.5128 -43.35165,-12.30469 -59.91381,-28.97848 -13.55092,-13.64226 -23.90025,-33.64918 -27.4348,-53.03589 -1.6436,-9.01497 -1.63657,-26.30363 0.0142,-34.97413 2.95237,-15.50684 9.7299,-31.27408 18.38892,-42.77996 14.72691,-19.56874 39.63304,-35.33282 61.40556,-38.86603 5.72538,-0.9291 31.40865,-0.93554 37.1158,-0.009 14.56578,2.36395 33.56718,11.66391 46.92224,22.96543 15.38291,13.01755 28.87,35.93328 32.40582,55.06027 2.22994,12.06288 1.52955,37.31988 -1.31937,47.57808 -8.24478,29.68722 -29.37069,53.73865 -58.07011,66.11164 -15.12277,6.51979 -28.7256,8.42318 -49.51447,6.92838 z m -12.43064,-18.65039 c 0.85647,-0.94462 2.43527,-3.91374 3.50844,-6.59803 2.47039,-6.17914 5.89136,-10.18492 10.71231,-12.5436 12.65774,-6.19285 25.31842,-0.0202 30.07108,14.66088 1.2911,3.98823 3.66473,5.49114 8.67248,5.49114 4.68775,0 6.93261,-0.86799 6.92231,-2.67653 -0.0103,-1.81094 -3.05044,-8.00261 -7.31191,-14.89177 -5.27315,-8.52469 -6.71027,-11.51478 -7.60308,-15.81914 -0.42616,-2.05462 -1.55181,-5.08742 -2.50145,-6.73956 -2.47542,-4.30665 -6.33272,-16.54907 -7.29687,-23.15906 -0.45382,-3.11127 -1.4467,-7.92346 -2.20639,-10.69375 -2.07285,-7.55885 -3.36963,-22.12794 -4.20913,-47.289 -1.06315,-31.86391 -1.56171,-38.18661 -3.14941,-39.941 -1.76552,-1.95088 -3.78962,-1.8035 -4.60273,0.33513 -0.98171,2.58212 -1.34757,8.1362 -2.16641,32.88835 -0.98847,29.87981 -2.9043,49.08593 -5.60491,56.18908 -0.33749,0.88765 -0.8374,3.9613 -1.11092,6.83032 -0.64289,6.74342 -3.24493,15.74515 -6.61428,22.88199 -1.47199,3.11791 -3.34726,7.90014 -4.16725,10.62718 -0.87344,2.90478 -3.45764,8.17606 -6.23974,12.72792 -5.33019,8.72083 -8.25816,15.21882 -7.61398,16.89752 0.52272,1.36217 3.80728,2.38944 7.91564,2.47565 2.36855,0.0497 3.3825,-0.31512 4.5962,-1.65372 z"
       id="path844"
       inkscape:connector-curvature="0"
       transform="matrix(0.26458333,0,0,0.26458333,154.30721,-34.978722)" />
    <path
       style="fill:#000000;fill-opacity:1;stroke:#000000;stroke-width:1.50997913;stroke-miterlimit:4;stroke-dasharray:none;stroke-opacity:1"
       d="m 770.97209,346.56716 c -37.99806,-5.20446 -69.91551,-32.07123 -81.92064,-68.95736 -3.00591,-9.23575 -3.93704,-17.10891 -3.92817,-33.21443 0.007,-12.63513 0.16437,-14.38592 1.88177,-20.92933 5.77961,-22.02064 17.10788,-40.43123 32.95045,-53.55073 19.10607,-15.82205 39.587,-23.28187 63.81672,-23.24414 16.57185,0.0258 28.96143,2.67587 42.30161,9.04806 21.07654,10.06761 37.04091,25.58555 47.28244,45.96021 19.86568,39.5211 11.25454,88.19555 -20.96514,118.50553 -15.95342,15.00782 -34.03708,23.35921 -57.13814,26.3875 -9.52912,1.24916 -15.13092,1.24793 -24.2809,-0.006 z m 86.14992,-56.63168 c 2.60102,-1.82183 1.71024,-3.82201 -2.8396,-6.37608 -2.20955,-1.24033 -6.18703,-3.98273 -8.83883,-6.09422 -8.88257,-7.07269 -13.9029,-9.29085 -24.56199,-10.85235 -5.812,-0.85143 -7.7101,-1.44781 -10.27109,-3.2272 -2.90045,-2.01524 -3.93151,-2.2635 -13.43503,-3.23488 -5.66141,-0.57867 -10.73935,-1.41638 -11.28431,-1.86158 -0.54495,-0.4452 -3.31469,-3.87803 -6.15496,-7.62851 -7.32327,-9.67013 -10.02007,-11.44307 -13.12785,-8.63057 -1.22445,1.10812 -1.29369,1.06118 -1.30394,-0.88388 -0.009,-1.65058 -0.15967,-1.84576 -0.76845,-0.99348 -0.5941,0.83174 -0.67015,0.67913 -0.35238,-0.70711 0.22288,-0.97227 0.40959,-4.21236 0.4149,-7.20019 0.009,-4.84997 0.16497,-5.48172 1.45831,-5.89221 0.79676,-0.25289 11.59789,-0.68638 24.0025,-0.96331 20.58132,-0.45948 22.68095,-0.61855 24.00718,-1.81878 2.22071,-2.00971 1.79139,-5.11282 -1.67514,-12.10755 -3.99153,-8.0541 -5.00582,-9.49795 -10.72644,-15.26912 -5.46856,-5.5169 -11.79959,-9.12439 -19.87373,-11.32427 -4.90335,-1.33596 -7.36076,-1.50111 -22.13278,-1.48739 -19.14666,0.0178 -23.90674,0.74239 -32.43152,4.93697 -3.83769,1.88833 -6.85498,4.10752 -10.43524,7.67506 -10.12359,10.08761 -16.80427,26.1385 -11.76334,28.26239 0.68395,0.28817 11.10768,0.7959 23.16385,1.1283 12.05617,0.33239 22.58864,0.76222 23.40549,0.95518 1.31181,0.30988 1.5383,1.03332 1.9403,6.19754 0.58836,7.55823 0.58602,28.63623 -0.004,37.54929 -0.41599,6.28232 -0.60956,7.01051 -2.00455,7.54089 -0.84925,0.32288 -7.56121,1.10488 -14.91546,1.73776 -23.85085,2.05254 -26.72013,2.81231 -26.31762,6.9688 l 0.21834,2.25456 5.65686,-0.0103 c 3.11127,-0.006 12.3066,-0.44909 20.43408,-0.98535 24.48205,-1.61537 74.90271,-0.43479 101.18828,2.36928 12.41735,1.32464 17.40784,1.3175 19.32833,-0.0276 z"
       id="path846"
       inkscape:connector-curvature="0"
       transform="matrix(0.26458333,0,0,0.26458333,154.30721,-34.978722)" />
    <path
       style="fill:#000000;fill-opacity:1;stroke:#000000;stroke-width:0.26692912;stroke-miterlimit:4;stroke-dasharray:none;stroke-opacity:1"
       d="m 768.53693,278.4687 c -2.12633,-0.1721 -3.41218,-0.57136 -3.81371,-1.18417 -0.15991,-0.24406 -0.24202,-0.7573 -0.31682,-1.98045 -0.18451,-3.01705 -0.36296,-15.1536 -0.36089,-24.54476 0.002,-8.28976 0.0227,-9.27667 0.19749,-9.34375 0.10749,-0.0412 0.21896,-0.075 0.24771,-0.075 0.0288,0 0.0523,0.28405 0.0523,0.63121 0,0.34717 0.0814,0.78864 0.18091,0.98106 0.11528,0.22292 0.18911,0.78931 0.2035,1.56113 0.0124,0.66621 0.0528,1.18106 0.0897,1.14411 0.0369,-0.037 0.22638,0.19994 0.42095,0.52641 0.19457,0.32647 0.949,1.40921 1.6765,2.40608 2.63822,3.61507 8.67216,12.84282 11.91884,18.22754 2.03698,3.3784 2.88286,5.12862 2.88044,5.95996 -0.002,0.79324 -0.41448,1.804 -1.16389,2.8542 -0.76875,1.0773 -1.54851,1.73187 -2.82227,2.36911 l -1.05276,0.52669 -3.57224,0.0186 c -1.96473,0.0102 -4.10933,-0.0249 -4.76579,-0.078 z"
       id="path848"
       inkscape:connector-curvature="0"
       transform="matrix(0.26458333,0,0,0.26458333,154.30721,-34.978722)" />
    <path
       style="fill:#000000;fill-opacity:1;stroke:#000000;stroke-width:0.04718685;stroke-miterlimit:4;stroke-dasharray:none;stroke-opacity:1"
       d="m 765.04915,244.09899 c -0.0131,-0.32525 -0.0314,-0.51758 -0.071,-0.7466 l -0.0128,-0.074 0.0732,0.0549 c 0.10216,0.0766 0.23531,0.13972 0.33172,0.15721 l 0.0817,0.0148 -0.0805,0.13732 c -0.11229,0.19148 -0.22288,0.46105 -0.26881,0.65523 l -0.0389,0.16435 z"
       id="path850"
       inkscape:connector-curvature="0"
       transform="matrix(0.26458333,0,0,0.26458333,154.30721,-34.978722)" />
    <path
       style="fill:#ffffff;fill-opacity:1;stroke:#ffffff;stroke-width:0.56499994;stroke-miterlimit:4;stroke-dasharray:none;stroke-opacity:1"
       d="m 356.08234,29.557349 c 0.1518,-0.968568 0.0117,-2.09313 0.0117,-3.110349"
       id="path852"
       inkscape:connector-curvature="0" />
    <path
       style="fill:none;stroke:#000000;stroke-width:0.42795029px;stroke-linecap:butt;stroke-linejoin:miter;stroke-opacity:1"
       d="m 356.82597,30.531717 c 0,0 -0.47208,-0.892245 0.19622,-1.206695"
       id="path867"
       inkscape:connector-curvature="0"
       sodipodi:nodetypes="cc" />
    <ellipse
       style="fill:#ffffff;fill-opacity:1;stroke:#ffffff;stroke-width:0.54171824;stroke-miterlimit:4;stroke-dasharray:none;stroke-opacity:1"
       id="path869"
       cx="267.99634"
       cy="221.72577"
       rx="0.59986514"
       ry="0.42142358"
       transform="matrix(0.83582696,-0.54899298,0.6028838,0.79782901,0,0)" />
    <path
       style="fill:#000000;fill-opacity:1;stroke:#000000;stroke-width:0.53385824;stroke-miterlimit:4;stroke-dasharray:none;stroke-opacity:1"
       d="m 776.12994,219.06492 c -0.80635,-0.3258 -1.5297,-1.39543 -1.97156,-2.91534 -1.05136,-3.61657 -3.1218,-14.95195 -3.59896,-19.70381 -0.36912,-3.67599 0.15423,-4.13407 2.63349,-2.30505 4.4578,3.28866 11.06455,12.65487 13.36928,18.95326 0.89744,2.45254 1.2664,5.62539 0.69614,5.98644 -0.44685,0.28292 -10.42421,0.26902 -11.12839,-0.0155 z"
       id="path875"
       inkscape:connector-curvature="0"
       transform="matrix(0.26458333,0,0,0.26458333,154.30721,-34.978722)" />
    <path
       style="fill:#000000;fill-opacity:1;stroke:#000000;stroke-width:0.53385824;stroke-miterlimit:4;stroke-dasharray:none;stroke-opacity:1"
       d="m 731.53291,219.22732 -1.125,-0.29238 -0.0738,-1.53694 c -0.0898,-1.87112 0.47464,-3.68326 2.24671,-7.21306 4.4681,-8.90006 12.62789,-18.03641 15.10182,-16.9092 0.93566,0.42631 0.99364,1.35351 0.26675,4.26575 -0.36289,1.4539 -1.28609,5.6247 -2.05157,9.26845 -2.22071,10.57092 -2.49773,11.50243 -3.56525,11.98883 -1.5682,0.71451 -8.62232,0.99444 -10.79969,0.42855 z"
       id="path877"
       inkscape:connector-curvature="0"
       transform="matrix(0.26458333,0,0,0.26458333,154.30721,-34.978722)" />
    <path
       style="fill:#000000;fill-opacity:1;stroke:#000000;stroke-width:0.53385824;stroke-miterlimit:4;stroke-dasharray:none;stroke-opacity:1"
       d="m 551.7464,288.39652 c -0.36383,-0.0631 -0.87008,-0.34616 -1.125,-0.62897 -0.41205,-0.45713 -0.45945,-0.9341 -0.42709,-4.2984 0.0229,-2.37829 0.22742,-5.0381 0.55058,-7.15921 0.9535,-6.25839 1.22061,-6.625 4.82687,-6.625 2.21152,0 2.26489,0.0142 2.95707,0.78892 1.15063,1.28778 2.91338,8.42978 3.17011,12.84412 0.26198,4.50452 -0.37097,5.06671 -5.79102,5.14364 -1.925,0.0273 -3.79768,-0.002 -4.16152,-0.0651 z"
       id="path879"
       inkscape:connector-curvature="0"
       transform="matrix(0.26458333,0,0,0.26458333,154.30721,-34.978722)" />
    <path
       style="fill:#000000;fill-opacity:1;stroke:#000000;stroke-width:0.53385824;stroke-miterlimit:4;stroke-dasharray:none;stroke-opacity:1"
       d="m 103.11822,207.87206 c -6.475747,-0.35988 -10.001053,-1.22336 -10.62997,-2.60369 -0.588735,-1.29213 -0.179057,-1.50243 3.653015,-1.87526 3.411313,-0.33189 51.364525,-0.32022 54.058385,0.0132 4.83072,0.59782 5.6204,2.30734 1.86533,4.03812 l -1.24689,0.57471 -22,0.0293 c -12.1,0.0161 -23.66494,-0.0632 -25.69987,-0.17633 z"
       id="path885"
       inkscape:connector-curvature="0"
       transform="matrix(0.26458333,0,0,0.26458333,154.30721,-34.978722)" />
  </g>
</svg>
