<?xml version="1.0" encoding="UTF-8" standalone="no"?>
<!-- Created with Inkscape (http://www.inkscape.org/) -->

<svg
   xmlns:dc="http://purl.org/dc/elements/1.1/"
   xmlns:cc="http://creativecommons.org/ns#"
   xmlns:rdf="http://www.w3.org/1999/02/22-rdf-syntax-ns#"
   xmlns:svg="http://www.w3.org/2000/svg"
   xmlns="http://www.w3.org/2000/svg"
   xmlns:sodipodi="http://sodipodi.sourceforge.net/DTD/sodipodi-0.dtd"
   xmlns:inkscape="http://www.inkscape.org/namespaces/inkscape"
   width="400.78656mm"
   height="400.77869mm"
   viewBox="0 0 400.78656 400.77869"
   version="1.1"
   id="svg8"
   inkscape:version="0.92.3 (2405546, 2018-03-11)"
   sodipodi:docname="circle right.svg">
  <defs
     id="defs2" />
  <sodipodi:namedview
     id="base"
     pagecolor="#ffffff"
     bordercolor="#666666"
     borderopacity="1.0"
     inkscape:pageopacity="0.0"
     inkscape:pageshadow="2"
     inkscape:zoom="0.49497475"
     inkscape:cx="546.95043"
     inkscape:cy="899.95593"
     inkscape:document-units="mm"
     inkscape:current-layer="layer1"
     showgrid="false"
     inkscape:window-width="1920"
     inkscape:window-height="1015"
     inkscape:window-x="0"
     inkscape:window-y="32"
     inkscape:window-maximized="1" />
  <metadata
     id="metadata5">
    <rdf:RDF>
      <cc:Work
         rdf:about="">
        <dc:format>image/svg+xml</dc:format>
        <dc:type
           rdf:resource="http://purl.org/dc/dcmitype/StillImage" />
        <dc:title />
      </cc:Work>
    </rdf:RDF>
  </metadata>
  <g
     inkscape:label="Layer 1"
     inkscape:groupmode="layer"
     id="layer1"
     transform="translate(-20.343541,-27.457055)">
    <path
       style="fill:#000000;stroke-width:0.26458335"
       d="M 209.02852,427.98983 C 169.54291,425.61943 132.21301,411.95066 100.68165,388.31741 57.901699,356.25317 29.846225,308.93524 22.251342,256.03813 20.08642,240.9598 19.746663,223.23086 21.32091,207.48708 28.608599,134.60417 76.065893,70.881155 144.07331,42.661978 190.04636,23.585801 242.1258,22.414112 288.93269,39.402916 c 62.88344,22.823876 110.50325,75.794074 126.45654,140.664704 7.07949,28.7873 7.62172,59.4351 1.56877,88.67051 -6.34899,30.66539 -20.28658,60.154 -40.01712,84.66666 -6.89461,8.56568 -17.22532,19.24902 -25.3701,26.23606 -33.99523,29.16304 -75.27065,45.81681 -119.88359,48.37052 -5.38375,0.30819 -17.3561,0.29681 -22.65867,-0.0214 z m 27.51667,-29.45172 c 18.6312,-1.89632 34.76638,-5.97435 51.19687,-12.9395 26.37708,-11.18172 50.27901,-29.55637 68.03507,-52.30215 29.80462,-38.18014 41.99466,-86.75185 33.79888,-134.67292 C 381.66489,152.3669 354.54507,110.98177 314.99415,84.810917 305.72838,78.679751 294.447,72.760416 284.30248,68.707018 c -15.2668,-6.100088 -31.1035,-9.876859 -48.41875,-11.547007 -6.00233,-0.578956 -23.20778,-0.66393 -28.83959,-0.142428 -10.90991,1.010245 -18.97529,2.369447 -28.80564,4.854408 -25.78375,6.517738 -49.77192,19.16248 -70.4131,37.116444 -3.74056,3.253585 -11.844287,11.326155 -15.291811,15.233025 -10.074066,11.41631 -17.933422,22.97673 -24.643157,36.24791 -10.615528,20.99645 -16.401219,41.92484 -18.13985,65.61667 -0.614225,8.36984 -0.311801,22.09406 0.682144,30.95625 6.065237,54.0788 37.330227,101.77783 84.768934,129.32662 22.74222,13.20694 48.54562,20.91309 75.81123,22.64092 3.97482,0.25189 21.62719,-0.0743 25.5323,-0.47172 z m -34.39584,-82.6365 c 0,-0.10832 14.25219,-14.45098 31.67153,-31.87258 17.41934,-17.4216 31.57786,-31.7693 31.46338,-31.88379 -0.11449,-0.11448 -33.62503,-0.26769 -74.46789,-0.34045 L 116.55665,251.6725 V 227.86 204.0475 l 74.08333,-0.065 c 40.74583,-0.0358 74.25588,-0.13044 74.46678,-0.21037 0.25641,-0.0972 -10.12029,-10.65042 -31.3209,-31.85378 -18.735,-18.73743 -31.62997,-31.8288 -31.52252,-32.00266 0.13105,-0.21204 6.29112,-0.2942 22.0586,-0.2942 h 21.87678 l 43.98886,43.98589 c 24.19387,24.19224 43.98886,44.10558 43.98886,44.25186 0,0.14629 -19.79428,20.05998 -43.98727,44.25265 l -43.98729,43.98668 h -22.02626 c -12.11445,0 -22.02627,-0.0886 -22.02627,-0.19693 z"
       id="path826"
       inkscape:connector-curvature="0" />
    <path
       style="fill:#ffffff;fill-opacity:1;stroke:#ffffff;stroke-width:4.31422615;stroke-miterlimit:4;stroke-dasharray:none;stroke-opacity:1"
       d="M 694.83676,1511.5913 C 412.66873,1486.7905 169.26509,1309.8579 59.901765,1050.0506 40.529605,1004.0294 23.394561,947.58063 14.251042,899.66118 4.2641307,847.32166 2.9916052,831.27359 2.9569941,757.22967 2.9274318,693.98677 3.4109468,683.21183 7.5352885,655.20426 28.05552,515.85552 80.377468,394.29615 166.6695,285.48843 192.41394,253.02664 250.72469,194.26089 281.45854,169.80369 399.16689,76.134413 525.07959,23.490154 674.63371,5.4166544 710.63789,1.0655773 797.495,0.51004329 832.2175,4.4087561 985.62416,21.63357 1118.1566,76.76988 1236.6395,172.65693 c 29.2864,23.70117 84.5334,79.15455 107.3796,107.78074 39.4075,49.37729 63.2573,86.8771 91.2287,143.44166 44.1001,89.18073 67.3045,172.12246 75.9605,271.51367 3.046,34.97443 1.3451,122.13869 -3.0317,155.36588 -18.8966,143.45591 -74.3794,273.04712 -164.5216,384.27292 -23.0337,28.4212 -84.9149,90.0168 -112.4272,111.9084 -137.8042,109.6511 -304.58174,167.8306 -477.6216,166.6159 -21.76711,-0.1528 -48.21335,-1.037 -58.76944,-1.9648 z m 136.35679,-109.9216 c 126.47348,-14.7944 244.17835,-65.3231 342.45555,-147.0103 24.0621,-20.0002 68.6912,-65.3448 87.8832,-89.2921 75.8464,-94.6392 123.5787,-207.16492 139.705,-329.34573 4.9031,-37.14755 4.8561,-121.4087 -0.088,-157.5838 C 1380.749,529.16618 1318.604,401.93173 1216.124,299.62043 1115.6973,199.3592 992.84559,137.64631 849.45373,115.42867 811.06796,109.48104 728.61644,108.05656 688.77584,112.6527 536.72708,130.19354 404.80681,193.43265 298.84743,299.57414 247.71326,350.79619 208.29899,405.84273 176.5716,470.34635 c -34.64757,70.4405 -51.78866,126.78242 -63.00101,207.08127 -4.78789,34.2892 -4.71195,123.01041 0.13706,160.11744 15.66801,119.89949 59.33258,224.55814 133.80544,320.71514 21.6205,27.9157 74.94394,81.9195 102.82567,104.1376 95.58548,76.1692 207.80177,123.4303 330.4557,139.175 30.28711,3.8878 117.51081,3.944 150.39909,0.097 z"
       id="path816"
       inkscape:connector-curvature="0"
       transform="matrix(0.26458333,0,0,0.26458333,20.343541,27.457055)" />
    <path
       style="fill:#ffffff;fill-opacity:1;stroke:#ffffff;stroke-width:4.31422615;stroke-miterlimit:4;stroke-dasharray:none;stroke-opacity:1"
       d="m 703.95864,1074.9226 c 7.73534,-8.0559 61.21322,-62.016 118.83969,-119.91117 l 104.77541,-105.26397 -7.77708,-1.28487 c -4.27741,-0.70669 -130.73793,-1.29488 -281.02337,-1.3071 l -273.24626,-0.0222 v -88.57916 -88.57917 l 28.78935,-1.31701 c 15.83414,-0.72436 141.74965,-1.32035 279.81225,-1.32441 138.0626,-0.004 251.02291,-0.76863 251.02291,-1.69904 0,-0.93039 -53.26808,-55.47863 -118.37352,-121.2183 L 688.40453,424.88948 h 82.51797 82.51798 L 1009.035,580.95805 c 85.577,85.83771 160.1057,160.8577 165.6195,166.71111 l 10.0251,10.64252 -165.6198,165.6291 -165.61986,165.62912 h -81.77278 -81.7728 z"
       id="path818"
       inkscape:connector-curvature="0"
       transform="matrix(0.26458333,0,0,0.26458333,20.343541,27.457055)" />
  </g>
</svg>
